<svg width="276" height="80" viewBox="0 0 276 80" fill="none" xmlns="http://www.w3.org/2000/svg">
<path fill-rule="evenodd" clip-rule="evenodd" d="M38.6946 2.85321C17.478 2.85321 0.278564 19.3168 0.278564 39.6261C0.278564 59.935 17.478 76.3986 38.6946 76.3986C59.911 76.3986 77.1104 59.935 77.1104 39.6261C77.1104 19.3168 59.911 2.85321 38.6946 2.85321Z" fill="#ED3237"/>
<path d="M78.2119 39.6356C78.2119 17.7516 60.698 0 39.106 0C17.5139 0 0 17.7516 0 39.6356C0 61.5205 17.5139 79.2713 39.106 79.2713C60.698 79.2713 78.2119 61.5205 78.2119 39.6356ZM74.441 39.6356C74.441 59.4102 58.6162 75.4493 39.106 75.4493C19.5962 75.4493 3.77112 59.4102 3.77112 39.6356C3.77112 19.8616 19.5962 3.82232 39.106 3.82232C58.6162 3.82232 74.441 19.8616 74.441 39.6356Z" fill="#3E4095"/>
<path d="M24.3745 10.4898C24.3745 18.4917 17.8996 24.9821 9.91675 24.9821C9.91675 34.6437 9.91675 44.3056 9.91675 53.967C17.8996 53.967 24.3745 60.4578 24.3745 68.4595C34.1048 68.4595 43.8349 68.4595 53.5652 68.4595C53.5652 60.4578 60.0403 53.967 68.023 53.967C68.023 44.3056 68.023 34.6437 68.023 24.9821C60.0403 24.9821 53.5652 18.4917 53.5652 10.4898C43.8349 10.4898 34.1048 10.4898 24.3745 10.4898Z" fill="#00AFEF"/>
<path d="M40.1986 30.5719C40.1986 30.7937 40.1573 31.0289 40.0744 31.2784C39.6875 31.6107 38.9694 31.9566 37.9197 32.3169C37.1184 32.566 36.3313 32.8151 35.5577 33.0646C37.2427 38.5745 38.0855 42.687 38.0855 45.4004C38.0855 48.0312 37.2291 50.1078 35.5164 51.6311C34.135 52.8495 32.0356 53.8184 29.218 54.5389C27.1738 55.0649 25.5301 55.328 24.2871 55.328C22.7125 55.328 21.0824 54.9056 19.3975 54.061C17.7123 53.2163 16.4555 52.1432 15.6266 50.8421C14.9913 49.8725 14.6735 49.3465 14.6735 49.2637C14.6735 49.0419 15.1016 48.4188 15.9584 47.3944C16.8143 46.37 17.3601 45.7882 17.595 45.6501C17.8297 45.5115 18.3547 45.2762 19.1696 44.944C19.9844 44.6113 20.4746 44.4452 20.6406 44.4452C20.6406 44.4452 21.5243 45.2069 23.2926 46.7298C25.0604 48.2529 26.331 49.0144 27.1045 49.0144C28.4305 49.0144 29.0935 47.9343 29.0935 45.7744C29.0935 44.2238 28.8449 42.3963 28.3476 40.2918C27.8781 38.5192 27.3944 36.7335 26.8977 34.9334C26.4279 34.9612 25.4473 35.321 23.9553 36.0133C23.5962 35.9303 23.0231 35.5913 22.2358 34.9957C21.4484 34.4001 20.9512 33.9368 20.7442 33.6042C20.5369 33.2722 20.2192 32.3101 19.791 30.7176C19.3627 29.1251 19.135 28.1079 19.1073 27.6649L19.4802 27.1248C19.867 26.9585 22.7953 26.3561 28.2648 25.3178C33.7345 24.2793 36.6489 23.7599 37.0081 23.7599C37.2291 23.7599 37.7262 24.1548 38.4998 24.9436C39.2732 25.7332 39.7153 26.2663 39.8256 26.543C40.0744 27.1525 40.1986 28.4951 40.1986 30.5719ZM39.0799 30.2401V29.3261C39.0799 28.2183 39.0523 27.5813 38.9971 27.4154C38.7759 26.9172 38.0993 26.1278 36.9665 25.0479L37.2151 26.0862C37.298 26.7783 37.4641 27.7615 37.7124 29.0354C37.9888 29.3124 38.4447 29.7139 39.0799 30.2401ZM37.091 45.4701C37.091 44.6666 36.7524 42.5138 36.0756 39.0177C35.3987 35.522 34.9224 33.5489 34.6461 33.1058C34.4527 32.8291 34.2181 32.6213 33.9418 32.4831C33.6657 32.3447 33.3893 32.192 33.1128 32.0259C33.6378 33.4103 34.2732 36.0068 35.0191 39.8142C35.7927 43.6975 36.1794 46.2935 36.1794 47.5953C36.1794 48.3703 35.903 49.3743 35.3506 50.5928C36.5109 49.2359 37.091 47.5257 37.091 45.4701ZM36.5453 29.1597L35.6335 24.8262L20.4746 28.0313V28.3223C20.4746 28.9594 20.9582 30.4199 21.925 32.6904H22.1735C24.7982 31.7763 26.2483 31.32 26.5247 31.32C27.3806 31.32 28.3061 33.48 29.3006 37.7993C30.1296 41.5654 30.5437 44.2098 30.5437 45.7332C30.5437 47.3391 30.0399 48.5506 29.0315 49.3673C28.0232 50.1845 26.6763 50.5928 24.9913 50.5928C23.8588 50.5928 22.657 50.1358 21.3865 49.2222C20.3366 48.4188 19.2869 47.6161 18.2372 46.8126C18.0163 46.8959 17.6571 47.2696 17.1599 47.9343C16.8281 48.405 16.4831 48.862 16.1239 49.3051C17.7261 52.4341 20.5437 53.9986 24.577 53.9986C25.5989 53.9986 27.1184 53.7769 29.1351 53.3343C31.0133 52.9467 32.4085 52.4063 33.32 51.714C34.508 50.8006 35.102 49.5129 35.102 47.8514C35.102 46.2177 34.7705 43.9606 34.1075 41.0808C33.5549 38.8381 33.0024 36.5951 32.4498 34.3519C32.4223 34.1582 32.243 33.5075 31.9113 32.3997C31.6072 31.3753 31.4555 30.8355 31.4555 30.7797C31.4555 30.4199 32.2014 30.0735 33.6929 29.7416C34.6254 29.5477 35.5784 29.3536 36.5453 29.1597ZM63.4031 35.8058C63.4031 37.7443 62.8507 39.5025 61.7457 41.0808C60.6408 42.6594 59.1904 43.725 57.3951 44.2793C56.4555 44.6113 55.0744 45.0823 53.2511 45.6915C53.2237 45.7744 53.2099 45.8713 53.2099 45.9821C53.2099 46.7573 53.2443 47.9343 53.3134 49.5129C53.3824 51.0913 53.417 52.268 53.417 53.0434C53.417 54.0958 53.1547 54.691 52.6297 54.8293C52.2705 54.9402 51.7456 54.9886 51.0551 54.9748C50.3644 54.9609 49.8672 54.9816 49.5634 55.0369C49.3974 55.0649 48.8725 55.203 47.9888 55.4526C47.3255 55.6462 46.8147 55.7433 46.4555 55.7433C46.124 55.7433 45.6406 55.3417 45.0051 54.5389C44.4527 53.8461 44.0799 53.2788 43.8864 52.8356C43.5549 52.0604 43.1547 47.9618 42.6851 40.5409C42.2428 33.7567 42.0217 29.2155 42.0217 26.9172C42.0217 26.3629 42.0907 25.9892 42.2291 25.7956C42.5605 25.38 43.8589 25.0204 46.124 24.7154C47.9197 24.4939 49.37 24.3833 50.475 24.3833C54.591 24.3833 57.6987 25.186 59.798 26.7922C62.2016 28.6476 63.4031 31.6522 63.4031 35.8058ZM61.1242 40.1256L60.1711 40.0426L59.6738 40.1256C58.4861 41.0394 57.1737 41.7593 55.7374 42.2852C54.9086 42.5623 53.4721 42.9226 51.4279 43.3657C52.0634 44.002 52.4914 44.5285 52.7126 44.944C54.2595 44.3897 55.7928 43.85 57.3122 43.3238C58.942 42.687 60.2126 41.6207 61.1242 40.1256ZM61.8285 32.6904C61.8285 30.9461 61.1381 29.4647 59.7566 28.2462C58.6241 27.1939 57.1324 26.4182 55.2817 25.9203C53.9003 25.5602 53.03 25.38 52.6711 25.38C48.2787 25.38 45.0743 25.7125 43.0576 26.3769C43.0576 33.7982 43.6657 42.341 44.8812 52.0051C46.7041 51.6724 48.5551 51.4233 50.4335 51.2577V50.9663C50.4335 50.3576 50.3919 49.4437 50.309 48.2254C50.2264 47.0068 50.1848 46.0932 50.1848 45.484C50.1848 45.2069 50.1159 44.8052 49.9778 44.2793C49.8395 43.7528 49.7705 43.3657 49.7705 43.1162C49.7705 42.6731 50.1987 42.3825 51.0551 42.2439C51.6353 42.1886 52.2154 42.1333 52.7955 42.0777C54.0936 41.8562 55.4336 41.4687 56.8148 40.9147C58.113 40.3885 59.2733 39.2532 60.2954 37.5089C61.3174 35.7639 61.8285 34.1582 61.8285 32.6904ZM51.7594 53.8882C51.069 52.8566 50.6959 52.3371 50.6407 52.3371C50.2538 52.3371 48.4445 52.5657 45.2126 53.0295C46.124 54.0885 46.5799 54.6221 46.5799 54.6221C46.9391 54.6221 47.6986 54.4903 48.8589 54.2339C50.0193 53.9779 50.9861 53.8605 51.7594 53.8882ZM56.4832 32.7318C56.4832 34.1997 55.682 35.4321 54.0799 36.4287C52.6711 37.2597 51.1793 37.7028 49.6047 37.7581L49.1075 37.3011C49.1075 37.2735 49.1075 36.8441 49.1075 36.0133C49.1075 35.4043 49.0246 34.4836 48.8589 33.2512C48.6931 32.0187 48.6102 31.0984 48.6102 30.4891C48.6102 29.9353 49.1075 29.6028 50.1022 29.4922C50.2954 29.4647 51.0413 29.4507 52.3395 29.4507C55.1019 29.4507 56.4832 30.5444 56.4832 32.7318ZM55.4887 31.9427C55.3233 31.4996 54.9638 31.1261 54.4114 30.8214C53.8658 30.5166 53.3272 30.3644 52.7955 30.3644C52.3463 30.3644 51.5592 30.4891 50.4335 30.7383C51.4141 31.7075 51.8907 32.192 51.863 32.192C52.0081 32.192 52.1876 32.1228 52.4156 31.9844C52.5813 31.9566 52.9471 31.9152 53.5066 31.8599C53.9832 31.8046 54.3492 31.7763 54.6046 31.7763C54.9157 31.7763 55.2056 31.8324 55.4887 31.9427ZM55.4887 33.3136L54.7845 32.8151C54.232 32.8429 53.3892 32.829 52.2567 32.7737C52.1738 32.9954 52.1324 33.3136 52.1324 33.7289C52.1324 34.0059 52.1602 34.4001 52.2154 34.9127C52.2705 35.425 52.298 35.8197 52.298 36.0966C54.4253 35.2656 55.4887 34.338 55.4887 33.3136Z" fill="#FEFEFE"/>
<path d="M37.2768 67.7066C37.4411 67.5425 37.5233 67.337 37.5233 67.0903C37.5233 66.8077 37.4 66.5336 37.1532 66.2684C36.9066 66.0495 36.6276 65.9402 36.3168 65.9402C36.0703 65.9402 35.8667 66.0245 35.7069 66.1936C35.5468 66.3625 35.4669 66.5611 35.4669 66.7894C35.4669 67.1362 35.5857 67.4146 35.8233 67.6249C36.052 67.8619 36.3215 67.9807 36.6323 67.9807C36.897 67.9807 37.1121 67.8894 37.2768 67.7066ZM40.6899 68.0353C41.1197 68.2363 41.4576 68.3799 41.7047 68.4645C42.0516 68.5902 42.3672 68.6518 42.6506 68.6518C42.9246 68.6518 43.1851 68.6013 43.4319 68.501C43.6787 68.4029 43.9575 68.2271 44.2681 67.9807C44.716 68.3731 45.1499 68.5695 45.5704 68.5695C45.7714 68.5695 45.9612 68.5125 46.1395 68.4004C46.3177 68.2886 46.4755 68.1177 46.6124 67.8851C46.4114 68.122 46.1143 68.2408 45.7215 68.2408C45.4837 68.2408 45.2483 68.1928 45.0151 68.0972C44.7823 68.0009 44.5469 67.8482 44.3092 67.6386C44.0261 67.8482 43.7677 68.0009 43.5345 68.0972C43.3018 68.1928 43.0754 68.2408 42.856 68.2408C42.6277 68.2408 42.1525 68.0947 41.4304 67.8027C40.7084 67.5107 40.009 67.3641 39.3329 67.3641C39.1408 67.2548 38.9835 67.1044 38.8599 66.9123C38.7367 66.7209 38.6109 66.5245 38.4831 66.3233C38.2637 66.0588 38.0716 65.8442 37.907 65.6801C37.6602 65.4242 37.4182 65.1871 37.1804 64.9675C37.1348 64.9313 37.0707 64.9131 36.9886 64.9131C36.9157 64.9131 36.6735 65.0044 36.262 65.1871C35.9332 65.3331 35.604 65.4655 35.275 65.584C34.882 65.6478 34.5827 65.7324 34.377 65.8374C34.1715 65.942 34.0684 66.0406 34.0684 66.1319C34.0684 66.2502 34.1738 66.3097 34.3841 66.3097C34.5212 66.3097 34.6765 66.2802 34.8499 66.2211C35.0236 66.1617 35.2064 66.0588 35.3985 65.9127C35.7732 65.7668 36.0474 65.6708 36.2209 65.625C36.4768 65.5795 36.733 65.5292 36.9886 65.4744C37.0892 65.5385 37.2651 65.8194 37.5165 66.3144C37.7676 66.812 37.8934 67.1384 37.8934 67.291C37.8934 67.3095 37.8911 67.3254 37.8866 67.3391C37.8821 67.3528 37.8753 67.3641 37.8659 67.3734C37.7837 67.4899 37.6991 67.6087 37.6125 67.7248C37.5256 67.8439 37.4548 67.9693 37.4 68.104C37.1348 68.1678 36.8425 68.1996 36.5224 68.1996C36.1755 68.1996 35.869 68.1585 35.604 68.0765C35.339 67.9922 35.0512 67.8482 34.7403 67.6386C34.5484 67.8027 34.3337 67.9374 34.096 68.0424C33.8585 68.147 33.6255 68.1996 33.3968 68.1996C33.1869 68.1996 32.972 68.1541 32.7525 68.0628C32.5332 67.9718 32.314 67.8303 32.0945 67.6386C31.9301 67.8482 31.7516 68.0009 31.56 68.0972C31.3679 68.1928 31.1715 68.2408 30.9706 68.2408C30.5773 68.2408 30.2622 68.122 30.0247 67.8851C30.2347 68.3409 30.5773 68.5695 31.0525 68.5695C31.409 68.5695 31.7428 68.3915 32.0534 68.0353C32.2727 68.1951 32.4991 68.3186 32.7318 68.4029C32.965 68.4873 33.1777 68.5285 33.3694 68.5285C33.6162 68.5285 33.8494 68.4873 34.0684 68.4029C34.288 68.3186 34.5028 68.1951 34.7128 68.0353C35.3345 68.4461 35.9378 68.6518 36.5224 68.6518C37.0892 68.6518 37.6423 68.4461 38.1813 68.0353C38.6383 68.4461 39.0588 68.6518 39.4426 68.6518C39.6528 68.6518 39.8561 68.5995 40.0527 68.4942C40.249 68.3892 40.4617 68.2363 40.6899 68.0353Z" fill="#FEFEFE"/>
<path d="M48.781 14.8196C48.7973 14.8114 48.8157 14.8052 48.8357 14.8012C48.8559 14.7971 48.8782 14.795 48.9022 14.795C49.0477 14.795 49.1851 14.8577 49.3143 14.9835C49.4437 15.1089 49.5323 15.2687 49.5809 15.4633C49.5972 15.5523 49.6093 15.6171 49.6172 15.6579C49.6254 15.6982 49.6294 15.7389 49.6294 15.7792C49.6294 16.1274 49.5001 16.3461 49.2415 16.4349H49.1082C48.9628 16.4349 48.8257 16.3741 48.6965 16.2487C48.5671 16.1251 48.4742 15.9651 48.4177 15.7732L48.3811 15.4835C48.3811 15.1048 48.5144 14.8842 48.781 14.8196ZM51.439 17.5203C51.5362 17.6901 51.6189 17.8965 51.6915 18.1398C51.7642 18.3827 51.8371 18.6176 51.9077 18.8447C52.0126 19.0147 52.0651 19.1763 52.0651 19.3304C52.0651 19.4842 52.0229 19.5607 51.9361 19.5607C51.8734 19.5607 51.8048 19.5145 51.7299 19.4214C51.6554 19.3278 51.6169 19.237 51.6169 19.1483V18.9053C51.5524 18.7188 51.4854 18.5526 51.4171 18.4068C51.3483 18.2611 51.2534 18.0711 51.1321 17.836C51.0917 17.7631 50.9783 17.6539 50.7927 17.508C50.5746 17.3382 50.4414 17.2206 50.3931 17.1559C50.4816 17.3826 50.6512 17.8119 50.9019 18.4436C50.9825 18.6619 51.0633 18.828 51.1443 18.9414C51.2735 19.128 51.3483 19.4801 51.3682 19.9984C51.3887 20.5166 51.425 20.8667 51.4774 21.0492C51.5301 21.2312 51.8975 21.448 52.5802 21.6992C53.2629 21.9498 53.6043 22.1 53.6043 22.1485V23.0593C53.6043 23.157 53.5398 23.2053 53.4103 23.2053C53.3134 23.2053 53.2609 23.1608 53.253 23.0717L53.168 22.4278C53.168 22.4118 52.8187 22.3005 52.1198 22.0939C51.4209 21.8875 51.0513 21.7597 51.0109 21.7113C50.9382 21.6384 50.8515 21.4805 50.7504 21.2372C50.6494 20.9943 50.5424 20.7031 50.4294 20.3627C50.3805 20.5492 50.312 20.7756 50.2232 21.0431C50.0213 21.6262 49.9203 21.9498 49.9203 22.0149C49.9364 22.2013 49.9648 22.5677 50.0052 23.116C50.0454 23.6648 50.0657 24.0233 50.0657 24.1912C50.0657 24.272 50.0636 24.325 50.0595 24.353C50.0557 24.3817 50.0454 24.4078 50.0293 24.4325H48.9994C48.8943 24.4325 48.8418 24.3776 48.8418 24.2679C48.8418 24.1753 48.8782 24.1286 48.9506 24.1286L49.5932 24.0801C49.5932 23.8209 49.5525 23.505 49.4719 23.1325C49.3911 22.7601 49.3063 22.3751 49.2174 21.9784C49.2174 21.7434 49.2777 21.387 49.399 20.9092C49.6495 19.9053 49.783 19.3746 49.7991 19.3181C49.5244 18.7188 49.3588 18.3503 49.3023 18.2129C49.2455 18.0751 49.2053 17.9129 49.181 17.7267C49.1567 17.7916 49.1202 17.9473 49.0718 18.1947C49.0234 18.4413 48.9708 18.5996 48.9144 18.6682C48.8579 18.7372 48.6579 18.7978 48.3146 18.8503C47.9711 18.903 47.7572 18.9476 47.6722 18.9839C47.5873 19.0206 47.5027 19.0489 47.4178 19.0689C47.333 19.0894 47.2625 19.0994 47.2057 19.0994C47.0683 19.0994 46.9998 19.0591 46.9998 18.9781C46.9998 18.9053 47.0543 18.8363 47.1635 18.7717C47.2725 18.707 47.4277 18.6742 47.6298 18.6742C47.7432 18.6742 47.9166 18.6257 48.1512 18.5283C48.2965 18.4637 48.4499 18.3865 48.6114 18.298C48.6438 18.0144 48.6784 17.7326 48.7145 17.4534C48.7507 17.1741 48.8195 16.9859 48.9204 16.8887C49.0214 16.7913 49.1729 16.6943 49.3749 16.5969C49.6334 16.4759 49.8597 16.4149 50.0536 16.4149C50.2151 16.4149 50.4514 16.5322 50.7645 16.7671C51.0774 17.0018 51.3017 17.2531 51.439 17.5203ZM50.7323 24.3712C50.3848 24.2907 50.2109 24.0781 50.2109 23.7337V23.5617C50.2515 23.3996 50.3343 23.2681 50.4555 23.1708C50.5788 23.0717 50.7202 23.0232 50.8837 23.0232H51.031C51.1927 23.0635 51.324 23.1445 51.4209 23.266C51.5196 23.3877 51.5685 23.5295 51.5685 23.6911V23.8494C51.4713 24.1976 51.2452 24.3712 50.8899 24.3712H50.7323Z" fill="#FEFEFE"/>
<path d="M17.0793 41.4839C17.0793 41.3621 17.1438 41.257 17.273 41.1678C17.4024 41.0785 17.5597 41.022 17.7457 40.9977H17.9031C18.0647 40.9977 18.2059 41.0342 18.3271 41.1052C18.4484 41.178 18.5093 41.2611 18.5093 41.356C18.5093 41.4693 18.4484 41.569 18.3271 41.6558C18.2059 41.7447 18.0445 41.7994 17.8426 41.8242H17.7093C17.5316 41.8242 17.3863 41.7952 17.273 41.7369C17.1599 41.6781 17.0954 41.5929 17.0793 41.4839ZM15.4432 35.1813C15.3541 35.0294 15.3099 34.9181 15.3099 34.8469C15.3099 34.8308 15.3158 34.8189 15.328 34.8107C15.3401 34.8025 15.3541 34.7946 15.3705 34.7863C15.4593 34.7863 15.6027 34.8651 15.8008 35.0233C15.9985 35.1813 16.1863 35.3694 16.3641 35.5859C16.7519 35.821 17.2205 36.1449 17.7698 36.5559C18.2465 36.9121 18.6587 37.234 19.0059 37.5255C19.192 37.6853 19.3777 37.8434 19.5635 37.9975C19.733 37.9001 19.9976 37.8189 20.3573 37.7543C20.7166 37.6893 21.1145 37.6204 21.5509 37.5476C21.3166 37.3698 21.1186 37.1955 20.9571 37.0257C20.6662 36.6611 20.3995 36.3454 20.1572 36.078C20.1007 36.0128 20.036 35.9808 19.9633 35.9808H19.915C19.8582 35.9565 19.8219 35.9362 19.8058 35.9202L19.321 35.1526C19.2243 34.9905 19.1754 34.8856 19.1754 34.8369C19.2 34.8043 19.2201 34.7863 19.2363 34.7863C19.3251 34.7863 19.4905 34.8913 19.737 35.098C19.9815 35.3048 20.1693 35.509 20.2984 35.7113C20.8057 36.0761 21.2518 36.4365 21.6378 36.7928C22.1124 37.2221 22.3507 37.5174 22.3507 37.6796V37.7401C22.1305 38.0155 21.767 38.2383 21.26 38.4082C20.8359 38.5458 20.4118 38.6799 19.9876 38.8092V38.8822C20.0278 39.1492 20.0664 39.4103 20.1027 39.6656C20.139 39.9205 20.1572 40.1456 20.1572 40.34C20.1572 40.6555 20.1127 40.9611 20.0239 41.2569C19.9372 41.5528 19.7814 41.8362 19.5635 42.1031V42.3827C19.5635 42.5283 19.5855 42.9373 19.6321 43.6094C19.6504 43.8766 19.6604 44.124 19.6604 44.3502C19.6604 44.5933 19.64 44.8367 19.5996 45.0793C19.5996 45.1844 19.5635 45.2374 19.4905 45.2374H18.8242C18.7835 45.2374 18.7513 45.2336 18.7273 45.2252C18.7029 45.2169 18.6789 45.2049 18.6545 45.1885C18.7029 45.1564 18.7474 45.1359 18.7878 45.1279C18.9173 45.0874 19.0868 45.067 19.2967 45.067C19.2243 44.7677 19.1312 44.0368 19.0181 42.8786C18.9698 42.3906 18.9293 42.1157 18.8968 42.0506C18.7758 41.8157 18.7152 41.6011 18.7152 41.407C18.7152 41.2346 18.8001 40.9267 18.9698 40.4816C19.0506 40.2713 19.0908 40.1049 19.0908 39.9833V39.8131C19.0728 39.7548 19.0059 39.6254 18.8907 39.4223C18.7738 39.2199 18.7152 39.0423 18.7152 38.8882C18.7152 38.7669 18.7434 38.6451 18.8001 38.5235C18.5415 38.3132 18.2949 38.0704 18.0607 37.7991C17.8265 37.5277 17.6365 37.2785 17.4914 37.0519C16.9822 36.7095 16.7076 36.5234 16.6669 36.4908C16.5215 36.3695 16.3641 36.2118 16.1944 36.017C16.1702 36.009 16.14 36.0031 16.1035 35.999C16.0671 35.9949 16.0369 35.989 16.0126 35.9808C15.9563 35.9808 15.9157 35.9646 15.8916 35.932L15.4432 35.1813Z" fill="#FEFEFE"/>
<path fill-rule="evenodd" clip-rule="evenodd" d="M12.2283 51.4024C12.1357 51.4024 12.0603 51.4728 12.0603 51.5595C12.0603 51.6464 12.1357 51.7169 12.2283 51.7169C12.3214 51.7169 12.3968 51.6464 12.3968 51.5595C12.3968 51.4728 12.3214 51.4024 12.2283 51.4024Z" fill="#FEFEFE"/>
<path fill-rule="evenodd" clip-rule="evenodd" d="M14.2788 53.3447C14.354 53.3447 14.4149 53.4064 14.4149 53.4815C14.4149 53.5566 14.354 53.6178 14.2788 53.6178C14.2035 53.6178 14.1428 53.5566 14.1428 53.4815C14.1428 53.4064 14.2035 53.3447 14.2788 53.3447Z" fill="#FEFEFE"/>
<path fill-rule="evenodd" clip-rule="evenodd" d="M14.4069 49.5397C14.482 49.5397 14.5429 49.601 14.5429 49.6763C14.5429 49.7515 14.482 49.8128 14.4069 49.8128C14.3318 49.8128 14.2706 49.7515 14.2706 49.6763C14.2706 49.601 14.3318 49.5397 14.4069 49.5397Z" fill="#FEFEFE"/>
<path fill-rule="evenodd" clip-rule="evenodd" d="M12.3726 48.7687C12.4479 48.7687 12.5087 48.8301 12.5087 48.9057C12.5087 48.981 12.4479 49.042 12.3726 49.042C12.2973 49.042 12.2365 48.981 12.2365 48.9057C12.2365 48.8301 12.2973 48.7687 12.3726 48.7687Z" fill="#FEFEFE"/>
<path fill-rule="evenodd" clip-rule="evenodd" d="M10.3542 53.0397C10.4294 53.0397 10.4905 53.1012 10.4905 53.1765C10.4905 53.2521 10.4294 53.3131 10.3542 53.3131C10.2791 53.3131 10.218 53.2521 10.218 53.1765C10.218 53.1012 10.2791 53.0397 10.3542 53.0397Z" fill="#FEFEFE"/>
<path fill-rule="evenodd" clip-rule="evenodd" d="M12.3566 53.8912C12.4318 53.8912 12.4929 53.9522 12.4929 54.0275C12.4929 54.1028 12.4318 54.1639 12.3566 54.1639C12.2812 54.1639 12.2204 54.1028 12.2204 54.0275C12.2204 53.9522 12.2812 53.8912 12.3566 53.8912Z" fill="#FEFEFE"/>
<path fill-rule="evenodd" clip-rule="evenodd" d="M10.3383 49.588C10.4132 49.588 10.4744 49.649 10.4744 49.7243C10.4744 49.7994 10.4132 49.8609 10.3383 49.8609C10.2632 49.8609 10.2021 49.7994 10.2021 49.7243C10.2021 49.649 10.2632 49.588 10.3383 49.588Z" fill="#FEFEFE"/>
<path fill-rule="evenodd" clip-rule="evenodd" d="M31.8463 19.2769C31.8209 19.1599 31.8211 19.2088 31.9199 19.1624C31.8927 19.3723 31.9307 19.1294 31.8463 19.2769ZM31.429 19.0318C31.4256 19.4228 31.3146 19.7462 30.9829 19.9799C30.0814 20.6148 30.0192 18.9901 30.5435 18.6403C30.7339 18.5128 30.9215 18.3367 31.2251 18.4523C31.3969 18.5183 31.4306 18.839 31.429 19.0318ZM32.0654 18.74C32.0777 18.6114 32.0541 18.6601 32.1315 18.5996C32.1305 18.6439 32.1481 18.6255 32.1287 18.671C32.1017 18.7332 32.1217 18.6904 32.0654 18.74ZM29.8573 19.1099C29.855 19.0316 29.8459 19.065 29.8787 19.0106C29.8793 19.0111 29.924 19.0026 29.91 19.0664C29.8943 19.1383 29.8946 19.0707 29.8573 19.1099ZM32.2289 18.5484C32.186 18.4303 32.2191 18.5065 32.2294 18.4664C32.2319 18.4712 32.2477 18.4637 32.2441 18.5083C32.2437 18.5144 32.2289 18.5481 32.2289 18.5484ZM31.6238 18.4163C31.6047 18.2844 31.5749 18.2165 31.5166 18.1234C31.5425 18.0588 31.5722 17.9943 31.6833 17.9925C31.6744 18.1569 31.6226 18.2429 31.6671 18.4482C31.959 18.3247 31.6894 17.9803 31.9063 17.8512C31.8574 17.9771 31.7956 18.1669 31.886 18.3064C32.0273 18.3257 31.9853 18.2679 32.0775 18.2356C32.1764 18.2004 32.196 18.2545 32.2632 18.105C32.356 17.8974 32.2752 17.7586 32.1524 17.6525C31.9711 17.6956 32.0684 17.7424 31.909 17.7488C31.788 17.7534 31.7607 17.8141 31.7278 17.8992C31.4058 17.8805 31.5852 17.9438 31.3156 18.1248L31.3256 18.3342L31.1208 18.3147L31.1881 18.2169C31.2106 18.1862 31.1988 18.2074 31.2189 18.1714C31.2372 18.1394 31.2244 18.1539 31.2415 18.1209C31.3111 17.9853 31.3547 18.0465 31.2862 17.8945C31.0437 17.8615 31.048 17.9842 30.9043 18.0568C30.8927 17.92 30.9731 17.9412 31.0971 17.8742C31.4108 17.7049 31.2471 17.5117 30.9499 17.7531C30.8243 17.8549 30.8886 17.8963 30.7267 17.8829C30.7311 17.6992 30.8586 17.4998 31.0736 17.4684C31.0351 17.5526 31.0419 17.5265 31.0761 17.5904C31.1449 17.5617 31.1541 17.5801 31.169 17.5012C31.2317 17.1778 30.5069 17.5146 30.6625 17.9582L30.7978 17.998C30.7909 18.0622 30.7926 18.1396 30.7887 18.1958C30.7755 18.3886 30.7814 18.2242 30.8414 18.3533L30.407 18.5299C30.4465 18.377 30.7314 18.2759 30.6488 18.1125C30.6177 18.0843 30.573 18.1084 30.5413 18.1316C30.4422 18.2026 30.402 18.3545 30.3041 18.4275C30.288 18.1587 30.4772 18.1589 30.5744 17.9841C30.5674 17.8217 30.5814 17.9928 30.5501 17.9225C30.4722 17.7477 30.5612 17.8412 30.4788 17.7086C30.1974 17.7925 30.1266 18.1332 30.0578 18.1981C30.009 18.1396 30.0387 18.0296 30.0656 17.9473C30.0978 17.8492 30.12 17.7959 30.2325 17.7518C30.2851 17.6989 30.1661 17.7394 30.2444 17.7563C30.3428 17.7779 30.3614 17.7103 30.2926 17.6601C30.0455 17.5856 29.8703 18.1027 29.9609 18.2502C30.0537 18.4011 30.165 18.1658 30.2149 18.3351C30.2519 18.4603 30.1446 18.3904 30.0473 18.3902C29.905 18.3895 30.0347 18.4182 29.9071 18.3215C29.7865 18.361 29.7668 18.4318 29.7363 18.5349C29.6436 18.5033 29.6927 18.489 29.6003 18.4931C29.4623 18.6767 29.6443 18.5379 29.3912 18.6963C29.3599 18.941 29.3653 19.1745 29.6212 19.231C29.7252 19.2537 29.6629 19.2425 29.7363 19.2134C29.9082 19.1455 29.8628 19.2605 30.0224 19.1437C30.1311 19.0639 30.0342 19.0959 30.1582 19.0427C30.1564 19.3236 29.9972 19.5507 30.172 19.9044C30.5212 20.6093 31.2396 20.028 31.4417 19.6315C31.6251 19.2717 31.4483 19.0231 31.7859 19.0163C31.8375 19.0151 31.8234 19.0149 31.8538 19.0249C31.8081 19.1162 31.6665 19.164 31.7743 19.3691C31.8858 19.38 31.8845 19.339 31.9934 19.3953C32.0836 19.4424 32.1112 19.4514 32.2487 19.4228C32.5224 18.9821 32.1187 19.0184 31.8688 18.923C31.718 18.8656 31.7067 18.9426 31.5827 18.9917C31.5609 18.8465 31.5741 18.9846 31.5983 18.9233L31.6789 18.7204C31.7366 18.6246 31.78 18.5946 31.8619 18.5101C31.8463 18.5723 31.7866 18.7115 31.7996 18.7789C31.8192 18.8804 31.8207 18.8702 31.9848 18.8802C32.0561 18.8845 32.0559 18.8905 32.131 18.8855C32.1692 18.8333 32.1953 18.7644 32.2269 18.694C32.3002 18.7755 32.2304 18.755 32.3272 18.8198L32.4285 18.7405C32.7252 18.4796 32.3313 18.2996 32.1892 18.3574C32.0958 18.3954 32.1305 18.4257 32.0118 18.4152C31.9242 18.407 31.8983 18.3697 31.7966 18.4248C31.7074 18.4733 31.5804 18.6451 31.5584 18.7006C31.5119 18.6239 31.4642 18.5652 31.4564 18.4662C31.548 18.4853 31.5764 18.4693 31.6238 18.4163ZM30.1859 18.9419C30.2145 18.8033 30.2624 18.7013 30.2479 18.5281C30.2787 18.5566 30.2492 18.5221 30.2915 18.5789L30.3466 18.6574C30.3471 18.6537 30.3546 18.666 30.358 18.671C30.3026 18.7693 30.2685 18.857 30.1859 18.9419ZM29.9975 18.9496C29.9636 18.8055 29.9833 18.7084 30.0287 18.6073C30.0537 18.7689 30.0887 18.8447 29.9975 18.9496ZM29.5228 19.0924C29.4339 18.9824 29.4316 18.872 29.4911 18.7623L29.5228 19.0924ZM29.6507 18.834C29.6421 18.7125 29.5798 18.79 29.63 18.6023C29.7811 18.6931 29.7054 18.9283 29.665 18.9921C29.6312 19.0459 29.6682 18.9969 29.6124 19.0457C29.5823 18.918 29.6576 18.9286 29.6507 18.834ZM31.5073 18.2584C31.5234 18.3424 31.5368 18.2841 31.5009 18.3533C31.4748 18.3055 31.4846 18.3074 31.5073 18.2584ZM29.8269 18.854C29.7992 18.6849 29.8155 18.5326 29.8946 18.4263C29.9629 18.5146 29.8741 18.7785 29.8269 18.854ZM32.0461 17.8729C32.0747 17.8371 32.0968 17.7929 32.1546 17.7739C32.2545 17.938 32.1776 18.0326 32.1177 18.1226C32.0561 18.0515 32.0783 17.9912 32.0461 17.8729Z" fill="#FEFEFE"/>
<path fill-rule="evenodd" clip-rule="evenodd" d="M31.1549 21.9655L31.2707 22.2289C31.1629 22.2129 31.0811 22.1485 30.9646 22.1244L31.0562 22.0366C31.1 22.0061 31.1152 21.9953 31.1549 21.9655ZM30.6924 21.8843C30.6799 21.9103 30.6354 21.9105 30.7128 21.9943C30.875 21.9603 30.8516 21.9155 30.9785 21.8727C30.9568 21.91 30.9392 21.9237 30.9149 21.9651C30.8948 21.9995 30.9143 21.9701 30.8938 22.0131C30.8682 22.0679 30.8931 22.0338 30.8575 22.0773C30.6795 21.9842 30.4456 21.9885 30.3206 21.9278C30.3854 21.8682 30.39 21.9237 30.4738 21.8882C30.5208 21.8686 30.5308 21.8265 30.6082 21.8025C30.6055 21.808 30.5489 21.8065 30.6061 21.8645C30.6473 21.9061 30.5842 21.8957 30.6924 21.8843ZM29.5695 22.0086C29.5776 21.9803 29.5695 21.9774 29.5971 21.9566C29.6471 21.9193 29.6151 21.9446 29.6483 21.9321L29.5695 22.0086ZM29.3147 22.0158C29.3551 21.885 29.3508 21.8672 29.5082 21.8233L29.3147 22.0158ZM30.9726 21.3988C31.0025 21.498 31.0941 21.6556 31.0555 21.745C30.9974 21.7397 31.0314 21.768 31.0121 21.7199L31.0028 21.6649C31.001 21.6592 30.9978 21.6521 30.996 21.6458C30.9779 21.5836 31.0005 21.6826 30.9814 21.6073L30.9596 21.5063L30.8332 21.5297C30.937 21.4147 30.8732 21.4603 30.9726 21.3988ZM30.7642 20.8817C30.8084 20.8607 30.7953 20.8779 30.822 20.8781L30.9522 21.3608C30.8042 21.3429 30.7966 21.4243 30.6674 21.4846C30.7515 21.4034 30.8457 21.364 30.8875 21.2372C30.81 21.1946 30.8241 21.2088 30.7299 21.2299C30.7712 21.2036 30.8014 21.1608 30.8378 21.1325C30.7923 21.05 30.8363 21.0843 30.7515 21.0353C30.6716 20.9894 30.6701 21.0303 30.6518 21.0012C30.6461 20.9921 30.6362 20.9985 30.6282 20.9962L30.7642 20.8817ZM29.7109 21.5727C29.8796 21.4678 30.1541 21.2217 30.4241 21.0495L29.7774 21.6303C29.7445 21.6071 29.7336 21.5948 29.7109 21.5727ZM29.7447 21.247C29.9529 21.2689 29.8326 21.2395 30.1376 21.0528C30.0394 21.1491 29.9164 21.2561 29.8133 21.3606C29.7502 21.424 29.6927 21.4582 29.6498 21.512C29.5733 21.6076 29.6416 21.5511 29.6026 21.6101C29.5801 21.6439 29.5476 21.6562 29.5067 21.6744C29.581 21.5356 29.6888 21.391 29.7447 21.247ZM30.5853 20.7616C30.7196 20.6633 30.6602 20.6618 30.6043 20.5842C30.655 20.5349 30.6073 20.5815 30.6359 20.5335C30.6377 20.5303 30.645 20.5255 30.6452 20.5169C30.6455 20.5085 30.6511 20.506 30.6563 20.4992L30.7619 20.729L30.3063 21.0083C30.3634 20.9475 30.403 20.9054 30.4781 20.8428C30.5201 20.8076 30.5405 20.7936 30.5853 20.7616ZM29.163 22.1492C29.2668 22.1874 30.0563 22.0079 30.3819 22.0829C30.5652 22.1256 30.7153 22.151 30.883 22.2114C31.0532 22.2721 31.2297 22.4091 31.347 22.4228L31.4295 22.3306C31.4085 22.2029 31.2651 21.9061 31.2117 21.7519C31.1426 21.5523 31.0782 21.3351 31.0166 21.1309C30.946 20.8967 30.8983 20.7454 30.8059 20.5292C30.7476 20.3933 30.7408 20.3821 30.5896 20.3894C30.2754 20.4044 30.3435 20.4083 29.9717 20.8546L29.6541 21.2534C29.5497 21.3957 29.4881 21.5479 29.3853 21.6856C29.3136 21.7821 29.1196 22.0406 29.163 22.1492Z" fill="#FEFEFE"/>
<path fill-rule="evenodd" clip-rule="evenodd" d="M25.8514 20.3762C25.8074 20.2938 25.8127 20.1247 25.8072 20.02C25.9273 20.038 26.1005 20.1443 26.1805 20.2444C26.1587 20.267 26.1745 20.2583 26.1323 20.2816L25.8514 20.3762ZM26.701 20.0025C26.6977 20.0079 26.6884 20.0082 26.6879 20.0172C26.6864 20.0339 26.6277 20.0448 26.6126 20.1609C26.5846 20.3782 26.6225 20.4361 26.2277 20.6052C25.8414 20.7704 25.8916 20.6808 25.6487 20.6546C25.5356 20.6423 25.5175 20.7078 25.5298 20.47C25.63 20.4802 25.5692 20.47 25.6337 20.5164C25.6907 20.5573 25.7341 20.6382 25.9398 20.6065C26.0671 20.587 26.2769 20.4866 26.3668 20.4137C26.7619 20.0945 26.3078 19.8987 26.5115 19.9062C26.5564 19.9076 26.6645 19.9706 26.701 20.0025ZM25.7082 20.1017C25.5858 20.1365 25.4796 20.1643 25.4537 20.0237C25.4326 19.9103 25.5014 19.8661 25.6028 19.8421C25.7243 19.9099 25.7495 19.9572 25.7082 20.1017ZM25.8356 19.7105C25.881 19.679 25.9382 19.6472 26.0061 19.6292L26.0892 19.6882C26.1289 19.8104 26.15 19.9221 25.9925 19.9314C25.876 19.9386 25.8437 19.8229 25.8356 19.7105ZM26.815 20.2745C26.8627 19.7667 26.4468 19.4517 26.0869 19.4353C25.9643 19.4296 25.7822 19.4613 25.6995 19.5039C25.5132 19.598 25.2493 19.972 25.2164 20.1677C25.0177 21.3458 26.7296 21.176 26.815 20.2745Z" fill="#FEFEFE"/>
<path fill-rule="evenodd" clip-rule="evenodd" d="M27.4808 23.6951C27.48 23.6456 27.4869 23.6168 27.5016 23.5717C27.5319 23.4807 27.5033 23.5328 27.5618 23.4709L27.6175 23.629L27.4808 23.6951ZM27.2287 23.9443C27.3014 23.9511 27.7022 23.7396 27.7773 23.6706C27.7126 23.4818 27.5109 23.2437 27.4969 23.0025L27.852 22.9271L28.0861 23.5548C28.176 23.5795 28.1994 23.5407 28.2203 23.5317C28.2678 23.5118 28.3205 23.5 28.3349 23.4895C28.4164 23.4292 28.3379 23.3882 28.4417 23.3684C28.4417 23.3684 28.5179 23.3691 28.5411 23.3652C28.5336 23.3236 28.2839 22.4717 28.2201 22.4164C28.1638 22.3679 27.8981 22.298 27.8143 22.2755C27.5922 22.2154 27.6334 22.1201 27.4252 22.3422C27.335 22.4384 26.944 22.9171 26.9184 22.9852C26.8722 23.1083 26.993 23.3374 27.0564 23.4499C27.1543 23.6236 27.1604 23.7829 27.2287 23.9443Z" fill="#FEFEFE"/>
<path fill-rule="evenodd" clip-rule="evenodd" d="M27.0359 22.3529L27.0957 22.4456L26.9764 22.5994L27.0359 22.3529ZM27.1928 22.2894L27.2653 22.0488C27.2907 22.1704 27.2771 22.2222 27.1928 22.2894ZM26.7721 22.8628C26.7296 22.7573 26.6463 22.5978 26.6465 22.4981C26.766 22.5156 26.5862 22.5675 26.7944 22.5088L26.9574 21.9418C26.945 22.2833 26.8318 22.5136 26.8157 22.6784C26.803 22.8072 26.8718 22.8129 26.7721 22.8628ZM26.9049 21.1403L27.2826 21.7081C27.2114 21.7189 27.1903 21.6212 27.1107 21.7031C27.0746 21.5588 27.0573 21.6319 27.0271 21.5383C27.008 21.4787 27.0194 21.4232 26.9817 21.326C26.8175 21.3906 26.8019 21.6248 26.7449 21.78C26.7218 21.8438 26.7115 21.8911 26.6791 21.951C26.7 21.7214 26.8368 21.3774 26.9049 21.1403ZM26.5119 22.2054C26.4411 22.0338 26.464 21.958 26.5819 21.7352L26.6272 21.6687C26.6152 21.838 26.5226 22.0709 26.5119 22.2054ZM26.3614 21.8057C26.2976 21.7309 26.3174 21.7402 26.3546 21.6494L26.4277 21.4923C26.4143 21.5889 26.3834 21.6867 26.3614 21.8057ZM26.7826 20.9864L26.884 21.1311C26.6157 21.0524 26.6695 21.369 26.5344 21.5515C26.5694 21.4245 26.5905 21.3813 26.6418 21.2732C26.7526 21.0417 26.6654 21.0601 26.7826 20.9864ZM26.1464 21.4047C26.1838 21.3662 26.2127 21.335 26.2697 21.3016L26.2138 21.5065L26.1464 21.4047ZM26.3696 21.2709C26.34 21.1964 26.3437 21.2344 26.4145 21.2047C26.4018 21.3034 26.4093 21.2479 26.3696 21.2709ZM26.8069 23.1155C26.8857 23.0664 26.8225 23.0949 26.8747 22.9558C26.8945 22.9026 26.9267 22.8675 26.9586 22.8156C27.0294 22.7002 27.0612 22.638 27.1484 22.5284C27.3756 22.2443 27.2603 22.3322 27.5026 22.1772L27.5721 22.1126C27.5879 22.0957 27.6154 22.0684 27.6347 22.0486C27.6081 21.9746 27.558 21.8893 27.5106 21.8153C27.4747 21.7602 27.4792 21.7732 27.4486 21.712C27.3919 21.5998 27.4587 21.6744 27.3698 21.6016C27.2237 21.483 27.1827 21.3674 27.0664 21.2054C26.722 20.7263 26.8622 20.7872 26.3124 21.1621C25.9902 21.3813 26.0817 21.3957 26.3611 22.0732C26.4324 22.2462 26.4926 22.4724 26.5682 22.6101C26.6459 22.7518 26.6743 22.8666 26.7188 23.0036C26.7612 23.1345 26.7067 23.0867 26.8069 23.1155Z" fill="#FEFEFE"/>
<path fill-rule="evenodd" clip-rule="evenodd" d="M30.3327 19.1791L30.5414 19.1406C30.5269 19.2522 30.5192 19.1916 30.4617 19.2826C30.3773 19.4166 30.4208 19.705 30.4919 19.8525C30.6523 19.9014 30.7324 19.8686 30.8316 19.7478C30.9857 19.5603 30.9338 19.4897 30.9797 19.4066C31.0721 19.4433 31.1082 19.4556 31.1484 19.5603C30.8616 19.7925 31.0492 19.7017 30.9029 19.8396C30.6468 20.0808 30.3516 19.997 30.3226 19.5821C30.3178 19.5141 30.328 19.1884 30.3327 19.1791ZM30.7122 19.0714C30.7362 19.0254 30.8807 18.8174 30.9097 18.8158C30.9744 18.8115 31.0421 19.1392 31.0477 19.2139C30.9031 19.2287 30.8336 19.1456 30.7122 19.0714ZM31.1436 18.6492C31.2046 18.7034 31.2294 18.8199 31.1275 18.8249C31.0123 18.8304 31.0407 18.7097 31.1436 18.6492ZM30.7269 18.6754C30.8012 18.4164 31.0789 18.6331 30.8285 18.7812C30.7626 18.7509 30.7648 18.7649 30.7269 18.6754ZM31.429 19.0318C31.4306 18.839 31.3969 18.5183 31.2251 18.4523C30.9215 18.3367 30.7339 18.5128 30.5435 18.6403C30.0192 18.9901 30.0814 20.6148 30.9829 19.9799C31.3146 19.7462 31.4256 19.4228 31.429 19.0318Z" fill="#FEFEFE"/>
<path fill-rule="evenodd" clip-rule="evenodd" d="M26.815 20.2745C26.7296 21.176 25.0177 21.3458 25.2164 20.1677C25.2493 19.972 25.5132 19.598 25.6995 19.5039C25.7822 19.4613 25.9643 19.4296 26.0869 19.4353C26.4468 19.4517 26.8627 19.7667 26.815 20.2745ZM25.9398 18.5331C25.9761 18.6508 25.9764 18.6048 26.0433 18.6767C26.0088 18.7519 26.0124 18.7432 25.95 18.8003C26.0408 19.0151 25.9836 18.8199 25.9523 19.0066L26.0565 19.0855C25.977 19.2132 25.8982 19.1579 25.9979 19.309C25.8389 19.3343 25.7683 19.3716 25.6137 19.3582L25.6514 19.0698L25.5562 18.997C25.4907 18.885 25.6182 18.898 25.4371 18.8763C25.4638 18.8199 25.5125 18.7974 25.4731 18.7446C25.3855 18.6274 25.2393 18.9699 25.2446 19.0371C25.2524 19.0424 25.2341 19.0857 25.399 19.0291L25.3872 19.1704L25.5161 19.1854C25.4337 19.5523 25.456 19.3208 25.3194 19.5006C25.3483 19.5862 25.3774 19.5507 25.4402 19.5755C25.3653 19.6274 25.3596 19.6402 25.3279 19.7137C25.2693 19.6709 25.322 19.7283 25.2818 19.6637C25.2702 19.6454 25.2575 19.606 25.2499 19.5874L25.0877 19.6579C25.082 19.4916 25.1022 19.4314 24.915 19.5259C24.9167 19.3991 24.9739 19.353 24.9092 19.2425C24.8138 19.2849 24.8058 19.4406 24.795 19.5421C24.7732 19.7473 24.8365 19.6968 24.983 19.6554C25.0029 19.7596 24.976 19.774 25.0359 19.8684C25.1239 19.848 25.1381 19.8011 25.1889 19.8095C25.2484 20.0104 25.032 20.0266 24.9137 20.1052C24.8894 19.997 24.9051 20.0171 24.8422 19.9586C24.7008 20.0107 24.745 20.0655 24.6519 20.1518L24.5895 19.9622C24.4183 19.9984 24.2911 20.3273 24.5409 20.16L24.6202 20.3473C24.7689 20.2954 24.6969 20.2558 24.8063 20.173L24.8579 20.2306C24.9228 20.2991 24.8201 20.2499 24.936 20.2968C25.0834 20.211 24.9671 20.1735 25.1001 20.1332C25.0009 20.511 25.1937 20.8831 25.5331 21.0551C25.9752 21.2796 27.2585 20.8931 26.8782 19.8778C26.7898 19.6413 26.5465 19.4526 26.3212 19.3746C26.1557 19.3181 26.2117 19.3511 26.1223 19.208L26.1923 19.0894C26.1521 19.0223 26.1559 19.0168 26.0992 18.9883C26.1401 18.9369 26.163 18.9341 26.214 18.875C26.1838 18.776 26.1855 18.8354 26.119 18.7532C26.1875 18.6877 26.1802 18.7334 26.192 18.6358C26.1441 18.5848 26.2027 18.6406 26.1414 18.5984L26.0735 18.5536C26.1072 18.5381 26.0862 18.5552 26.1289 18.5323L26.1966 18.4853C26.1012 18.3913 26.0331 18.4565 25.9398 18.5331Z" fill="#FEFEFE"/>
<path fill-rule="evenodd" clip-rule="evenodd" d="M32.4357 20.3732C32.5633 20.3516 32.5808 20.4037 32.6407 20.3343C32.6253 20.2866 32.6414 20.2786 32.5711 20.2643C32.5272 20.2556 32.4716 20.2706 32.4205 20.2791L32.2909 20.2884C32.3941 20.0642 32.6907 20.0407 32.7586 19.9661C32.7692 19.9417 32.814 19.9989 32.7618 19.9003C32.6793 19.7458 32.2779 20.1257 32.2157 20.1411C32.2555 20.0726 32.2527 19.9513 32.297 19.8523C32.3873 19.65 32.5056 19.7965 32.4192 19.5714C32.2831 19.5892 32.2372 19.723 32.1707 19.8991C32.07 20.1657 32.1124 20.1465 32.0765 20.2758C32.0325 20.4347 31.5373 20.4561 31.1565 20.7069C31.0271 20.7918 30.991 20.8059 31.0312 20.9702C31.1527 20.9587 31.2437 20.8532 31.3801 20.7911C31.5189 20.7276 32.0906 20.485 32.2035 20.5503C32.3349 20.6275 32.3238 20.7429 32.5009 20.757C32.4639 20.5628 32.3365 20.579 32.2636 20.4445L32.4357 20.3732Z" fill="#FEFEFE"/>
<path fill-rule="evenodd" clip-rule="evenodd" d="M27.1134 19.5548C26.9522 19.53 26.8941 19.3638 26.7408 19.3763C26.7673 19.5589 26.9217 19.5491 27.0273 19.6579C27.1129 19.7451 27.1534 19.9788 27.1965 20.1183C27.2852 20.406 27.2771 20.3914 27.1602 20.571C27.0773 20.6987 26.825 20.9752 27.1002 21.0538C27.1445 21.0028 27.2061 20.8047 27.2487 20.7174C27.4072 20.3905 27.3334 20.5485 27.464 20.4324L27.2826 19.7405C27.3371 19.702 27.3974 19.657 27.4697 19.6235C27.6047 19.5602 27.6261 19.6067 27.6191 19.4797C27.4944 19.4376 27.4374 19.5364 27.3 19.5837C27.3173 19.3773 27.5405 19.2971 27.5144 19.1504C27.4242 19.1182 27.4049 19.1708 27.3568 19.2387C27.3113 19.3028 27.2716 19.3566 27.2312 19.4184L27.1395 18.9783C26.9578 19.047 27.1413 19.2935 27.1134 19.5548Z" fill="#FEFEFE"/>
<path fill-rule="evenodd" clip-rule="evenodd" d="M24.8213 20.9948C24.679 21.0467 24.5075 20.9379 24.4081 21.0185C24.456 21.1364 24.5402 21.084 24.78 21.1075C24.7132 21.2409 24.4299 21.3121 24.5354 21.44C24.6134 21.4923 24.693 21.2807 24.9298 21.1817C25.0393 21.2532 25.4545 21.7917 25.9511 21.7031C26.0565 21.6842 26.0696 21.6826 26.0921 21.5989C26.0292 21.5263 26.1069 21.5709 25.9882 21.5449C25.6616 21.4733 25.4171 21.4363 25.102 21.1129C24.9092 20.9147 25.1308 21.0578 24.9868 20.6398C24.9403 20.5043 24.938 20.484 24.8131 20.4923C24.8284 20.6025 24.8338 20.5828 24.8733 20.6776C24.9315 20.8166 24.9037 20.7647 24.9008 20.81L24.8908 20.8564C24.8849 20.8528 24.8753 20.8402 24.8743 20.8446C24.8613 20.897 24.7048 20.5587 24.5922 20.5387C24.5243 20.6646 24.7055 20.7494 24.8213 20.9948Z" fill="#FEFEFE"/>
<path fill-rule="evenodd" clip-rule="evenodd" d="M27.7391 24.3346L27.6366 24.387C27.6127 24.3642 27.6384 24.4028 27.5952 24.3435L27.5377 24.2334C27.5123 24.1764 27.494 24.1368 27.4858 24.0843C27.5571 24.0951 27.6964 24.2399 27.7391 24.3346ZM26.9742 24.9839C27.1119 24.9655 27.1102 24.8783 27.3209 24.7587C27.5578 24.6241 27.4579 24.5879 27.9051 24.389C27.8563 24.2499 27.5877 23.9991 27.4935 23.9468C27.3497 23.9978 26.8719 24.7925 26.9742 24.9839Z" fill="#FEFEFE"/>
<path fill-rule="evenodd" clip-rule="evenodd" d="M29.8015 19.5617C29.7869 19.4208 29.7668 19.4499 29.7568 19.4367C29.6884 19.4795 29.7127 19.4794 29.6609 19.5379C29.6616 19.6317 29.628 19.6939 29.5935 19.7697C29.4227 19.6543 29.5183 19.34 29.3097 19.3636L29.4443 19.8454C29.1625 19.8293 29.0704 19.6374 28.9476 19.6475C28.976 19.855 29.2725 19.873 29.3792 19.9686C29.2999 20.0557 29.1058 20.0765 29.1734 20.1943C29.1798 20.1966 29.1891 20.1921 29.1941 20.1991L29.2579 20.2035C29.3805 20.1841 29.3398 20.1154 29.5247 20.0642C29.6528 20.2886 29.8145 20.4969 29.9704 20.6623C30.0537 20.6407 30.0608 20.6423 30.1089 20.5817C30.0635 20.5142 29.92 20.432 29.7204 20.1588C29.5349 19.9044 29.7869 19.7667 29.8015 19.5617Z" fill="#FEFEFE"/>
<path fill-rule="evenodd" clip-rule="evenodd" d="M28.6296 23.471C28.6426 23.4877 28.6567 23.446 28.6546 23.513C28.6503 23.6454 28.6642 23.5232 28.6224 23.5873C28.5831 23.5137 28.5515 23.5137 28.6296 23.471ZM28.2185 23.6254C28.2641 23.7364 28.5422 23.9145 28.6183 23.937C28.7459 23.769 28.8513 23.6101 29.0109 23.4433C29.0722 23.3794 29.1221 23.3536 29.1683 23.2863L29.091 23.1183C28.7911 23.1733 28.3606 23.5437 28.2185 23.6254Z" fill="#FEFEFE"/>
<path fill-rule="evenodd" clip-rule="evenodd" d="M31.1325 23.6513C31.1946 23.6003 31.1996 23.6111 31.216 23.6718C31.1561 23.6736 31.1727 23.6736 31.1325 23.6513ZM31.0736 24.4495C31.1729 24.4127 31.1544 24.377 31.1888 24.264C31.2169 24.1723 31.234 24.1468 31.2741 24.059C31.3012 24.0007 31.4632 23.6661 31.4664 23.6363C31.4163 23.5797 31.2676 23.5245 31.171 23.5132C30.8411 23.4734 30.8616 24.3109 31.0736 24.4495Z" fill="#FEFEFE"/>
<path fill-rule="evenodd" clip-rule="evenodd" d="M30.118 24.1054C30.1203 24.005 30.1178 24.0173 30.187 23.9495C30.1893 24.0795 30.2064 24.0558 30.118 24.1054ZM30.4838 24.0818C30.4322 23.9773 30.4484 24.0421 30.4 23.9529C30.3069 23.782 30.3678 23.6434 30.0592 23.7943C29.7917 23.9249 29.4459 24.8881 29.9622 24.4067C30.163 24.2197 30.1945 24.1976 30.4838 24.0818Z" fill="#FEFEFE"/>
<path fill-rule="evenodd" clip-rule="evenodd" d="M30.409 22.2375C30.3727 22.5029 30.827 23.3707 30.9912 23.5145C31.2968 23.3193 30.927 23.2793 30.6704 22.5343C30.6325 22.4246 30.6118 22.2823 30.5627 22.2032C30.5353 22.2036 30.5208 22.2004 30.4921 22.2068L30.409 22.2375Z" fill="#FEFEFE"/>
<path fill-rule="evenodd" clip-rule="evenodd" d="M30.0681 23.6656C30.3754 23.5744 30.0837 23.4835 29.9591 22.9699C29.9325 22.8598 29.8546 22.6335 29.8469 22.547C29.8364 22.4248 29.9976 22.206 29.7772 22.2623C29.6955 22.283 29.6957 22.3206 29.6714 22.4016C29.653 22.4619 29.6393 22.5086 29.6405 22.5748C29.6443 22.7578 29.9881 23.5278 30.0681 23.6656Z" fill="#FEFEFE"/>
<path fill-rule="evenodd" clip-rule="evenodd" d="M30.4617 19.2826C30.5192 19.1915 30.5269 19.2521 30.5414 19.1406L30.3327 19.179C30.328 19.1884 30.3178 19.5141 30.3226 19.5821C30.3516 19.997 30.6468 20.0808 30.9029 19.8396C31.0492 19.7016 30.8616 19.7924 31.1484 19.5602C31.1082 19.4556 31.0721 19.4433 30.9797 19.4066C30.9338 19.4897 30.9857 19.5602 30.8316 19.7478C30.7324 19.8686 30.6523 19.9014 30.4919 19.8525C30.4208 19.705 30.3773 19.4166 30.4617 19.2826Z" fill="#FEFEFE"/>
<path fill-rule="evenodd" clip-rule="evenodd" d="M26.6879 20.0172C26.6884 20.0082 26.6977 20.0079 26.7011 20.0025C26.6645 19.9706 26.5564 19.9076 26.5115 19.9062C26.3078 19.8987 26.7619 20.0945 26.3668 20.4137C26.2769 20.4866 26.0671 20.587 25.9398 20.6065C25.7341 20.6382 25.6907 20.5574 25.6337 20.5164C25.5692 20.47 25.63 20.4802 25.5298 20.47C25.5175 20.7078 25.5356 20.6423 25.6487 20.6546C25.8916 20.6808 25.8414 20.7704 26.2277 20.6052C26.6226 20.4361 26.5847 20.3782 26.6126 20.1609C26.6277 20.0449 26.6864 20.0339 26.6879 20.0172Z" fill="#FEFEFE"/>
<path fill-rule="evenodd" clip-rule="evenodd" d="M26.905 21.1403C26.8368 21.3774 26.7 21.7213 26.6791 21.951C26.7115 21.8911 26.7218 21.8438 26.7449 21.78C26.8019 21.6248 26.8175 21.3906 26.9817 21.326C27.0194 21.4232 27.008 21.4787 27.0271 21.5383C27.0574 21.6319 27.0746 21.5588 27.1107 21.7031C27.1903 21.6212 27.2115 21.7188 27.2826 21.7081L26.905 21.1403Z" fill="#FEFEFE"/>
<path fill-rule="evenodd" clip-rule="evenodd" d="M30.7122 19.0714C30.8336 19.1456 30.9031 19.2287 31.0477 19.2139C31.0421 19.1392 30.9744 18.8115 30.9097 18.8158C30.8807 18.8173 30.7362 19.0254 30.7122 19.0714Z" fill="#FEFEFE"/>
<path fill-rule="evenodd" clip-rule="evenodd" d="M25.9498 20.2371C25.8794 20.2331 25.9427 20.2544 25.9069 20.1948C25.9575 20.1481 25.9221 20.1343 26.0133 20.1993C26.0106 20.2023 26.0249 20.2416 25.9498 20.2371ZM25.8514 20.3762L26.1323 20.2816C26.1745 20.2583 26.1587 20.2669 26.1805 20.2444C26.1005 20.1443 25.9273 20.038 25.8072 20.02C25.8127 20.1247 25.8074 20.2938 25.8514 20.3762Z" fill="#FEFEFE"/>
<path fill-rule="evenodd" clip-rule="evenodd" d="M26.7722 22.8628C26.8719 22.8129 26.8031 22.8072 26.8157 22.6784C26.8318 22.5136 26.945 22.2833 26.9575 21.9418L26.7944 22.5088C26.5862 22.5675 26.766 22.5156 26.6465 22.4981C26.6464 22.5979 26.7296 22.7573 26.7722 22.8628Z" fill="#FEFEFE"/>
<path fill-rule="evenodd" clip-rule="evenodd" d="M25.8356 19.7105C25.8437 19.8229 25.876 19.9386 25.9925 19.9314C26.15 19.9221 26.1289 19.8104 26.0892 19.6882L26.0061 19.6292C25.9382 19.6472 25.881 19.679 25.8356 19.7105Z" fill="#FEFEFE"/>
<path fill-rule="evenodd" clip-rule="evenodd" d="M25.7081 20.1017C25.7495 19.9572 25.7243 19.9099 25.6028 19.8421C25.5014 19.8661 25.4325 19.9103 25.4537 20.0237C25.4796 20.1643 25.5858 20.1365 25.7081 20.1017Z" fill="#FEFEFE"/>
<path fill-rule="evenodd" clip-rule="evenodd" d="M30.6924 21.8843C30.5841 21.8956 30.6473 21.9061 30.6061 21.8645C30.5489 21.8065 30.6054 21.808 30.6082 21.8025C30.5308 21.8265 30.5208 21.8686 30.4738 21.8881C30.39 21.9236 30.3854 21.8681 30.3205 21.9278C30.4456 21.9885 30.6795 21.9841 30.8575 22.0772C30.8931 22.0338 30.8682 22.0679 30.8938 22.0131C30.9142 21.9701 30.8948 21.9994 30.9149 21.9651C30.9392 21.9236 30.9568 21.91 30.9785 21.8726C30.8516 21.9154 30.875 21.9603 30.7128 21.9942C30.6354 21.9105 30.6799 21.9103 30.6924 21.8843Z" fill="#FEFEFE"/>
<path fill-rule="evenodd" clip-rule="evenodd" d="M30.6282 20.9962C30.6362 20.9985 30.6461 20.9921 30.6518 21.0012C30.6701 21.0303 30.6716 20.9893 30.7515 21.0353C30.8363 21.0843 30.7923 21.0499 30.8378 21.1325C30.8014 21.1608 30.7712 21.2036 30.7299 21.2299C30.8241 21.2087 30.81 21.1946 30.8875 21.2372C30.8457 21.364 30.7515 21.4033 30.6674 21.4846C30.7966 21.4243 30.8042 21.3428 30.9521 21.3608L30.822 20.878C30.7953 20.8779 30.8084 20.8607 30.7642 20.8817L30.6282 20.9962Z" fill="#FEFEFE"/>
<path fill-rule="evenodd" clip-rule="evenodd" d="M29.7447 21.247C29.6888 21.391 29.581 21.5356 29.5067 21.6744C29.5476 21.6562 29.5801 21.6439 29.6026 21.6101C29.6416 21.5511 29.5733 21.6076 29.6498 21.5119C29.6927 21.4582 29.7502 21.424 29.8133 21.3605C29.9164 21.2561 30.0394 21.1491 30.1376 21.0528C29.8326 21.2395 29.9529 21.2689 29.7447 21.247Z" fill="#FEFEFE"/>
<path fill-rule="evenodd" clip-rule="evenodd" d="M29.7109 21.5727C29.7336 21.5948 29.7445 21.6071 29.7774 21.6303L30.4241 21.0495C30.154 21.2217 29.8796 21.4678 29.7109 21.5727Z" fill="#FEFEFE"/>
<path fill-rule="evenodd" clip-rule="evenodd" d="M30.6043 20.5842C30.6601 20.6618 30.7196 20.6632 30.5853 20.7616C30.5405 20.7936 30.52 20.8075 30.4781 20.8427C30.403 20.9054 30.3634 20.9475 30.3062 21.0083L30.7619 20.729L30.6563 20.4991C30.6511 20.506 30.6455 20.5085 30.6452 20.5169C30.645 20.5255 30.6377 20.5303 30.6359 20.5335C30.6073 20.5815 30.655 20.5348 30.6043 20.5842Z" fill="#FEFEFE"/>
<path fill-rule="evenodd" clip-rule="evenodd" d="M31.6238 18.4163C31.6123 18.4184 31.6072 18.418 31.6311 18.432C31.6336 18.4338 31.6433 18.4387 31.646 18.4403C31.6497 18.4425 31.6603 18.4457 31.6671 18.4482C31.6226 18.2429 31.6744 18.1569 31.6833 17.9925C31.5722 17.9944 31.5425 18.0588 31.5166 18.1234C31.5749 18.2166 31.6047 18.2844 31.6238 18.4163Z" fill="#FEFEFE"/>
<path fill-rule="evenodd" clip-rule="evenodd" d="M31.1549 21.9655C31.1152 21.9953 31.1 22.0061 31.0562 22.0366L30.9646 22.1244C31.0811 22.1485 31.1629 22.2129 31.2707 22.2289L31.1549 21.9655Z" fill="#FEFEFE"/>
<path fill-rule="evenodd" clip-rule="evenodd" d="M32.0461 17.8729C32.0783 17.9912 32.0561 18.0515 32.1177 18.1226C32.1776 18.0326 32.2545 17.938 32.1546 17.7739C32.0968 17.7929 32.0747 17.8371 32.0461 17.8729Z" fill="#FEFEFE"/>
<path fill-rule="evenodd" clip-rule="evenodd" d="M30.7269 18.6754C30.7648 18.7648 30.7626 18.7509 30.8285 18.7812C31.0789 18.6331 30.8012 18.4163 30.7269 18.6754Z" fill="#FEFEFE"/>
<path fill-rule="evenodd" clip-rule="evenodd" d="M27.6366 24.387L27.7391 24.3346C27.6964 24.2399 27.5571 24.0951 27.4858 24.0843C27.494 24.1368 27.5123 24.1764 27.5377 24.2334L27.5952 24.3435C27.6384 24.4028 27.6127 24.3642 27.6366 24.387Z" fill="#FEFEFE"/>
<path fill-rule="evenodd" clip-rule="evenodd" d="M29.6124 19.0457C29.6682 18.997 29.6312 19.0459 29.6651 18.9921C29.7055 18.9283 29.7811 18.6931 29.63 18.6023C29.5798 18.7901 29.6421 18.7125 29.6508 18.834C29.6576 18.9287 29.5823 18.918 29.6124 19.0457Z" fill="#FEFEFE"/>
<path fill-rule="evenodd" clip-rule="evenodd" d="M26.5119 22.2054C26.5227 22.0709 26.6153 21.838 26.6272 21.6687L26.5819 21.7352C26.464 21.958 26.4411 22.0338 26.5119 22.2054Z" fill="#FEFEFE"/>
<path fill-rule="evenodd" clip-rule="evenodd" d="M29.8269 18.854C29.8741 18.7785 29.9629 18.5146 29.8946 18.4263C29.8155 18.5326 29.7992 18.6849 29.8269 18.854Z" fill="#FEFEFE"/>
<path fill-rule="evenodd" clip-rule="evenodd" d="M30.1859 18.9419C30.2685 18.857 30.3026 18.7693 30.358 18.671C30.3546 18.666 30.3471 18.6537 30.3466 18.6574L30.2915 18.5789C30.2492 18.5221 30.2787 18.5566 30.2479 18.5281C30.2624 18.7013 30.2145 18.8033 30.1859 18.9419Z" fill="#FEFEFE"/>
<path fill-rule="evenodd" clip-rule="evenodd" d="M31.0028 21.6649L31.0121 21.7199C31.0314 21.768 30.9973 21.7397 31.0555 21.745C31.0941 21.6556 31.0025 21.498 30.9726 21.3988C30.8732 21.4603 30.937 21.4147 30.8332 21.5297L30.9596 21.5063L30.9814 21.6073C31.0005 21.6826 30.9779 21.5836 30.996 21.6458C30.9978 21.6521 31.001 21.6592 31.0028 21.6649Z" fill="#FEFEFE"/>
<path fill-rule="evenodd" clip-rule="evenodd" d="M26.7826 20.9864C26.6654 21.0601 26.7526 21.0417 26.6418 21.2732C26.5905 21.3813 26.5694 21.4245 26.5345 21.5515C26.6695 21.369 26.6157 21.0524 26.884 21.1311L26.7826 20.9864Z" fill="#FEFEFE"/>
<path fill-rule="evenodd" clip-rule="evenodd" d="M31.1436 18.6492C31.0407 18.7097 31.0123 18.8304 31.1275 18.8249C31.2294 18.8199 31.2046 18.7034 31.1436 18.6492Z" fill="#FEFEFE"/>
<path fill-rule="evenodd" clip-rule="evenodd" d="M29.9974 18.9496C30.0887 18.8447 30.0537 18.7689 30.0287 18.6073C29.9833 18.7084 29.9636 18.8055 29.9974 18.9496Z" fill="#FEFEFE"/>
<path fill-rule="evenodd" clip-rule="evenodd" d="M27.4808 23.6951L27.6175 23.629L27.5618 23.4709C27.5033 23.5328 27.5319 23.4807 27.5016 23.5717C27.4869 23.6168 27.48 23.6456 27.4808 23.6951Z" fill="#FEFEFE"/>
<path fill-rule="evenodd" clip-rule="evenodd" d="M29.5228 19.0924L29.4911 18.7623C29.4316 18.872 29.4339 18.9824 29.5228 19.0924Z" fill="#FEFEFE"/>
<path fill-rule="evenodd" clip-rule="evenodd" d="M32.4357 20.3732C32.4652 20.3849 32.5079 20.3969 32.5545 20.3972C32.7114 20.3981 32.6378 20.3669 32.6482 20.3476C32.722 20.2238 32.4657 20.2178 32.4205 20.2791C32.4716 20.2706 32.5272 20.2556 32.5711 20.2643C32.6414 20.2786 32.6253 20.2866 32.6408 20.3343C32.5808 20.4037 32.5633 20.3516 32.4357 20.3732Z" fill="#FEFEFE"/>
<path fill-rule="evenodd" clip-rule="evenodd" d="M26.1464 21.4047L26.2139 21.5065L26.2697 21.3016C26.2127 21.335 26.1838 21.3662 26.1464 21.4047Z" fill="#FEFEFE"/>
<path fill-rule="evenodd" clip-rule="evenodd" d="M26.9764 22.5994L27.0957 22.4456L27.0359 22.3529L26.9764 22.5994Z" fill="#FEFEFE"/>
<path fill-rule="evenodd" clip-rule="evenodd" d="M26.3614 21.8057C26.3834 21.6867 26.4143 21.5889 26.4278 21.4923L26.3546 21.6494C26.3174 21.7402 26.2976 21.7309 26.3614 21.8057Z" fill="#FEFEFE"/>
<path fill-rule="evenodd" clip-rule="evenodd" d="M29.3147 22.0158L29.5082 21.8233C29.3508 21.8672 29.3551 21.885 29.3147 22.0158Z" fill="#FEFEFE"/>
<path fill-rule="evenodd" clip-rule="evenodd" d="M29.6609 19.5379C29.7127 19.4794 29.6884 19.4794 29.7568 19.4367C29.7668 19.4499 29.7869 19.4208 29.8015 19.5617C29.8571 19.4651 29.8183 19.4464 29.7495 19.3998C29.6697 19.4381 29.687 19.4389 29.6609 19.5379Z" fill="#FEFEFE"/>
<path fill-rule="evenodd" clip-rule="evenodd" d="M27.1928 22.2893C27.2771 22.2222 27.2907 22.1704 27.2653 22.0488L27.1928 22.2893Z" fill="#FEFEFE"/>
<path fill-rule="evenodd" clip-rule="evenodd" d="M30.118 24.1062C30.207 24.0563 30.1898 24.0801 30.1875 23.9495C30.1178 24.0176 30.1203 24.0053 30.118 24.1062Z" fill="#FEFEFE"/>
<path fill-rule="evenodd" clip-rule="evenodd" d="M25.9069 20.195C25.9429 20.2549 25.8791 20.2335 25.9501 20.2375C26.0257 20.2421 26.0113 20.2025 26.014 20.1996C25.9221 20.1342 25.9578 20.1481 25.9069 20.195Z" fill="#FEFEFE"/>
<path fill-rule="evenodd" clip-rule="evenodd" d="M28.63 23.4711C28.5513 23.5139 28.5831 23.5139 28.6226 23.5879C28.6648 23.5235 28.6508 23.6463 28.6551 23.5132C28.6572 23.4459 28.643 23.4878 28.63 23.4711Z" fill="#FEFEFE"/>
<path fill-rule="evenodd" clip-rule="evenodd" d="M32.0654 18.7407C32.1221 18.6908 32.102 18.7338 32.1292 18.6714C32.1487 18.6257 32.131 18.6441 32.132 18.5996C32.054 18.6604 32.0777 18.6115 32.0654 18.7407Z" fill="#FEFEFE"/>
<path fill-rule="evenodd" clip-rule="evenodd" d="M31.8464 19.2774C31.9314 19.1292 31.8931 19.3733 31.9205 19.1624C31.821 19.2091 31.8208 19.1599 31.8464 19.2774Z" fill="#FEFEFE"/>
<path fill-rule="evenodd" clip-rule="evenodd" d="M29.8574 19.1104C29.8949 19.071 29.8946 19.139 29.9104 19.0667C29.9245 19.0026 29.8795 19.0111 29.8788 19.0106C29.8459 19.0653 29.8551 19.0317 29.8574 19.1104Z" fill="#FEFEFE"/>
<path fill-rule="evenodd" clip-rule="evenodd" d="M31.1325 23.6515C31.173 23.6739 31.1562 23.6739 31.2166 23.6721C31.2001 23.6111 31.1951 23.6002 31.1325 23.6515Z" fill="#FEFEFE"/>
<path fill-rule="evenodd" clip-rule="evenodd" d="M26.3697 21.2712C26.4097 21.2481 26.4022 21.3039 26.4149 21.2047C26.3436 21.2346 26.34 21.1964 26.3697 21.2712Z" fill="#FEFEFE"/>
<path fill-rule="evenodd" clip-rule="evenodd" d="M31.501 18.3538C31.5372 18.2842 31.5237 18.3428 31.5074 18.2584C31.4846 18.3076 31.4748 18.3058 31.501 18.3538Z" fill="#FEFEFE"/>
<path fill-rule="evenodd" clip-rule="evenodd" d="M32.2295 18.4665C32.2192 18.5067 32.1859 18.4301 32.229 18.5488C32.229 18.5485 32.2439 18.5147 32.2443 18.5085C32.248 18.4637 32.232 18.4712 32.2295 18.4665Z" fill="#FEFEFE"/>
<path fill-rule="evenodd" clip-rule="evenodd" d="M29.6488 21.9321C29.6154 21.9447 29.6477 21.9192 29.5973 21.9567C29.5695 21.9776 29.5777 21.9805 29.5695 22.0089L29.6488 21.9321Z" fill="#FEFEFE"/>
<path d="M66.5975 52.4553C66.6132 52.4817 66.6214 52.5104 66.6214 52.5406C66.6214 52.6073 66.593 52.656 66.5355 52.6892C66.5087 52.7028 66.4806 52.7102 66.4504 52.7102C66.3836 52.7102 66.3348 52.6817 66.3019 52.6237C66.2883 52.5992 66.281 52.5715 66.281 52.5406C66.281 52.4744 66.3094 52.4257 66.3668 52.3926C66.3916 52.3772 66.419 52.3688 66.4504 52.3688C66.516 52.3688 66.5644 52.3974 66.5975 52.4553ZM66.1941 52.1662C66.2188 52.211 66.2315 52.2605 66.2315 52.3137C66.2315 52.4282 66.1823 52.5147 66.0824 52.5734C66.0376 52.5982 65.9883 52.6112 65.9352 52.6112C65.8208 52.6112 65.7356 52.5607 65.6789 52.4607C65.6525 52.4166 65.639 52.3674 65.639 52.3137C65.639 52.1995 65.689 52.1129 65.7887 52.054C65.8344 52.0294 65.8837 52.0167 65.9352 52.0167C66.0515 52.0167 66.1373 52.0663 66.1941 52.1662ZM65.6378 51.7812C65.6378 52.1774 65.4977 52.5156 65.2177 52.7966C64.9386 53.0762 64.6011 53.2163 64.2067 53.2163C63.8507 53.2163 63.5398 53.101 63.2735 52.8697C62.9749 53.0311 62.6577 53.1119 62.3216 53.1119C62.0903 53.1119 61.8644 53.0712 61.644 52.9908C61.0849 52.7901 60.6921 52.4129 60.4671 51.8598C60.4444 51.8598 60.4344 51.8598 60.4378 51.8598C60.0436 51.8598 59.7061 51.7194 59.426 51.4388C59.1468 51.1586 59.0069 50.8207 59.0069 50.4244C59.0069 50.029 59.1468 49.6906 59.426 49.41C59.7061 49.1302 60.0436 48.9901 60.4378 48.9901C60.7941 48.9901 61.1049 49.1066 61.3712 49.3383C61.6696 49.1783 61.9861 49.0971 62.3216 49.0971C62.5544 49.0971 62.7795 49.1369 62.9979 49.2157C63.5588 49.4176 63.9512 49.7951 64.1767 50.3493C64.2003 50.3477 64.2103 50.3466 64.2067 50.3466C64.6011 50.3466 64.9386 50.487 65.2177 50.7676C65.4977 51.0473 65.6378 51.386 65.6378 51.7812ZM59.3037 49.2595C59.3037 49.3413 59.2741 49.4121 59.2168 49.4701C59.1588 49.5277 59.0893 49.5568 59.0069 49.5568C58.9256 49.5568 58.8551 49.5277 58.7974 49.4701C58.7399 49.4121 58.7104 49.3413 58.7104 49.2595C58.7104 49.177 58.7399 49.1077 58.7974 49.0499C58.8551 48.9921 58.9256 48.9626 59.0069 48.9626C59.0893 48.9626 59.1588 48.9921 59.2168 49.0499C59.2741 49.1077 59.3037 49.177 59.3037 49.2595ZM58.727 48.9305C58.727 49.0434 58.6713 49.1 58.5585 49.1C58.4443 49.1 58.3864 49.0434 58.3864 48.9305C58.3864 48.816 58.4443 48.7589 58.5585 48.7589C58.6713 48.7589 58.727 48.816 58.727 48.9305ZM65.0347 51.7812C65.0347 51.5517 64.9534 51.3567 64.7907 51.1959C64.6605 51.0628 64.5032 50.9841 64.3193 50.9595C64.3386 51.2406 64.3009 51.5141 64.2048 51.7812C64.1088 52.0481 63.9642 52.2835 63.7694 52.4871C63.9029 52.5697 64.0493 52.6112 64.2058 52.6112C64.4355 52.6112 64.6306 52.5304 64.7922 52.3679C64.9544 52.2055 65.0347 52.0101 65.0347 51.7812ZM60.8745 49.7193C60.741 49.6367 60.5954 49.5952 60.4378 49.5952C60.2094 49.5952 60.0144 49.6763 59.8532 49.8386C59.6915 50.0009 59.6109 50.1963 59.6109 50.4255C59.6109 50.6538 59.6921 50.8498 59.8543 51.0132C59.9851 51.1436 60.1415 51.2214 60.3255 51.2472C60.3061 50.9658 60.3436 50.6911 60.439 50.4255C60.535 50.1583 60.6797 49.923 60.8745 49.7193Z" fill="#FEFEFE"/>
<path d="M90.7427 10.539H87.5425V24.2022H90.7427V10.539ZM102.596 18.4401C102.596 16.0835 101.864 14.2614 99.0397 14.2614C97.6372 14.2614 96.7481 14.9746 96.2148 15.8457H96.1752L96.1952 14.44H93.0344V24.2022H96.1952V19.3705C96.1952 17.9646 96.5703 16.8557 97.9335 16.8557C99.2372 16.8557 99.4348 17.8263 99.4348 19.1131V24.2022H102.596V18.4401ZM112.058 21.1924C112.058 20.1628 111.584 19.5289 111.268 19.2121C110.932 18.8956 110.438 18.6379 110.003 18.4797C109.588 18.3208 109.292 18.2223 108.621 18.0243C107.949 17.8263 107.198 17.5882 107.198 17.0733C107.198 16.5585 107.613 16.3606 108.364 16.3606C109.154 16.3606 110.26 16.8756 110.813 17.3114L111.84 15.4499C111.287 14.9945 110.142 14.2421 108.107 14.2421C106.072 14.2421 104.413 15.4103 104.413 17.3114C104.413 19.0539 105.618 19.6678 106.072 19.8655C106.526 20.0633 107.08 20.2219 107.455 20.3212C107.811 20.4398 109.233 20.7566 109.233 21.3903C109.233 22.0243 108.68 22.2221 107.889 22.2221C107.099 22.2221 105.796 21.7073 105.006 21.0341L103.82 22.9152C104.926 23.9646 106.467 24.4203 107.929 24.4203C109.233 24.4203 110.201 24.123 110.912 23.5686C111.623 22.9943 112.058 22.2021 112.058 21.1924ZM119.347 14.4594H117.194V11.806H114.014V14.4594H112.631V16.8557H114.014V20.6378C114.014 22.1231 114.211 22.9349 114.705 23.5091C115.199 24.0834 115.949 24.4203 117.075 24.4203C118.221 24.4203 119.09 24.1629 119.327 24.1032L119.169 21.6279C119.169 21.6279 118.715 21.8063 118.221 21.8063C117.806 21.8063 117.609 21.727 117.47 21.5684C117.312 21.3903 117.194 21.1924 117.194 20.3605V16.8557H119.347V14.4594ZM124.029 11.6677C124.029 10.6974 123.298 10.0242 122.231 10.0242C121.165 10.0242 120.434 10.6974 120.434 11.6677C120.434 12.6577 121.165 13.3111 122.231 13.3111C123.298 13.3111 124.029 12.6577 124.029 11.6677ZM123.812 14.44H120.651V24.2022H123.812V14.44ZM131.753 14.4594H129.6V11.806H126.419V14.4594H125.037V16.8557H126.419V20.6378C126.419 22.1231 126.617 22.9349 127.111 23.5091C127.605 24.0834 128.355 24.4203 129.481 24.4203C130.627 24.4203 131.496 24.1629 131.733 24.1032L131.575 21.6279C131.575 21.6279 131.121 21.8063 130.627 21.8063C130.212 21.8063 130.014 21.727 129.876 21.5684C129.718 21.3903 129.6 21.1924 129.6 20.3605V16.8557H131.753V14.4594ZM142.361 14.44H139.2V19.628C139.2 20.915 138.687 21.8063 137.561 21.8063C136.435 21.8063 136.118 21.0341 136.118 19.9054V14.44H132.958V20.3407C132.958 21.7466 133.195 22.5983 133.669 23.2716C134.163 23.9252 135.052 24.4203 136.454 24.4203C137.857 24.4203 138.884 23.6871 139.299 23.0933L139.319 24.2022H142.361V14.44ZM150.263 14.4594H148.11V11.806H144.929V14.4594H143.546V16.8557H144.929V20.6378C144.929 22.1231 145.127 22.9349 145.62 23.5091C146.114 24.0834 146.865 24.4203 147.991 24.4203C149.136 24.4203 150.006 24.1629 150.243 24.1032L150.085 21.6279C150.085 21.6279 149.631 21.8063 149.136 21.8063C148.722 21.8063 148.524 21.727 148.386 21.5684C148.228 21.3903 148.11 21.1924 148.11 20.3605V16.8557H150.263V14.4594ZM161.562 19.3509C161.562 16.2023 159.251 14.2614 156.169 14.2614C153.088 14.2614 150.756 16.2023 150.756 19.3509C150.756 22.4993 153.088 24.4203 156.169 24.4203C159.251 24.4203 161.562 22.4993 161.562 19.3509ZM158.382 19.2911C158.382 20.737 157.552 21.8261 156.169 21.8261C154.767 21.8261 153.957 20.737 153.957 19.2911C153.957 17.8456 154.767 16.7568 156.169 16.7568C157.552 16.7568 158.382 17.8456 158.382 19.2911ZM176.2 21.6082H170.373V18.4401H175.706V15.8853H170.373V13.0935H176.022V10.539H167.192V24.2022H176.2V21.6082ZM188.053 10.539H184.892V15.6279C184.576 15.1529 183.588 14.2614 181.81 14.2614C178.986 14.2614 177.208 16.4595 177.208 19.3309C177.208 22.2021 178.986 24.4203 181.81 24.4203C183.114 24.4203 184.28 23.9252 185.01 22.9349L185.07 22.9152L185.05 24.2022H188.053V10.539ZM184.991 19.2911C184.991 20.7964 184.082 21.8261 182.719 21.8261C181.356 21.8261 180.428 20.7964 180.428 19.2911C180.428 17.7862 181.356 16.7568 182.719 16.7568C184.082 16.7568 184.991 17.7862 184.991 19.2911ZM199.569 14.44H196.409V19.628C196.409 20.915 195.895 21.8063 194.769 21.8063C193.643 21.8063 193.327 21.0341 193.327 19.9054V14.44H190.167V20.3407C190.167 21.7466 190.403 22.5983 190.878 23.2716C191.372 23.9252 192.261 24.4203 193.663 24.4203C195.065 24.4203 196.093 23.6871 196.508 23.0933L196.527 24.2022H199.569V14.44ZM209.19 20.8556C209.19 20.8556 208.202 21.8063 206.721 21.8063C205.239 21.8063 204.271 20.836 204.271 19.2911C204.271 17.7466 205.338 16.8159 206.681 16.8159C208.044 16.8159 208.913 17.4696 209.19 17.6872L209.881 15.291C209.881 15.291 208.755 14.2614 206.266 14.2614C203.6 14.2614 201.091 16.0835 201.091 19.3509C201.091 22.5983 203.56 24.4203 206.227 24.4203C208.815 24.4203 209.842 23.331 209.941 23.2519L209.19 20.8556ZM219.917 18.6975C219.917 17.0538 219.502 16.1033 218.751 15.3901C217.98 14.6774 216.934 14.2614 215.116 14.2614C213.299 14.2614 211.778 14.836 210.948 15.2519L211.778 17.3114C212.271 16.9946 213.516 16.4399 214.76 16.4399C216.025 16.4399 216.756 16.9744 216.756 18.0043V18.2223L214.306 18.3208C212.509 18.4003 210.513 19.1327 210.513 21.311C210.513 23.4896 212.331 24.4203 214.049 24.4203C215.63 24.4203 216.42 23.5884 216.835 23.1726L216.894 24.2022H219.917V18.6975ZM216.776 21.5092C216.578 21.8456 216.005 22.4003 215.156 22.4003C214.286 22.4003 213.674 21.9446 213.674 21.1924C213.674 20.4596 214.247 20.0438 215.215 20.0042L216.776 19.9054V21.5092ZM229.399 20.8556C229.399 20.8556 228.411 21.8063 226.929 21.8063C225.448 21.8063 224.48 20.836 224.48 19.2911C224.48 17.7466 225.546 16.8159 226.89 16.8159C228.253 16.8159 229.122 17.4696 229.399 17.6872L230.09 15.291C230.09 15.291 228.964 14.2614 226.475 14.2614C223.808 14.2614 221.299 16.0835 221.299 19.3509C221.299 22.5983 223.769 24.4203 226.435 24.4203C229.023 24.4203 230.051 23.331 230.149 23.2519L229.399 20.8556ZM234.811 11.6677C234.811 10.6974 234.08 10.0242 233.014 10.0242C231.947 10.0242 231.216 10.6974 231.216 11.6677C231.216 12.6577 231.947 13.3111 233.014 13.3111C234.08 13.3111 234.811 12.6577 234.811 11.6677ZM234.594 14.44H231.433V24.2022H234.594V14.44ZM246.96 19.3509C246.96 16.2023 244.649 14.2614 241.567 14.2614C238.486 14.2614 236.155 16.2023 236.155 19.3509C236.155 22.4993 238.486 24.4203 241.567 24.4203C244.649 24.4203 246.96 22.4993 246.96 19.3509ZM243.78 19.2911C243.78 20.737 242.95 21.8261 241.567 21.8261C240.165 21.8261 239.355 20.737 239.355 19.2911C239.355 17.8456 240.165 16.7568 241.567 16.7568C242.95 16.7568 243.78 17.8456 243.78 19.2911ZM258.062 18.4401C258.062 16.0835 257.331 14.2614 254.507 14.2614C253.104 14.2614 252.215 14.9746 251.682 15.8457H251.642L251.662 14.44H248.501V24.2022H251.662V19.3705C251.662 17.9646 252.037 16.8557 253.4 16.8557C254.704 16.8557 254.901 17.8263 254.901 19.1131V24.2022H258.062V18.4401ZM268.829 18.6975C268.829 17.0538 268.413 16.1033 267.663 15.3901C266.892 14.6774 265.845 14.2614 264.028 14.2614C262.211 14.2614 260.689 14.836 259.86 15.2519L260.689 17.3114C261.183 16.9946 262.428 16.4399 263.672 16.4399C264.937 16.4399 265.667 16.9744 265.667 18.0043V18.2223L263.218 18.3208C261.421 18.4003 259.425 19.1327 259.425 21.311C259.425 23.4896 261.243 24.4203 262.961 24.4203C264.542 24.4203 265.332 23.5884 265.746 23.1726L265.806 24.2022H268.829V18.6975ZM265.687 21.5092C265.49 21.8456 264.917 22.4003 264.067 22.4003C263.198 22.4003 262.586 21.9446 262.586 21.1924C262.586 20.4596 263.159 20.0438 264.127 20.0042L265.687 19.9054V21.5092ZM274.024 10.539H270.863V24.2022H274.024V10.539Z" fill="#FEFEFE"/>
<path d="M87.09 43.4434C87.09 47.4523 89.9912 49.2596 92.84 49.2596C95.715 49.2596 98.6421 47.5044 98.6421 43.4434V30.344H90.4876V33.252H95.2706V43.391C95.2706 45.4084 94.1469 46.1682 92.8922 46.1682C91.6376 46.1682 90.4356 45.4346 90.4356 43.234V42.3693H87.09V43.4434ZM100.878 39.5136C100.878 44.9894 105.008 49.2596 110.47 49.2596C115.933 49.2596 120.062 44.9894 120.062 39.5136C120.062 34.1951 115.933 30.0296 110.47 30.0296C105.008 30.0296 100.878 34.1951 100.878 39.5136ZM104.354 39.5136C104.354 35.8459 107.072 33.1211 110.47 33.1211C113.868 33.1211 116.586 35.8459 116.586 39.5136C116.586 43.3386 113.868 46.1682 110.47 46.1682C107.072 46.1682 104.354 43.3386 104.354 39.5136ZM121.122 46.7185C121.122 46.7185 123.396 49.2596 127.525 49.2596C131.393 49.2596 133.641 46.7711 133.641 43.8104C133.641 37.8631 124.912 38.6752 124.912 35.3743C124.912 34.064 126.14 33.1472 127.708 33.1472C130.035 33.1472 131.811 34.7714 131.811 34.7714L133.275 32.0208C133.275 32.0208 131.393 30.0296 127.734 30.0296C124.18 30.0296 121.514 32.3352 121.514 35.4265C121.514 41.1378 130.27 40.5615 130.27 43.889C130.27 45.4084 128.989 46.142 127.578 46.142C124.964 46.142 122.951 44.1769 122.951 44.1769L121.122 46.7185ZM136.06 48.9456H139.432V30.344H136.06V48.9456ZM147.575 48.9456H150.92L157.689 30.344H154.082L149.979 42.4741C149.613 43.5483 149.299 45.199 149.273 45.199H149.221C149.195 45.199 148.881 43.5483 148.515 42.4741L144.438 30.344H140.805L147.575 48.9456ZM169.125 48.9456H172.601L166.067 30.344H162.539L156.005 48.9456H159.481L161.049 44.1769H167.557L169.125 48.9456ZM164.342 33.5667C164.342 33.5667 164.734 35.4005 165.074 36.4484L166.72 41.4264H161.859L163.506 36.4484C163.872 35.4005 164.29 33.5667 164.29 33.5667H164.342ZM174.027 48.9456H185.422V46.0375H177.398V30.344H174.027V48.9456ZM192.56 48.9456H195.932V42.5266H199.722C203.198 42.5266 205.628 40.0114 205.628 36.3958C205.628 32.7808 203.198 30.344 199.722 30.344H192.56V48.9456ZM195.932 39.5919V33.252H199.146C201.054 33.252 202.204 34.4837 202.204 36.3958C202.204 38.3349 201.054 39.5919 199.094 39.5919H195.932ZM207.655 48.9456H219.181V46.0375H211.026V41.0331H217.273V38.1253H211.026V33.252H218.763V30.344H207.655V48.9456ZM221.731 48.9456H225.102V38.2302C225.102 37.1295 224.919 35.3482 224.919 35.3482H224.972C224.972 35.3482 225.808 37.1557 226.513 38.2302L233.544 48.9456H236.89V30.344H233.544V41.0859C233.544 42.1861 233.727 43.9675 233.727 43.9675H233.675C233.675 43.9675 232.839 42.1599 232.133 41.0859L225.102 30.344H221.731V48.9456ZM240.642 48.9456H244.013V41.1378H252.508V48.9456H255.879V30.344H252.508V38.2302H244.013V30.344H240.642V48.9456ZM270.425 48.9456H273.901L267.367 30.344H263.839L257.305 48.9456H260.781L262.349 44.1769H268.857L270.425 48.9456ZM265.642 33.5667C265.642 33.5667 266.034 35.4005 266.374 36.4484L268.021 41.4264H263.159L264.806 36.4484C265.172 35.4005 265.59 33.5667 265.59 33.5667H265.642Z" fill="#FEFEFE"/>
<path d="M93.098 64.165C93.098 64.5572 93.0353 64.9138 92.9097 65.2359C92.7842 65.5577 92.6089 65.8331 92.3839 66.0629C92.1584 66.292 91.893 66.4676 91.5867 66.5903C91.2802 66.7123 90.946 66.7733 90.5845 66.7733C90.2229 66.7733 89.8886 66.7103 89.5821 66.5844C89.2762 66.4583 89.0104 66.283 88.7854 66.0573C88.5599 65.8315 88.3848 65.5577 88.2593 65.2359C88.1335 64.9138 88.0712 64.5572 88.0712 64.165V63.3213C88.0712 62.929 88.1335 62.5726 88.2593 62.2502C88.3848 61.9284 88.5583 61.6544 88.7794 61.4286C89.0013 61.2031 89.2649 61.0272 89.5714 60.9017C89.8775 60.7761 90.2156 60.713 90.5845 60.713C90.946 60.713 91.2802 60.7761 91.5867 60.9017C91.893 61.0272 92.1584 61.2031 92.3839 61.4286C92.6089 61.6544 92.7842 61.9284 92.9097 62.2502C93.0353 62.5726 93.098 62.929 93.098 63.3213V64.165ZM92.2563 63.3771C92.2563 62.7997 92.1049 62.337 91.8024 61.9897C91.4998 61.6419 91.0938 61.468 90.5845 61.468C90.3261 61.468 90.0952 61.514 89.8926 61.6063C89.6895 61.6993 89.5142 61.8282 89.3666 61.9953C89.219 62.1613 89.1065 62.3615 89.029 62.5944C88.9513 62.8275 88.9125 63.0882 88.9125 63.3771V64.0983C88.9125 64.6756 89.0639 65.1396 89.3666 65.491C89.6691 65.8427 90.0755 66.0186 90.5845 66.0186C90.8355 66.0186 91.0643 65.9721 91.2709 65.8798C91.4775 65.7873 91.653 65.6574 91.7968 65.491C91.9407 65.3249 92.0536 65.123 92.1348 64.8863C92.2156 64.6493 92.2563 64.3867 92.2563 64.0983V63.3771ZM97.5732 60.813H98.7693V59.5924C98.7693 59.2294 98.8762 58.9373 99.0904 58.7152C99.3045 58.493 99.6069 58.3824 99.9981 58.3824H101.139V59.1369H100.12C99.7803 59.1369 99.6108 59.3292 99.6108 59.7142V60.813H101.139V61.5677H99.6108V66.662H98.7693V61.5677H97.5732V60.813ZM102.961 60.813H103.814V64.4757C103.814 64.9122 103.947 65.2746 104.213 65.5634C104.478 65.852 104.833 65.9958 105.275 65.9958C105.504 65.9958 105.717 65.9556 105.912 65.8741C106.107 65.793 106.276 65.6817 106.416 65.5413C106.556 65.4007 106.665 65.2322 106.742 65.0361C106.82 64.8399 106.859 64.6273 106.859 64.3979V60.813H107.711V66.662H106.859V65.5634C106.704 65.9408 106.462 66.2367 106.134 66.4513C105.805 66.6659 105.434 66.7733 105.021 66.7733C104.711 66.7733 104.428 66.7178 104.174 66.6067C103.919 66.4954 103.703 66.3456 103.526 66.157C103.349 65.9686 103.21 65.7448 103.111 65.4858C103.011 65.2264 102.961 64.9455 102.961 64.6421V60.813ZM111.981 66.662C111.582 66.662 111.272 66.5549 111.05 66.3402C110.829 66.1257 110.719 65.8445 110.719 65.497V61.5677H109.523V60.813H110.719V59.0596H111.56V60.813H113.121V61.5677H111.56V65.3745C111.56 65.73 111.756 65.9075 112.147 65.9075H113.121V66.662H111.981ZM114.844 60.813H115.697V64.4757C115.697 64.9122 115.83 65.2746 116.095 65.5634C116.361 65.852 116.715 65.9958 117.158 65.9958C117.387 65.9958 117.599 65.9556 117.795 65.8741C117.991 65.793 118.158 65.6817 118.299 65.5413C118.439 65.4007 118.548 65.2322 118.625 65.0361C118.703 64.8399 118.742 64.6273 118.742 64.3979V60.813H119.594V66.662H118.742V65.5634C118.587 65.9408 118.345 66.2367 118.016 66.4513C117.688 66.6659 117.317 66.7733 116.904 66.7733C116.594 66.7733 116.311 66.7178 116.057 66.6067C115.802 66.4954 115.586 66.3456 115.409 66.157C115.232 65.9686 115.093 65.7448 114.994 65.4858C114.894 65.2264 114.844 64.9455 114.844 64.6421V60.813ZM124.329 61.6009C124.13 61.6009 123.942 61.6419 123.764 61.7231C123.587 61.8046 123.434 61.9155 123.305 62.0561C123.176 62.1966 123.074 62.3632 123 62.5554C122.926 62.7478 122.889 62.9588 122.889 63.188V66.662H122.037V60.813H122.878V61.9897C122.996 61.6196 123.187 61.3234 123.448 61.1015C123.711 60.8794 124.026 60.7688 124.395 60.7688H124.882V61.6009H124.329ZM131.178 64.165C131.178 64.5572 131.116 64.9138 130.99 65.2359C130.864 65.5577 130.689 65.8331 130.464 66.0629C130.239 66.292 129.973 66.4676 129.667 66.5903C129.36 66.7123 129.026 66.7733 128.665 66.7733C128.303 66.7733 127.969 66.7103 127.663 66.5844C127.356 66.4583 127.09 66.283 126.865 66.0573C126.64 65.8315 126.465 65.5577 126.34 65.2359C126.214 64.9138 126.152 64.5572 126.152 64.165V63.3213C126.152 62.929 126.214 62.5726 126.34 62.2502C126.465 61.9284 126.639 61.6544 126.86 61.4286C127.081 61.2031 127.345 61.0272 127.652 60.9017C127.958 60.7761 128.296 60.713 128.665 60.713C129.026 60.713 129.36 60.7761 129.667 60.9017C129.973 61.0272 130.239 61.2031 130.464 61.4286C130.689 61.6544 130.864 61.9284 130.99 62.2502C131.116 62.5726 131.178 62.929 131.178 63.3213V64.165ZM130.337 63.3771C130.337 62.7997 130.185 62.337 129.883 61.9897C129.58 61.6419 129.174 61.468 128.665 61.468C128.406 61.468 128.176 61.514 127.973 61.6063C127.77 61.6993 127.594 61.8282 127.447 61.9953C127.299 62.1613 127.187 62.3615 127.109 62.5944C127.032 62.8275 126.993 63.0882 126.993 63.3771V64.0983C126.993 64.6756 127.144 65.1396 127.447 65.491C127.749 65.8427 128.155 66.0186 128.665 66.0186C128.916 66.0186 129.145 65.9721 129.351 65.8798C129.558 65.7873 129.733 65.6574 129.877 65.491C130.021 65.3249 130.134 65.123 130.215 64.8863C130.296 64.6493 130.337 64.3867 130.337 64.0983V63.3771ZM140.182 66.662V65.6187C139.99 65.9815 139.732 66.2644 139.407 66.4676C139.082 66.6713 138.706 66.7733 138.278 66.7733C137.946 66.7733 137.637 66.7103 137.353 66.5844C137.069 66.4583 136.825 66.283 136.622 66.0573C136.42 65.8315 136.259 65.5596 136.141 65.2414C136.023 64.9234 135.964 64.5681 135.964 64.176V63.2993C135.964 62.9146 136.021 62.5628 136.135 62.2448C136.25 61.9268 136.41 61.653 136.617 61.4234C136.824 61.1942 137.069 61.0182 137.353 60.8961C137.637 60.7738 137.946 60.713 138.278 60.713C138.699 60.713 139.073 60.8109 139.402 61.0074C139.73 61.2031 139.99 61.4787 140.182 61.8344V58.5267H141.035V66.662H140.182ZM140.182 63.3771C140.182 63.0882 140.142 62.8275 140.06 62.5944C139.979 62.3615 139.865 62.1613 139.717 61.9953C139.569 61.8282 139.392 61.6993 139.186 61.6063C138.979 61.514 138.746 61.468 138.488 61.468C138.23 61.468 137.997 61.514 137.79 61.6063C137.584 61.6993 137.409 61.8282 137.265 61.9953C137.121 62.1613 137.008 62.3615 136.927 62.5944C136.846 62.8275 136.805 63.0882 136.805 63.3771V64.0983C136.805 64.6756 136.958 65.1396 137.265 65.491C137.571 65.8427 137.979 66.0186 138.488 66.0186C139.005 66.0186 139.416 65.8427 139.723 65.491C140.029 65.1396 140.182 64.6756 140.182 64.0983V63.3771ZM148.194 64.165C148.194 64.5572 148.131 64.9138 148.006 65.2359C147.88 65.5577 147.705 65.8331 147.48 66.0629C147.255 66.292 146.989 66.4676 146.683 66.5903C146.376 66.7123 146.042 66.7733 145.68 66.7733C145.319 66.7733 144.985 66.7103 144.678 66.5844C144.372 66.4583 144.107 66.283 143.881 66.0573C143.656 65.8315 143.481 65.5577 143.355 65.2359C143.23 64.9138 143.167 64.5572 143.167 64.165V63.3213C143.167 62.929 143.23 62.5726 143.355 62.2502C143.481 61.9284 143.654 61.6544 143.876 61.4286C144.098 61.2031 144.361 61.0272 144.667 60.9017C144.974 60.7761 145.312 60.713 145.68 60.713C146.042 60.713 146.376 60.7761 146.683 60.9017C146.989 61.0272 147.255 61.2031 147.48 61.4286C147.705 61.6544 147.88 61.9284 148.006 62.2502C148.131 62.5726 148.194 62.929 148.194 63.3213V64.165ZM147.352 63.3771C147.352 62.7997 147.201 62.337 146.899 61.9897C146.596 61.6419 146.19 61.468 145.68 61.468C145.422 61.468 145.191 61.514 144.989 61.6063C144.786 61.6993 144.61 61.8282 144.463 61.9953C144.315 62.1613 144.203 62.3615 144.125 62.5944C144.048 62.8275 144.009 63.0882 144.009 63.3771V64.0983C144.009 64.6756 144.16 65.1396 144.463 65.491C144.765 65.8427 145.171 66.0186 145.68 66.0186C145.932 66.0186 146.16 65.9721 146.367 65.8798C146.574 65.7873 146.749 65.6574 146.893 65.491C147.037 65.3249 147.15 65.123 147.231 64.8863C147.312 64.6493 147.352 64.3867 147.352 64.0983V63.3771ZM155.161 66.7733C154.836 66.7733 154.535 66.725 154.258 66.6288C153.982 66.5327 153.738 66.4014 153.527 66.2348C153.317 66.0687 153.145 65.8705 153.012 65.6408C152.88 65.412 152.791 65.1601 152.747 64.8863H153.578C153.637 65.2193 153.804 65.4985 154.081 65.7245C154.358 65.9501 154.718 66.0629 155.161 66.0629C155.522 66.0629 155.812 65.9776 156.03 65.8074C156.248 65.6376 156.356 65.4228 156.356 65.1638C156.356 64.9197 156.268 64.7236 156.091 64.5754C155.914 64.4277 155.67 64.3093 155.36 64.2201L154.375 63.9652C153.88 63.8389 153.502 63.645 153.24 63.3823C152.978 63.1197 152.847 62.7885 152.847 62.3893C152.847 61.8857 153.026 61.481 153.384 61.1737C153.742 60.8667 154.216 60.713 154.806 60.713C155.102 60.713 155.38 60.7575 155.642 60.8464C155.905 60.9347 156.139 61.0624 156.346 61.229C156.552 61.3956 156.722 61.5938 156.855 61.8229C156.988 62.0525 157.073 62.304 157.11 62.5778H156.268C156.209 62.2448 156.045 61.9671 155.775 61.7452C155.506 61.5233 155.183 61.4122 154.806 61.4122C154.452 61.4122 154.177 61.4957 153.982 61.6621C153.786 61.8282 153.688 62.0375 153.688 62.2889C153.688 62.5259 153.773 62.7162 153.943 62.8607C154.113 63.0047 154.341 63.1176 154.629 63.1995L155.592 63.4547C156.109 63.5879 156.506 63.7931 156.783 64.0704C157.06 64.3481 157.198 64.6867 157.198 65.0859C157.198 65.3377 157.148 65.5673 157.049 65.7739C156.949 65.9815 156.809 66.1592 156.628 66.307C156.447 66.4551 156.231 66.5696 155.98 66.6509C155.729 66.7321 155.456 66.7733 155.161 66.7733ZM158.877 63.3213C158.877 62.9363 158.938 62.5848 159.06 62.2669C159.181 61.9487 159.353 61.6749 159.574 61.4455C159.796 61.2158 160.058 61.0367 160.361 60.9069C160.663 60.7777 160.992 60.713 161.346 60.713C161.678 60.713 161.986 60.7761 162.271 60.9017C162.555 61.0272 162.798 61.2053 163.001 61.4345C163.204 61.664 163.365 61.9339 163.483 62.2448C163.601 62.5554 163.66 62.8996 163.66 63.277V63.9984H159.718V64.1425C159.718 64.4239 159.759 64.6794 159.84 64.9084C159.921 65.1381 160.037 65.336 160.189 65.502C160.34 65.669 160.519 65.7962 160.726 65.8855C160.933 65.9738 161.158 66.0186 161.402 66.0186C161.711 66.0186 161.994 65.9556 162.248 65.83C162.503 65.7039 162.737 65.5001 162.951 65.2192L163.549 65.7187C163.269 66.0741 162.953 66.3366 162.603 66.5066C162.252 66.6768 161.844 66.7619 161.379 66.7619C161.017 66.7619 160.683 66.6973 160.377 66.568C160.071 66.4383 159.807 66.2587 159.585 66.0291C159.364 65.8001 159.191 65.5263 159.065 65.2084C158.939 64.8904 158.877 64.5385 158.877 64.1538V63.3213ZM161.324 61.4564C161.088 61.4564 160.871 61.5015 160.676 61.5898C160.481 61.679 160.312 61.8046 160.172 61.9671C160.032 62.1301 159.921 62.3242 159.84 62.55C159.759 62.7753 159.718 63.0252 159.718 63.2993H162.83V63.2547C162.83 62.9884 162.791 62.7444 162.713 62.5225C162.636 62.3001 162.531 62.1114 162.398 61.956C162.265 61.8005 162.106 61.679 161.922 61.5898C161.737 61.5015 161.538 61.4564 161.324 61.4564ZM165.737 60.813H166.59V64.4757C166.59 64.9122 166.723 65.2746 166.989 65.5634C167.254 65.852 167.609 65.9958 168.051 65.9958C168.28 65.9958 168.493 65.9556 168.688 65.8741C168.884 65.793 169.052 65.6817 169.192 65.5413C169.332 65.4007 169.441 65.2322 169.518 65.0361C169.596 64.8399 169.635 64.6273 169.635 64.3979V60.813H170.487V66.662H169.635V65.5634C169.48 65.9408 169.238 66.2367 168.91 66.4513C168.581 66.6659 168.21 66.7733 167.797 66.7733C167.487 66.7733 167.204 66.7178 166.95 66.6067C166.695 66.4954 166.479 66.3456 166.302 66.157C166.125 65.9686 165.986 65.7448 165.887 65.4858C165.787 65.2264 165.737 64.9455 165.737 64.6421V60.813ZM175.284 60.813H176.48V59.5924C176.48 59.2294 176.587 58.9373 176.801 58.7152C177.015 58.493 177.318 58.3824 177.709 58.3824H180.178V59.1369H177.831C177.491 59.1369 177.322 59.3292 177.322 59.7142V60.813H180.842V66.662H179.99V61.5677H177.322V66.662H176.48V61.5677H175.284V60.813ZM183.263 66.662V58.5267H184.115V66.662H183.263ZM191.308 66.662H190.455V63.0106C190.455 62.7885 190.42 62.5848 190.35 62.4002C190.28 62.2149 190.182 62.0541 190.057 61.9173C189.931 61.7805 189.778 61.6731 189.597 61.5955C189.416 61.5178 189.215 61.4787 188.994 61.4787C188.758 61.4787 188.544 61.5195 188.352 61.6009C188.159 61.6821 187.994 61.7949 187.853 61.9393C187.713 62.0839 187.604 62.2519 187.526 62.4443C187.449 62.6372 187.41 62.8477 187.41 63.0774V66.662H186.558V58.5267H187.41V61.9118C187.566 61.5345 187.807 61.2383 188.136 61.024C188.464 60.8091 188.839 60.7019 189.259 60.7019C189.569 60.7019 189.85 60.7575 190.101 60.8685C190.352 60.9798 190.566 61.1313 190.743 61.3234C190.92 61.5158 191.059 61.7436 191.158 62.0058C191.258 62.2692 191.308 62.5479 191.308 62.8438V66.662ZM198.468 64.165C198.468 64.5572 198.405 64.9138 198.279 65.2359C198.154 65.5577 197.978 65.8331 197.753 66.0629C197.528 66.292 197.262 66.4676 196.956 66.5903C196.65 66.7123 196.316 66.7733 195.954 66.7733C195.592 66.7733 195.258 66.7103 194.952 66.5844C194.645 66.4583 194.38 66.283 194.154 66.0573C193.93 65.8315 193.754 65.5577 193.628 65.2359C193.503 64.9138 193.44 64.5572 193.44 64.165V63.3213C193.44 62.929 193.503 62.5726 193.628 62.2502C193.754 61.9284 193.928 61.6544 194.149 61.4286C194.371 61.2031 194.634 61.0272 194.941 60.9017C195.247 60.7761 195.585 60.713 195.954 60.713C196.316 60.713 196.65 60.7761 196.956 60.9017C197.262 61.0272 197.528 61.2031 197.753 61.4286C197.978 61.6544 198.154 61.9284 198.279 62.2502C198.405 62.5726 198.468 62.929 198.468 63.3213V64.165ZM197.626 63.3771C197.626 62.7997 197.474 62.337 197.172 61.9897C196.869 61.6419 196.463 61.468 195.954 61.468C195.695 61.468 195.465 61.514 195.262 61.6063C195.059 61.6993 194.884 61.8282 194.736 61.9953C194.588 62.1613 194.476 62.3615 194.398 62.5944C194.321 62.8275 194.282 63.0882 194.282 63.3771V64.0983C194.282 64.6756 194.434 65.1396 194.736 65.491C195.039 65.8427 195.445 66.0186 195.954 66.0186C196.205 66.0186 196.433 65.9721 196.64 65.8798C196.847 65.7873 197.022 65.6574 197.166 65.491C197.31 65.3249 197.423 65.123 197.504 64.8863C197.585 64.6493 197.626 64.3867 197.626 64.0983V63.3771ZM205.711 66.7733C205.357 66.7733 205.03 66.7103 204.731 66.5844C204.432 66.4583 204.172 66.283 203.95 66.0573C203.729 65.8315 203.557 65.5577 203.435 65.2359C203.314 64.9138 203.253 64.5572 203.253 64.165V63.3213C203.253 62.929 203.314 62.5726 203.435 62.2502C203.557 61.9284 203.729 61.6544 203.95 61.4286C204.172 61.2031 204.432 61.0272 204.731 60.9017C205.03 60.7761 205.357 60.713 205.711 60.713C206.316 60.713 206.831 60.8867 207.255 61.2348C207.68 61.5825 207.955 62.0631 208.08 62.6779H207.228C207.124 62.3001 206.94 62.0042 206.674 61.7896C206.408 61.575 206.087 61.468 205.711 61.468C205.467 61.468 205.246 61.514 205.047 61.6063C204.847 61.6993 204.678 61.8282 204.537 61.9953C204.397 62.1613 204.288 62.3615 204.21 62.5944C204.133 62.8275 204.094 63.0882 204.094 63.3771V64.0983C204.094 64.6756 204.242 65.1396 204.537 65.491C204.833 65.8427 205.224 66.0186 205.711 66.0186C206.087 66.0186 206.408 65.9112 206.674 65.6967C206.94 65.4821 207.124 65.1861 207.228 64.8087H208.08C208.014 65.1118 207.911 65.3843 207.77 65.6242C207.63 65.8648 207.457 66.0701 207.25 66.2403C207.043 66.4103 206.809 66.5421 206.547 66.6342C206.285 66.7267 206.006 66.7733 205.711 66.7733ZM214.753 64.165C214.753 64.5572 214.69 64.9138 214.564 65.2359C214.439 65.5577 214.264 65.8331 214.038 66.0629C213.813 66.292 213.548 66.4676 213.242 66.5903C212.935 66.7123 212.601 66.7733 212.239 66.7733C211.878 66.7733 211.544 66.7103 211.237 66.5844C210.931 66.4583 210.665 66.283 210.44 66.0573C210.215 65.8315 210.04 65.5577 209.914 65.2359C209.788 64.9138 209.726 64.5572 209.726 64.165V63.3213C209.726 62.929 209.788 62.5726 209.914 62.2502C210.04 61.9284 210.213 61.6544 210.434 61.4286C210.656 61.2031 210.92 61.0272 211.226 60.9017C211.532 60.7761 211.87 60.713 212.239 60.713C212.601 60.713 212.935 60.7761 213.242 60.9017C213.548 61.0272 213.813 61.2031 214.038 61.4286C214.264 61.6544 214.439 61.9284 214.564 62.2502C214.69 62.5726 214.753 62.929 214.753 63.3213V64.165ZM213.911 63.3771C213.911 62.7997 213.76 62.337 213.457 61.9897C213.155 61.6419 212.748 61.468 212.239 61.468C211.981 61.468 211.75 61.514 211.547 61.6063C211.344 61.6993 211.169 61.8282 211.021 61.9953C210.874 62.1613 210.761 62.3615 210.684 62.5944C210.606 62.8275 210.567 63.0882 210.567 63.3771V64.0983C210.567 64.6756 210.719 65.1396 211.021 65.491C211.324 65.8427 211.73 66.0186 212.239 66.0186C212.49 66.0186 212.719 65.9721 212.926 65.8798C213.132 65.7873 213.308 65.6574 213.451 65.491C213.596 65.3249 213.708 65.123 213.79 64.8863C213.871 64.6493 213.911 64.3867 213.911 64.0983V63.3771ZM217.738 66.662H216.886V60.813H217.738V61.9118C217.886 61.5345 218.114 61.2383 218.425 61.024C218.735 60.8091 219.089 60.7019 219.487 60.7019C219.952 60.7019 220.349 60.8369 220.678 61.107C221.006 61.3774 221.233 61.727 221.359 62.1563C221.484 61.727 221.713 61.3774 222.045 61.107C222.377 60.8369 222.776 60.7019 223.241 60.7019C223.536 60.7019 223.805 60.7575 224.049 60.8685C224.293 60.9798 224.503 61.1328 224.68 61.3291C224.857 61.5251 224.994 61.7564 225.09 62.0231C225.186 62.2889 225.234 62.5741 225.234 62.8775V66.662H224.381V63.0441C224.381 62.8218 224.348 62.6149 224.282 62.4223C224.215 62.2297 224.121 62.0631 223.999 61.9227C223.877 61.7823 223.73 61.6731 223.556 61.5955C223.383 61.5178 223.193 61.4787 222.986 61.4787C222.765 61.4787 222.562 61.5195 222.377 61.6009C222.193 61.6821 222.034 61.7971 221.901 61.945C221.768 62.0933 221.665 62.2669 221.591 62.4667C221.517 62.6665 221.48 62.8848 221.48 63.1217V66.662H220.628V63.0441C220.628 62.8218 220.595 62.6149 220.528 62.4223C220.462 62.2297 220.368 62.0631 220.246 61.9227C220.124 61.7823 219.976 61.6731 219.803 61.5955C219.63 61.5178 219.439 61.4787 219.233 61.4787C219.011 61.4787 218.81 61.5195 218.629 61.6009C218.448 61.6821 218.291 61.7971 218.159 61.945C218.026 62.0933 217.922 62.2669 217.849 62.4667C217.775 62.6665 217.738 62.8848 217.738 63.1217V66.662ZM227.367 63.3213C227.367 62.9363 227.427 62.5848 227.549 62.2669C227.671 61.9487 227.842 61.6749 228.064 61.4455C228.285 61.2158 228.548 61.0367 228.85 60.9069C229.153 60.7777 229.481 60.713 229.836 60.713C230.168 60.713 230.476 60.7761 230.76 60.9017C231.044 61.0272 231.288 61.2053 231.491 61.4345C231.694 61.664 231.854 61.9339 231.973 62.2448C232.091 62.5554 232.15 62.8996 232.15 63.277V63.9984H228.208V64.1425C228.208 64.4239 228.248 64.6794 228.33 64.9084C228.411 65.1381 228.527 65.336 228.678 65.502C228.83 65.669 229.009 65.7962 229.216 65.8855C229.422 65.9738 229.648 66.0186 229.891 66.0186C230.201 66.0186 230.483 65.9556 230.738 65.83C230.992 65.7039 231.227 65.5001 231.441 65.2192L232.039 65.7187C231.758 66.0741 231.443 66.3366 231.092 66.5066C230.742 66.6768 230.334 66.7619 229.869 66.7619C229.507 66.7619 229.173 66.6973 228.867 66.568C228.56 66.4383 228.297 66.2587 228.075 66.0291C227.854 65.8001 227.68 65.5263 227.555 65.2084C227.429 64.8904 227.367 64.5385 227.367 64.1538V63.3213ZM229.813 61.4564C229.577 61.4564 229.361 61.5015 229.166 61.5898C228.97 61.679 228.802 61.8046 228.662 61.9671C228.522 62.1301 228.411 62.3242 228.33 62.55C228.248 62.7753 228.208 63.0252 228.208 63.2993H231.319V63.2547C231.319 62.9884 231.28 62.7444 231.203 62.5225C231.126 62.3001 231.02 62.1114 230.887 61.956C230.755 61.8005 230.596 61.679 230.412 61.5898C230.226 61.5015 230.027 61.4564 229.813 61.4564ZM237.471 68.1938C237.471 68.4748 237.36 68.7115 237.139 68.9041C236.918 69.0964 236.644 69.1927 236.32 69.1927C236.076 69.1927 235.851 69.1465 235.644 69.0539C235.438 68.9614 235.275 68.8338 235.157 68.671L235.567 68.3272C235.766 68.5711 236.009 68.6934 236.297 68.6934C236.474 68.6934 236.617 68.6451 236.724 68.5488C236.831 68.4525 236.885 68.3305 236.885 68.1828C236.885 68.0346 236.824 67.9145 236.702 67.8221C236.58 67.7294 236.419 67.683 236.22 67.683H235.855L236.132 66.7619C235.807 66.7321 235.51 66.6509 235.24 66.5177C234.971 66.3848 234.738 66.205 234.542 65.9794C234.347 65.7539 234.194 65.4876 234.083 65.1806C233.972 64.8734 233.917 64.5349 233.917 64.165V63.3213C233.917 62.929 233.978 62.5726 234.1 62.2502C234.221 61.9284 234.393 61.6544 234.615 61.4286C234.836 61.2031 235.096 61.0272 235.395 60.9017C235.694 60.7761 236.021 60.713 236.375 60.713C236.98 60.713 237.495 60.8867 237.92 61.2348C238.344 61.5825 238.619 62.0631 238.745 62.6779H237.892C237.789 62.3001 237.604 62.0042 237.338 61.7896C237.073 61.575 236.752 61.468 236.375 61.468C236.132 61.468 235.91 61.514 235.711 61.6063C235.511 61.6993 235.341 61.8282 235.201 61.9953C235.061 62.1613 234.952 62.3615 234.875 62.5944C234.798 62.8275 234.758 63.0882 234.758 63.3771V64.0983C234.758 64.6756 234.906 65.1396 235.201 65.491C235.497 65.8427 235.888 66.0186 236.375 66.0186C236.752 66.0186 237.073 65.9112 237.338 65.6967C237.604 65.4821 237.789 65.1861 237.892 64.8087H238.745C238.626 65.3638 238.381 65.813 238.008 66.157C237.635 66.5011 237.183 66.703 236.652 66.7619L236.497 67.2729C236.792 67.2949 237.028 67.3889 237.205 67.5555C237.383 67.7217 237.471 67.935 237.471 68.1938ZM240.191 65.0527C240.191 64.5201 240.353 64.1127 240.678 63.8318C241.003 63.5507 241.442 63.3914 241.996 63.3546L243.845 63.2547V62.7109C243.845 62.3262 243.739 62.0263 243.529 61.8121C243.319 61.597 243.014 61.49 242.616 61.49C242.32 61.49 242.045 61.5415 241.791 61.6451C241.536 61.7491 241.291 61.9118 241.055 62.1335L240.611 61.5233C240.914 61.2643 241.233 61.0665 241.569 60.9295C241.905 60.7928 242.284 60.724 242.704 60.724C243.317 60.724 243.801 60.8926 244.155 61.229C244.509 61.5661 244.686 62.0231 244.686 62.6001V65.5634C244.686 65.793 244.812 65.9075 245.062 65.9075H245.35V66.662H244.874C244.579 66.662 244.343 66.5824 244.166 66.4235C243.989 66.2644 243.889 66.0552 243.867 65.7962C243.697 66.0924 243.461 66.3273 243.158 66.5011C242.855 66.6752 242.512 66.7619 242.129 66.7619C241.848 66.7619 241.59 66.7196 241.353 66.6342C241.117 66.5491 240.913 66.4306 240.739 66.2792C240.565 66.1276 240.43 65.9483 240.335 65.7409C240.239 65.5336 240.191 65.3044 240.191 65.0527ZM241.021 65.0197C241.021 65.3303 241.136 65.5818 241.364 65.7739C241.593 65.9665 241.889 66.0629 242.25 66.0629C242.472 66.0629 242.68 66.0259 242.876 65.9516C243.072 65.8782 243.241 65.7757 243.385 65.6464C243.529 65.5174 243.642 65.367 243.723 65.1969C243.804 65.0267 243.845 64.8454 243.845 64.6535V63.9541L242.095 64.0425C241.763 64.0577 241.501 64.1482 241.309 64.3148C241.117 64.4814 241.021 64.7161 241.021 65.0197ZM249.671 65.0527C249.671 64.5201 249.833 64.1127 250.158 63.8318C250.483 63.5507 250.922 63.3914 251.476 63.3546L253.325 63.2547V62.7109C253.325 62.3262 253.22 62.0263 253.009 61.8121C252.799 61.597 252.495 61.49 252.096 61.49C251.8 61.49 251.526 61.5415 251.271 61.6451C251.016 61.7491 250.771 61.9118 250.535 62.1335L250.092 61.5233C250.394 61.2643 250.714 61.0665 251.049 60.9295C251.385 60.7928 251.764 60.724 252.185 60.724C252.797 60.724 253.281 60.8926 253.635 61.229C253.989 61.5661 254.166 62.0231 254.166 62.6001V65.5634C254.166 65.793 254.292 65.9075 254.543 65.9075H254.831V66.662H254.354C254.059 66.662 253.823 66.5824 253.646 66.4235C253.469 66.2644 253.369 66.0552 253.347 65.7962C253.177 66.0924 252.941 66.3273 252.638 66.5011C252.336 66.6752 251.992 66.7619 251.609 66.7619C251.328 66.7619 251.07 66.7196 250.834 66.6342C250.597 66.5491 250.393 66.4306 250.219 66.2792C250.045 66.1276 249.911 65.9483 249.815 65.7409C249.719 65.5336 249.671 65.3044 249.671 65.0527ZM250.501 65.0197C250.501 65.3303 250.616 65.5818 250.845 65.7739C251.073 65.9665 251.369 66.0629 251.731 66.0629C251.952 66.0629 252.16 66.0259 252.356 65.9516C252.552 65.8782 252.721 65.7757 252.866 65.6464C253.009 65.5174 253.122 65.367 253.203 65.1969C253.284 65.0267 253.325 64.8454 253.325 64.6535V63.9541L251.576 64.0425C251.243 64.0577 250.981 64.1482 250.789 64.3148C250.597 64.4814 250.501 64.7161 250.501 65.0197ZM261.459 69.0486H260.606V65.6187C260.414 65.9815 260.156 66.2644 259.831 66.4676C259.506 66.6713 259.13 66.7733 258.702 66.7733C258.369 66.7733 258.061 66.7103 257.777 66.5844C257.493 66.4583 257.25 66.283 257.046 66.0573C256.843 65.8315 256.683 65.5596 256.565 65.2414C256.447 64.9234 256.388 64.5681 256.388 64.176V63.2993C256.388 62.9146 256.445 62.5628 256.559 62.2448C256.673 61.9268 256.834 61.653 257.041 61.4234C257.248 61.1942 257.493 61.0182 257.777 60.8961C258.061 60.7738 258.369 60.713 258.702 60.713C259.123 60.713 259.497 60.8109 259.826 61.0074C260.154 61.2031 260.414 61.4787 260.606 61.8344V60.813H261.459V69.0486ZM260.606 63.3771C260.606 63.0882 260.565 62.8275 260.484 62.5944C260.403 62.3615 260.289 62.1613 260.141 61.9953C259.994 61.8282 259.816 61.6993 259.609 61.6063C259.403 61.514 259.17 61.468 258.912 61.468C258.654 61.468 258.421 61.514 258.215 61.6063C258.008 61.6993 257.833 61.8282 257.689 61.9953C257.545 62.1613 257.432 62.3615 257.351 62.5944C257.27 62.8275 257.229 63.0882 257.229 63.3771V64.0983C257.229 64.6756 257.382 65.1396 257.689 65.491C257.995 65.8427 258.403 66.0186 258.912 66.0186C259.429 66.0186 259.84 65.8427 260.147 65.491C260.453 65.1396 260.606 64.6756 260.606 64.0983V63.3771ZM263.901 60.813H264.754V64.4757C264.754 64.9122 264.887 65.2746 265.153 65.5634C265.418 65.852 265.772 65.9958 266.215 65.9958C266.444 65.9958 266.657 65.9556 266.852 65.8741C267.048 65.793 267.216 65.6817 267.356 65.5413C267.496 65.4007 267.605 65.2322 267.682 65.0361C267.76 64.8399 267.799 64.6273 267.799 64.3979V60.813H268.651V66.662H267.799V65.5634C267.644 65.9408 267.402 66.2367 267.073 66.4513C266.745 66.6659 266.374 66.7733 265.961 66.7733C265.65 66.7733 265.368 66.7178 265.114 66.6067C264.859 66.4954 264.643 66.3456 264.466 66.157C264.289 65.9686 264.15 65.7448 264.051 65.4858C263.951 65.2264 263.901 64.9455 263.901 64.6421V60.813Z" fill="#FEFEFE"/>
<path d="M271.526 59.6695C271.371 59.6695 271.236 59.6129 271.122 59.4977C271.007 59.3832 270.95 59.2514 270.95 59.1038C270.95 58.941 271.007 58.8039 271.122 58.6931C271.236 58.582 271.371 58.5267 271.526 58.5267C271.673 58.5267 271.802 58.582 271.913 58.6931C272.024 58.8039 272.079 58.941 272.079 59.1038C272.079 59.2514 272.024 59.3832 271.913 59.4977C271.802 59.6129 271.673 59.6695 271.526 59.6695ZM271.946 66.662H271.094V60.813H271.946V66.662ZM274.588 65.6187C274.743 65.6187 274.876 65.6744 274.987 65.7853C275.097 65.8963 275.153 66.0331 275.153 66.1962C275.153 66.3516 275.097 66.4844 274.987 66.5958C274.876 66.7062 274.743 66.762 274.588 66.762C274.433 66.762 274.3 66.7062 274.19 66.5958C274.079 66.4844 274.023 66.3516 274.023 66.1962C274.023 66.0331 274.079 65.8963 274.19 65.7853C274.3 65.6744 274.433 65.6187 274.588 65.6187Z" fill="#FEFEFE"/>
</svg>
