<svg width="217" height="63" viewBox="0 0 217 63" fill="none" xmlns="http://www.w3.org/2000/svg">
<path fill-rule="evenodd" clip-rule="evenodd" d="M30.4106 2.23706C13.7361 2.23706 0.218979 15.1449 0.218979 31.0678C0.218979 46.9906 13.7361 59.8985 30.4106 59.8985C47.0848 59.8985 60.602 46.9906 60.602 31.0678C60.602 15.1449 47.0848 2.23706 30.4106 2.23706Z" fill="#ED3237"/>
<path d="M61.4676 31.0753C61.4676 13.9176 47.7032 0 30.7339 0C13.7643 0 0 13.9176 0 31.0753C0 48.2336 13.7643 62.1507 30.7339 62.1507C47.7032 62.1507 61.4676 48.2336 61.4676 31.0753ZM58.504 31.0753C58.504 46.5791 46.0671 59.1541 30.7339 59.1541C15.4009 59.1541 2.96378 46.5791 2.96378 31.0753C2.96378 15.572 15.4009 2.99677 30.7339 2.99677C46.0671 2.99677 58.504 15.572 58.504 31.0753Z" fill="#3E4095"/>
<path d="M19.1561 8.22437C19.1561 14.4981 14.0676 19.5867 7.79362 19.5867C7.79362 27.1616 7.79362 34.7369 7.79362 42.3116C14.0676 42.3116 19.1561 47.4006 19.1561 53.674C26.8033 53.674 34.4503 53.674 42.0975 53.674C42.0975 47.4006 47.1863 42.3116 53.46 42.3116C53.46 34.7369 53.46 27.1616 53.46 19.5867C47.1863 19.5867 42.0975 14.4981 42.0975 8.22437C34.4503 8.22437 26.8033 8.22437 19.1561 8.22437Z" fill="#00AFEF"/>
<path d="M31.5926 23.9692C31.5926 24.1431 31.5601 24.3276 31.495 24.5231C31.1909 24.7836 30.6265 25.0549 29.8015 25.3373C29.1718 25.5326 28.5531 25.7279 27.9452 25.9235C29.2694 30.2435 29.9318 33.4677 29.9318 35.5951C29.9318 37.6577 29.2587 39.2858 27.9127 40.4802C26.8271 41.4354 25.1772 42.195 22.9627 42.76C21.3562 43.1724 20.0644 43.3787 19.0875 43.3787C17.85 43.3787 16.5689 43.0474 15.2447 42.3852C13.9203 41.7231 12.9326 40.8817 12.2811 39.8615C11.7819 39.1013 11.532 38.689 11.532 38.624C11.532 38.4502 11.8686 37.9616 12.5418 37.1585C13.2146 36.3553 13.6435 35.8992 13.828 35.7909C14.0126 35.6822 14.4251 35.4977 15.0656 35.2373C15.706 34.9764 16.0913 34.8462 16.2216 34.8462C16.2216 34.8462 16.9162 35.4435 18.3059 36.6374C19.6953 37.8316 20.6938 38.4287 21.3017 38.4287C22.3439 38.4287 22.865 37.5817 22.865 35.8883C22.865 34.6726 22.6695 33.2398 22.2787 31.5898C21.9097 30.2001 21.5296 28.8 21.1392 27.3887C20.77 27.4105 19.9993 27.6926 18.8268 28.2354C18.5445 28.1703 18.0941 27.9046 17.4754 27.4376C16.8566 26.9706 16.4658 26.6073 16.3031 26.3466C16.1402 26.0863 15.8905 25.332 15.5539 24.0835C15.2174 22.8349 15.0384 22.0374 15.0167 21.69L15.3097 21.2665C15.6137 21.1363 17.9151 20.6639 22.2136 19.8499C26.5123 19.0357 28.8028 18.6284 29.0851 18.6284C29.2587 18.6284 29.6495 18.938 30.2575 19.5565C30.8652 20.1755 31.2127 20.5935 31.2994 20.8105C31.495 21.2883 31.5926 22.3409 31.5926 23.9692ZM30.7134 23.709V22.9924C30.7134 22.1239 30.6916 21.6245 30.6483 21.4944C30.4744 21.1038 29.9427 20.485 29.0524 19.6383L29.2478 20.4523C29.313 20.995 29.4434 21.7658 29.6386 22.7646C29.8557 22.9817 30.2141 23.2965 30.7134 23.709ZM29.1502 35.6498C29.1502 35.0198 28.8842 33.332 28.3522 30.5909C27.8203 27.8502 27.4459 26.3032 27.2287 25.9558C27.0767 25.7388 26.8924 25.5759 26.6752 25.4676C26.4582 25.3591 26.2411 25.2394 26.0237 25.1091C26.4363 26.1946 26.9357 28.2302 27.5219 31.2154C28.1298 34.26 28.4338 36.2953 28.4338 37.3161C28.4338 37.9236 28.2166 38.7107 27.7824 39.6661C28.6943 38.6023 29.1502 37.2614 29.1502 35.6498ZM28.7214 22.862L28.0048 19.4644L16.0913 21.9772V22.2055C16.0913 22.705 16.4713 23.85 17.2311 25.6302H17.4264C19.4891 24.9135 20.6289 24.5557 20.8461 24.5557C21.5187 24.5557 22.2461 26.2492 23.0276 29.6357C23.6791 32.5883 24.0046 34.6617 24.0046 35.856C24.0046 37.1151 23.6087 38.065 22.8162 38.7052C22.0238 39.346 20.9652 39.6661 19.641 39.6661C18.7509 39.6661 17.8065 39.3078 16.8079 38.5916C15.9828 37.9616 15.1578 37.3323 14.3328 36.7024C14.1592 36.7677 13.8769 37.0607 13.4861 37.5817C13.2254 37.9508 12.9542 38.3091 12.6719 38.6565C13.9312 41.1098 16.1455 42.3364 19.3154 42.3364C20.1185 42.3364 21.3127 42.1625 22.8976 41.8154C24.3736 41.5116 25.4702 41.088 26.1866 40.5451C27.1202 39.8291 27.5871 38.8194 27.5871 37.5168C27.5871 36.2359 27.3265 34.4663 26.8055 32.2085C26.3712 30.4501 25.937 28.6916 25.5027 26.9328C25.4811 26.7809 25.3401 26.2708 25.0794 25.4023C24.8405 24.5991 24.7213 24.1759 24.7213 24.1321C24.7213 23.85 25.3075 23.5784 26.4796 23.3183C27.2125 23.1662 27.9614 23.014 28.7214 22.862ZM49.8292 28.0727C49.8292 29.5925 49.395 30.9709 48.5266 32.2085C47.6583 33.4461 46.5184 34.2817 45.1075 34.7161C44.3691 34.9765 43.2836 35.3457 41.8507 35.8234C41.8291 35.8883 41.8182 35.9643 41.8182 36.0513C41.8182 36.659 41.8454 37.5817 41.8996 38.8194C41.9539 40.0569 41.9809 40.9794 41.9809 41.5874C41.9809 42.4125 41.7749 42.8791 41.3623 42.9876C41.08 43.0746 40.6675 43.1126 40.1248 43.1017C39.582 43.0908 39.1912 43.107 38.9524 43.1504C38.822 43.1724 38.4094 43.2806 37.715 43.4762C37.1937 43.6281 36.7922 43.7043 36.5099 43.7043C36.2494 43.7043 35.8694 43.3894 35.37 42.76C34.9358 42.2168 34.6428 41.7719 34.4908 41.4245C34.2303 40.8167 33.9157 37.6033 33.5467 31.7852C33.1991 26.4662 33.0253 22.9057 33.0253 21.1038C33.0253 20.6693 33.0795 20.3763 33.1883 20.2244C33.4487 19.8986 34.4692 19.6167 36.2494 19.3776C37.6607 19.2039 38.8004 19.1172 39.6689 19.1172C42.9037 19.1172 45.3461 19.7465 46.9959 21.0058C48.8849 22.4605 49.8292 24.8161 49.8292 28.0727ZM48.0382 31.4595L47.2891 31.3944L46.8983 31.4595C45.9649 32.176 44.9335 32.7404 43.8046 33.1528C43.1533 33.3699 42.0243 33.6524 40.4178 33.9998C40.9172 34.4988 41.2536 34.9115 41.4274 35.2373C42.6431 34.8027 43.8482 34.3796 45.0423 33.967C46.3231 33.4677 47.3217 32.6317 48.0382 31.4595ZM48.5917 25.6302C48.5917 24.2626 48.0491 23.1011 46.9635 22.1457C46.0734 21.3208 44.901 20.7127 43.4465 20.3222C42.3609 20.0399 41.6769 19.8986 41.3948 19.8986C37.9428 19.8986 35.4244 20.1593 33.8395 20.6802C33.8395 26.4987 34.3174 33.1965 35.2726 40.7734C36.7053 40.5124 38.16 40.3172 39.6362 40.1873V39.959C39.6362 39.4816 39.6035 38.7652 39.5384 37.81C39.4735 36.8546 39.4408 36.1383 39.4408 35.6606C39.4408 35.4435 39.3866 35.1285 39.2781 34.7161C39.1694 34.3034 39.1152 33.9998 39.1152 33.8042C39.1152 33.4568 39.4517 33.229 40.1248 33.1203C40.5807 33.0769 41.0366 33.0336 41.4926 32.9901C42.5128 32.8165 43.5659 32.5125 44.6513 32.0782C45.6717 31.6657 46.5835 30.7756 47.3868 29.4079C48.1901 28.0398 48.5917 26.7809 48.5917 25.6302ZM40.6783 42.2498C40.1357 41.4409 39.8425 41.0337 39.7991 41.0337C39.495 41.0337 38.0731 41.2128 35.5331 41.5765C36.2494 42.4068 36.6077 42.8251 36.6077 42.8251C36.89 42.8251 37.4868 42.7218 38.3987 42.5209C39.3107 42.3201 40.0705 42.228 40.6783 42.2498ZM44.3909 25.6627C44.3909 26.8135 43.7611 27.7797 42.502 28.5611C41.3948 29.2126 40.2224 29.56 38.9849 29.6034L38.5941 29.245C38.5941 29.2235 38.5941 28.8868 38.5941 28.2354C38.5941 27.758 38.529 27.0361 38.3987 26.0698C38.2684 25.1036 38.2033 24.382 38.2033 23.9042C38.2033 23.4702 38.5941 23.2094 39.3759 23.1227C39.5277 23.1011 40.1139 23.0902 41.1342 23.0902C43.3052 23.0902 44.3909 23.9476 44.3909 25.6627ZM43.6092 25.044C43.4791 24.6965 43.1967 24.4038 42.7625 24.1648C42.3337 23.9259 41.9105 23.8065 41.4926 23.8065C41.1396 23.8065 40.5209 23.9042 39.6362 24.0997C40.4069 24.8594 40.7815 25.2394 40.7597 25.2394C40.8737 25.2394 41.0149 25.1851 41.194 25.0766C41.3243 25.0549 41.6117 25.0224 42.0514 24.9791C42.426 24.9357 42.7136 24.9135 42.9144 24.9135C43.1589 24.9135 43.3867 24.9575 43.6092 25.044ZM43.6092 26.1187L43.0557 25.728C42.6216 25.7498 41.9592 25.7388 41.0691 25.6955C41.004 25.8693 40.9715 26.1187 40.9715 26.4444C40.9715 26.6616 40.9933 26.9706 41.0366 27.3725C41.08 27.7742 41.1016 28.0836 41.1016 28.3008C42.7734 27.6493 43.6092 26.9219 43.6092 26.1187Z" fill="#FEFEFE"/>
<path d="M29.2961 53.0838C29.4254 52.9551 29.49 52.794 29.49 52.6006C29.49 52.3789 29.3931 52.1641 29.1991 51.9562C29.0054 51.7845 28.786 51.6989 28.5417 51.6989C28.3481 51.6989 28.188 51.7649 28.0624 51.8975C27.9366 52.0299 27.8738 52.1857 27.8738 52.3647C27.8738 52.6366 27.9672 52.8548 28.1539 53.0197C28.3336 53.2055 28.5454 53.2986 28.7898 53.2986C28.9978 53.2986 29.1668 53.2271 29.2961 53.0838ZM31.9787 53.3414C32.3165 53.499 32.582 53.6116 32.7761 53.678C33.0488 53.7765 33.2969 53.8248 33.5195 53.8248C33.735 53.8248 33.9396 53.7852 34.1336 53.7065C34.3276 53.6296 34.5467 53.4919 34.7908 53.2986C35.1428 53.6062 35.4839 53.7602 35.8143 53.7602C35.9723 53.7602 36.1214 53.7157 36.2615 53.6277C36.4016 53.5401 36.5256 53.4061 36.6332 53.2237C36.4753 53.4095 36.2417 53.5026 35.933 53.5026C35.7461 53.5026 35.5611 53.4649 35.3779 53.39C35.195 53.3145 35.0099 53.1947 34.8231 53.0304C34.6006 53.1947 34.3975 53.3145 34.2143 53.39C34.0313 53.4649 33.8535 53.5026 33.681 53.5026C33.5016 53.5026 33.128 53.388 32.5606 53.1591C31.9932 52.9302 31.4435 52.8152 30.9121 52.8152C30.7612 52.7295 30.6376 52.6116 30.5405 52.461C30.4435 52.311 30.3447 52.1569 30.2443 51.9992C30.0719 51.7918 29.9209 51.6236 29.7916 51.4949C29.5976 51.2944 29.4073 51.1084 29.2206 50.9362C29.1846 50.9079 29.1343 50.8936 29.0698 50.8936C29.0124 50.8936 28.822 50.9651 28.4987 51.1084C28.2403 51.2228 27.9816 51.3266 27.723 51.4196C27.4142 51.4696 27.179 51.536 27.0173 51.6182C26.8558 51.7003 26.7748 51.7776 26.7748 51.8492C26.7748 51.9419 26.8576 51.9885 27.0228 51.9885C27.1306 51.9885 27.2527 51.9654 27.389 51.9191C27.5255 51.8725 27.6691 51.7918 27.8201 51.6773C28.1146 51.5629 28.3301 51.4876 28.4665 51.4517C28.6676 51.4161 28.8688 51.3766 29.0698 51.3336C29.1488 51.384 29.2871 51.6041 29.4846 51.9922C29.682 52.3823 29.7809 52.6382 29.7809 52.758C29.7809 52.7724 29.7791 52.7849 29.7755 52.7956C29.7719 52.8063 29.7665 52.8152 29.7592 52.8225C29.6946 52.9139 29.6281 53.007 29.5601 53.098C29.4917 53.1914 29.4361 53.2897 29.3931 53.3954C29.1846 53.4453 28.955 53.4702 28.7034 53.4702C28.4307 53.4702 28.1898 53.438 27.9816 53.3737C27.7734 53.3077 27.5471 53.1947 27.3028 53.0304C27.152 53.1591 26.9832 53.2647 26.7964 53.347C26.6098 53.4291 26.4266 53.4702 26.2469 53.4702C26.0819 53.4702 25.9131 53.4346 25.7406 53.363C25.5682 53.2917 25.396 53.1806 25.2234 53.0304C25.0942 53.1947 24.9539 53.3145 24.8034 53.39C24.6524 53.4649 24.498 53.5026 24.3401 53.5026C24.031 53.5026 23.7834 53.4095 23.5967 53.2237C23.7618 53.5811 24.031 53.7602 24.4046 53.7602C24.6847 53.7602 24.947 53.6207 25.1911 53.3414C25.3635 53.4667 25.5414 53.5636 25.7243 53.6296C25.9076 53.6958 26.0747 53.7281 26.2254 53.7281C26.4193 53.7281 26.6026 53.6958 26.7748 53.6296C26.9473 53.5636 27.1161 53.4667 27.2812 53.3414C27.7698 53.6636 28.2439 53.8248 28.7034 53.8248C29.1488 53.8248 29.5835 53.6636 30.0071 53.3414C30.3663 53.6636 30.6968 53.8248 30.9983 53.8248C31.1636 53.8248 31.3233 53.7838 31.4778 53.7012C31.6322 53.6189 31.7994 53.499 31.9787 53.3414Z" fill="#FEFEFE"/>
<path d="M38.3375 11.6189C38.3504 11.6124 38.3648 11.6076 38.3806 11.6044C38.3964 11.6012 38.4139 11.5996 38.4328 11.5996C38.5472 11.5996 38.6551 11.6487 38.7567 11.7473C38.8584 11.8457 38.928 11.9709 38.9661 12.1235C38.9791 12.1933 38.9885 12.2442 38.9947 12.2761C39.0012 12.3076 39.0043 12.3396 39.0043 12.3712C39.0043 12.6442 38.9027 12.8157 38.6994 12.8853H38.5946C38.4805 12.8853 38.3727 12.8376 38.2711 12.7393C38.1694 12.6424 38.0965 12.517 38.052 12.3665L38.0233 12.1394C38.0233 11.8424 38.128 11.6695 38.3375 11.6189ZM40.4265 13.7363C40.5029 13.8694 40.5679 14.0313 40.625 14.222C40.682 14.4124 40.7394 14.5965 40.7949 14.7747C40.8773 14.908 40.9185 15.0346 40.9185 15.1554C40.9185 15.2761 40.8854 15.336 40.8172 15.336C40.7679 15.336 40.714 15.2998 40.6551 15.2269C40.5966 15.1535 40.5663 15.0823 40.5663 15.0127V14.8221C40.5156 14.676 40.4629 14.5457 40.4092 14.4313C40.3552 14.3171 40.2805 14.1681 40.1853 13.9838C40.1535 13.9267 40.0645 13.841 39.9185 13.7266C39.7472 13.5935 39.6424 13.5013 39.6045 13.4506C39.674 13.6284 39.8073 13.9649 40.0043 14.4602C40.0677 14.6313 40.1313 14.7616 40.195 14.8505C40.2965 14.9968 40.3552 15.2728 40.3709 15.6791C40.3869 16.0855 40.4155 16.3599 40.4567 16.5031C40.4981 16.6458 40.7868 16.8157 41.3234 17.0127C41.86 17.2091 42.1282 17.3269 42.1282 17.3649V18.0791C42.1282 18.1556 42.0775 18.1934 41.9757 18.1934C41.8996 18.1934 41.8583 18.1587 41.8521 18.0887L41.7854 17.5839C41.7854 17.5713 41.5108 17.4841 40.9615 17.3221C40.4123 17.1602 40.1217 17.0602 40.09 17.0221C40.0329 16.965 39.9647 16.8412 39.8854 16.6504C39.8059 16.46 39.7219 16.2317 39.633 15.9649C39.5946 16.111 39.5408 16.2886 39.4709 16.4982C39.3124 16.9554 39.2329 17.2091 39.2329 17.2602C39.2456 17.4063 39.268 17.6936 39.2997 18.1235C39.3313 18.5537 39.3472 18.8347 39.3472 18.9665C39.3472 19.0298 39.3455 19.0713 39.3424 19.0933C39.3393 19.1158 39.3313 19.1363 39.3186 19.1556H38.5092C38.4265 19.1556 38.3854 19.1126 38.3854 19.0265C38.3854 18.9539 38.4139 18.9174 38.4708 18.9174L38.9758 18.8794C38.9758 18.6761 38.9439 18.4284 38.8806 18.1363C38.817 17.8444 38.7504 17.5427 38.6805 17.2317C38.6805 17.0473 38.728 16.7679 38.8232 16.3933C39.0201 15.6061 39.125 15.1901 39.1376 15.1458C38.9217 14.676 38.7917 14.3871 38.7472 14.2793C38.7026 14.1713 38.671 14.0441 38.652 13.8981C38.6328 13.949 38.6041 14.071 38.5661 14.265C38.5281 14.4584 38.4867 14.5824 38.4424 14.6364C38.398 14.6904 38.2408 14.7379 37.971 14.7791C37.701 14.8203 37.5329 14.8553 37.4661 14.8839C37.3994 14.9126 37.3329 14.9347 37.2661 14.9504C37.1996 14.9665 37.1441 14.9743 37.0994 14.9743C36.9915 14.9743 36.9376 14.9428 36.9376 14.8792C36.9376 14.8221 36.9805 14.768 37.0663 14.7173C37.152 14.6667 37.274 14.641 37.4328 14.641C37.5219 14.641 37.6582 14.603 37.8425 14.5266C37.9567 14.4759 38.0773 14.4154 38.2043 14.346C38.2298 14.1237 38.2569 13.9028 38.2852 13.6838C38.3138 13.4649 38.3679 13.3173 38.4471 13.2411C38.5265 13.1647 38.6455 13.0887 38.8043 13.0124C39.0074 12.9174 39.1853 12.8696 39.3377 12.8696C39.4646 12.8696 39.6503 12.9617 39.8964 13.1458C40.1423 13.3298 40.3186 13.5268 40.4265 13.7363ZM39.871 19.1076C39.598 19.0444 39.4613 18.8777 39.4613 18.6078V18.4728C39.4933 18.3458 39.5583 18.2427 39.6535 18.1665C39.7504 18.0887 39.8616 18.0506 39.9901 18.0506H40.1059C40.2329 18.0823 40.3361 18.1457 40.4123 18.2411C40.4899 18.3365 40.5283 18.4477 40.5283 18.5744V18.6984C40.4519 18.9714 40.2742 19.1076 39.9949 19.1076H39.871Z" fill="#FEFEFE"/>
<path d="M13.4228 32.5245C13.4228 32.429 13.4735 32.3466 13.575 32.2766C13.6768 32.2067 13.8004 32.1624 13.9465 32.1433H14.0702C14.1972 32.1433 14.3083 32.1719 14.4035 32.2275C14.4988 32.2846 14.5466 32.3497 14.5466 32.4241C14.5466 32.513 14.4988 32.5912 14.4035 32.6592C14.3083 32.7289 14.1813 32.7718 14.0228 32.7912H13.918C13.7783 32.7912 13.6641 32.7685 13.575 32.7229C13.4861 32.6767 13.4355 32.61 13.4228 32.5245ZM12.1369 27.583C12.067 27.464 12.0322 27.3767 12.0322 27.3209C12.0322 27.3082 12.0368 27.2989 12.0465 27.2925C12.0559 27.2861 12.067 27.2798 12.0798 27.2734C12.1496 27.2734 12.2624 27.3352 12.418 27.4592C12.5734 27.583 12.721 27.7306 12.8607 27.9003C13.1655 28.0846 13.5338 28.3385 13.9654 28.6608C14.3402 28.94 14.6641 29.1924 14.9369 29.421C15.0832 29.5463 15.2292 29.6703 15.3751 29.7911C15.5084 29.7147 15.7163 29.651 15.999 29.6003C16.2815 29.5495 16.5941 29.4954 16.9371 29.4383C16.7529 29.2989 16.5973 29.1623 16.4705 29.0291C16.2418 28.7433 16.0322 28.4958 15.8418 28.2861C15.7973 28.2351 15.7465 28.2099 15.6894 28.2099H15.6514C15.6068 28.1908 15.5782 28.1749 15.5655 28.1624L15.1846 27.5605C15.1086 27.4335 15.0702 27.3512 15.0702 27.313C15.0894 27.2875 15.1054 27.2734 15.118 27.2734C15.1878 27.2734 15.3179 27.3557 15.5115 27.5177C15.7037 27.6799 15.8513 27.84 15.9528 27.9986C16.3514 28.2847 16.702 28.5671 17.0054 28.8466C17.3783 29.1831 17.5657 29.4145 17.5657 29.5418V29.5893C17.3926 29.8052 17.1069 29.9799 16.7085 30.113C16.3751 30.2209 16.0418 30.326 15.7085 30.4274V30.4847C15.7401 30.694 15.7704 30.8986 15.799 31.0989C15.8275 31.2987 15.8418 31.4752 15.8418 31.6276C15.8418 31.8749 15.8068 32.1146 15.737 32.3466C15.6689 32.5786 15.5465 32.8007 15.3751 33.01V33.2291C15.3751 33.3434 15.3924 33.664 15.4291 34.1909C15.4435 34.4004 15.4513 34.5944 15.4513 34.7718C15.4513 34.9623 15.4353 35.1531 15.4035 35.3434C15.4035 35.4258 15.3751 35.4674 15.3179 35.4674H14.7942C14.7622 35.4674 14.7368 35.4643 14.718 35.4577C14.6988 35.4513 14.6799 35.4419 14.6609 35.4289C14.6988 35.4038 14.7339 35.3878 14.7656 35.3815C14.8673 35.3497 15.0006 35.3337 15.1655 35.3337C15.1086 35.099 15.0354 34.526 14.9465 33.6179C14.9085 33.2354 14.8768 33.0198 14.8513 32.9688C14.7561 32.7846 14.7085 32.6163 14.7085 32.4641C14.7085 32.3291 14.7752 32.0876 14.9085 31.7386C14.972 31.5737 15.0036 31.4433 15.0036 31.348V31.2145C14.9895 31.1689 14.9369 31.0673 14.8465 30.9082C14.7546 30.7495 14.7085 30.6101 14.7085 30.4893C14.7085 30.3942 14.7306 30.2987 14.7752 30.2034C14.572 30.0386 14.3782 29.8482 14.194 29.6355C14.0101 29.4228 13.8607 29.2274 13.7467 29.0497C13.3465 28.7812 13.1307 28.6353 13.0987 28.6098C12.9844 28.5147 12.8607 28.391 12.7274 28.2382C12.7083 28.232 12.6846 28.2274 12.6558 28.2241C12.6273 28.221 12.6035 28.2163 12.5845 28.2099C12.5402 28.2099 12.5083 28.1972 12.4894 28.1717L12.1369 27.583Z" fill="#FEFEFE"/>
<path fill-rule="evenodd" clip-rule="evenodd" d="M9.6104 40.3008C9.53756 40.3008 9.47835 40.3559 9.47835 40.4239C9.47835 40.492 9.53756 40.5474 9.6104 40.5474C9.68354 40.5474 9.74276 40.492 9.74276 40.4239C9.74276 40.3559 9.68354 40.3008 9.6104 40.3008Z" fill="#FEFEFE"/>
<path fill-rule="evenodd" clip-rule="evenodd" d="M11.2219 41.8237C11.2809 41.8237 11.3288 41.8721 11.3288 41.931C11.3288 41.9899 11.2809 42.0378 11.2219 42.0378C11.1627 42.0378 11.115 41.9899 11.115 41.931C11.115 41.8721 11.1627 41.8237 11.2219 41.8237Z" fill="#FEFEFE"/>
<path fill-rule="evenodd" clip-rule="evenodd" d="M11.3225 38.8403C11.3816 38.8403 11.4295 38.8884 11.4295 38.9474C11.4295 39.0063 11.3816 39.0544 11.3225 39.0544C11.2635 39.0544 11.2155 39.0063 11.2155 38.9474C11.2155 38.8884 11.2635 38.8403 11.3225 38.8403Z" fill="#FEFEFE"/>
<path fill-rule="evenodd" clip-rule="evenodd" d="M9.7237 38.2358C9.78291 38.2358 9.83078 38.284 9.83078 38.3432C9.83078 38.4023 9.78291 38.4502 9.7237 38.4502C9.66464 38.4502 9.61677 38.4023 9.61677 38.3432C9.61677 38.284 9.66464 38.2358 9.7237 38.2358Z" fill="#FEFEFE"/>
<path fill-rule="evenodd" clip-rule="evenodd" d="M8.13748 41.5845C8.19661 41.5845 8.24457 41.6327 8.24457 41.6917C8.24457 41.7509 8.19661 41.7988 8.13748 41.7988C8.07842 41.7988 8.03047 41.7509 8.03047 41.6917C8.03047 41.6327 8.07842 41.5845 8.13748 41.5845Z" fill="#FEFEFE"/>
<path fill-rule="evenodd" clip-rule="evenodd" d="M9.71118 42.252C9.77023 42.252 9.81827 42.2997 9.81827 42.3588C9.81827 42.4179 9.77023 42.4657 9.71118 42.4657C9.65197 42.4657 9.60417 42.4179 9.60417 42.3588C9.60417 42.2997 9.65197 42.252 9.71118 42.252Z" fill="#FEFEFE"/>
<path fill-rule="evenodd" clip-rule="evenodd" d="M8.12504 38.8782C8.18394 38.8782 8.23189 38.926 8.23189 38.9851C8.23189 39.044 8.18394 39.0922 8.12504 39.0922C8.06598 39.0922 8.01795 39.044 8.01795 38.9851C8.01795 38.926 8.06598 38.8782 8.12504 38.8782Z" fill="#FEFEFE"/>
<path fill-rule="evenodd" clip-rule="evenodd" d="M25.0283 15.1136C25.0083 15.0219 25.0086 15.0603 25.0862 15.0239C25.0648 15.1884 25.0947 14.998 25.0283 15.1136ZM24.7004 14.9214C24.6977 15.228 24.6105 15.4815 24.3498 15.6648C23.6413 16.1625 23.5924 14.8888 24.0045 14.6145C24.1542 14.5146 24.3016 14.3765 24.5402 14.4671C24.6752 14.5188 24.7017 14.7703 24.7004 14.9214ZM25.2006 14.6926C25.2102 14.5918 25.1917 14.63 25.2525 14.5826C25.2518 14.6174 25.2655 14.6029 25.2503 14.6386C25.2291 14.6873 25.2448 14.6537 25.2006 14.6926ZM23.4652 14.9826C23.4634 14.9212 23.4563 14.9475 23.482 14.9048C23.4825 14.9052 23.5176 14.8986 23.5066 14.9485C23.4943 15.0049 23.4945 14.9519 23.4652 14.9826ZM25.3291 14.5424C25.2954 14.4498 25.3213 14.5096 25.3294 14.4781C25.3313 14.4819 25.3439 14.476 25.341 14.511C25.3406 14.5159 25.3291 14.5422 25.3291 14.5424ZM24.8535 14.4389C24.8385 14.3354 24.8151 14.2822 24.7693 14.2092C24.7896 14.1586 24.813 14.1081 24.9002 14.1066C24.8933 14.2355 24.8526 14.3029 24.8876 14.4639C25.1168 14.367 24.905 14.097 25.0755 13.9959C25.0371 14.0945 24.9886 14.2433 25.0596 14.3527C25.1706 14.3679 25.1376 14.3225 25.21 14.2972C25.2878 14.2696 25.3031 14.3121 25.356 14.1948C25.429 14.0321 25.3654 13.9232 25.2689 13.84C25.1265 13.8738 25.2029 13.9106 25.0776 13.9155C24.9825 13.9191 24.9611 13.9667 24.9352 14.0335C24.6822 14.0188 24.8231 14.0685 24.6113 14.2103L24.6192 14.3745L24.4583 14.3592L24.511 14.2826C24.5287 14.2585 24.5194 14.2751 24.5354 14.2469C24.5496 14.2218 24.5396 14.2332 24.553 14.2073C24.6078 14.101 24.642 14.1489 24.5881 14.0297C24.3976 14.0039 24.4009 14.1 24.288 14.157C24.2789 14.0497 24.342 14.0663 24.4395 14.0139C24.6861 13.8811 24.5575 13.7296 24.3239 13.9189C24.2252 13.9987 24.2757 14.0312 24.1485 14.0207C24.1519 13.8766 24.2521 13.7203 24.4211 13.6957C24.3908 13.7618 24.3961 13.7412 24.4231 13.7914C24.4772 13.7688 24.4843 13.7833 24.4961 13.7214C24.5454 13.4678 23.9757 13.7319 24.098 14.0797L24.2043 14.111C24.199 14.1613 24.2002 14.2219 24.1972 14.266C24.1869 14.4171 24.1915 14.2883 24.2386 14.3895L23.8972 14.528C23.9283 14.4081 24.1522 14.3289 24.0872 14.2007C24.0628 14.1785 24.0276 14.1975 24.0027 14.2157C23.9249 14.2714 23.8933 14.3903 23.8164 14.4477C23.8037 14.237 23.9524 14.2371 24.0287 14.1C24.0232 13.9726 24.0343 14.1068 24.0096 14.0517C23.9484 13.9147 24.0183 13.988 23.9536 13.884C23.7325 13.9498 23.6769 14.217 23.6228 14.2678C23.5844 14.2219 23.6078 14.1358 23.6288 14.0711C23.6542 13.9942 23.6717 13.9525 23.76 13.9179C23.8014 13.8765 23.7079 13.9082 23.7694 13.9214C23.8467 13.9384 23.8613 13.8854 23.8072 13.8459C23.6131 13.7876 23.4754 14.193 23.5466 14.3087C23.6195 14.427 23.707 14.2425 23.7462 14.3752C23.7754 14.4733 23.6909 14.4186 23.6146 14.4184C23.5027 14.4178 23.6046 14.4403 23.5043 14.3645C23.4095 14.3955 23.394 14.4511 23.3701 14.5319C23.2973 14.5071 23.3358 14.4959 23.2632 14.4991C23.1547 14.643 23.2978 14.5342 23.0989 14.6584C23.0743 14.8503 23.0785 15.0333 23.2796 15.0776C23.3613 15.0954 23.3124 15.0866 23.3701 15.0638C23.5052 15.0107 23.4695 15.1007 23.595 15.0092C23.6804 14.9466 23.6043 14.9718 23.7017 14.93C23.7002 15.1502 23.5751 15.3283 23.7125 15.6055C23.987 16.1582 24.5516 15.7025 24.7104 15.3916C24.8546 15.1095 24.7156 14.9147 24.9809 14.9093C25.0214 14.9084 25.0103 14.9082 25.0343 14.9161C24.9984 14.9877 24.887 15.0251 24.9718 15.1859C25.0594 15.1944 25.0583 15.1623 25.144 15.2064C25.2148 15.2433 25.2366 15.2505 25.3446 15.228C25.5598 14.8825 25.2425 14.9109 25.0461 14.8361C24.9276 14.7911 24.9187 14.8514 24.8212 14.89C24.8041 14.7762 24.8144 14.8845 24.8335 14.8363L24.8968 14.6774C24.9422 14.6022 24.9763 14.5786 25.0407 14.5125C25.0283 14.5611 24.9814 14.6703 24.9916 14.7232C25.0072 14.8028 25.0082 14.7948 25.1372 14.8025C25.1932 14.8059 25.1931 14.8106 25.2521 14.8067C25.2821 14.7659 25.3026 14.7118 25.3274 14.6566C25.385 14.7205 25.3303 14.7044 25.4063 14.7553L25.4859 14.693C25.7191 14.4885 25.4095 14.3474 25.2978 14.3927C25.2245 14.4225 25.2518 14.4462 25.1584 14.4381C25.0896 14.4316 25.0692 14.4023 24.9893 14.4455C24.9191 14.4835 24.8194 14.6182 24.8021 14.6618C24.7655 14.6017 24.728 14.5556 24.722 14.478C24.7939 14.493 24.8162 14.4805 24.8535 14.4389ZM23.7234 14.851C23.7459 14.7422 23.7835 14.6623 23.7721 14.5266C23.7964 14.5488 23.7732 14.5219 23.8064 14.5663L23.8498 14.6279C23.8501 14.6251 23.856 14.6347 23.8587 14.6386C23.8151 14.7157 23.7883 14.7844 23.7234 14.851ZM23.5753 14.857C23.5487 14.744 23.5643 14.6678 23.5999 14.5886C23.6195 14.7153 23.647 14.7748 23.5753 14.857ZM23.2024 14.9689C23.1324 14.8827 23.1306 14.7962 23.1774 14.7102L23.2024 14.9689ZM23.3028 14.7663C23.2961 14.6711 23.2472 14.7319 23.2866 14.5847C23.4053 14.6559 23.3458 14.8403 23.3141 14.8903C23.2875 14.9325 23.3165 14.8941 23.2727 14.9323C23.2491 14.8322 23.3082 14.8406 23.3028 14.7663ZM24.762 14.3151C24.7746 14.3809 24.7851 14.3352 24.7569 14.3895C24.7365 14.352 24.7441 14.3534 24.762 14.3151ZM23.4413 14.7821C23.4195 14.6495 23.4324 14.5301 23.4945 14.4468C23.5482 14.516 23.4784 14.7228 23.4413 14.7821ZM25.1854 14.0128C25.2079 13.9848 25.2252 13.9502 25.2707 13.9352C25.3492 14.0638 25.2887 14.1381 25.2416 14.2085C25.1932 14.1529 25.2107 14.1056 25.1854 14.0128Z" fill="#FEFEFE"/>
<path fill-rule="evenodd" clip-rule="evenodd" d="M24.485 17.2216L24.576 17.4281C24.4913 17.4156 24.427 17.3651 24.3355 17.3462L24.4074 17.2773C24.4418 17.2534 24.4538 17.245 24.485 17.2216ZM24.1215 17.1579C24.1117 17.1783 24.0767 17.1785 24.1376 17.2441C24.265 17.2175 24.2466 17.1824 24.3464 17.1489C24.3292 17.1781 24.3155 17.1888 24.2964 17.2213C24.2806 17.2482 24.2958 17.2252 24.2798 17.2589C24.2596 17.3019 24.2793 17.2752 24.2513 17.3093C24.1113 17.2363 23.9276 17.2397 23.8292 17.192C23.8802 17.1452 23.8839 17.1888 23.9497 17.161C23.9866 17.1456 23.9945 17.1126 24.0554 17.0939C24.0531 17.0982 24.0087 17.0969 24.0537 17.1424C24.086 17.1751 24.0364 17.1669 24.1215 17.1579ZM23.239 17.2554C23.2454 17.2333 23.239 17.2309 23.2607 17.2147C23.3 17.1854 23.2748 17.2052 23.3009 17.1954L23.239 17.2554ZM23.0387 17.2611C23.0705 17.1585 23.0671 17.1445 23.1908 17.1101L23.0387 17.2611ZM24.3417 16.7773C24.3653 16.8552 24.4372 16.9786 24.4068 17.0487C24.3612 17.0446 24.388 17.0667 24.3728 17.0291L24.3654 16.986C24.364 16.9815 24.3615 16.976 24.3601 16.9709C24.3458 16.9223 24.3637 16.9998 24.3487 16.9408L24.3316 16.8615L24.2321 16.88C24.3137 16.7898 24.2635 16.8255 24.3417 16.7773ZM24.1779 16.3719C24.2127 16.3555 24.2024 16.3689 24.2234 16.369L24.3257 16.7475C24.2093 16.7334 24.2035 16.7973 24.1019 16.8446C24.168 16.7809 24.242 16.75 24.2748 16.6506C24.2139 16.6173 24.225 16.6283 24.1509 16.6449C24.1835 16.6242 24.2072 16.5907 24.2357 16.5686C24.2 16.5038 24.2346 16.5308 24.168 16.4923C24.1051 16.4564 24.104 16.4884 24.0896 16.4656C24.0851 16.4585 24.0772 16.4634 24.071 16.4617L24.1779 16.3719ZM23.3501 16.9137C23.4827 16.8314 23.6984 16.6385 23.9106 16.5034L23.4024 16.9588C23.3765 16.9406 23.368 16.931 23.3501 16.9137ZM23.3767 16.6583C23.5403 16.6754 23.4457 16.6524 23.6854 16.5061C23.6083 16.5815 23.5116 16.6655 23.4306 16.7474C23.3809 16.7971 23.3358 16.8239 23.3021 16.866C23.242 16.941 23.2957 16.8967 23.265 16.943C23.2473 16.9695 23.2218 16.9792 23.1897 16.9934C23.248 16.8845 23.3328 16.7712 23.3767 16.6583ZM24.0373 16.2777C24.1429 16.2006 24.0962 16.1995 24.0523 16.1387C24.092 16.1 24.0546 16.1365 24.0771 16.0989C24.0785 16.0964 24.0843 16.0926 24.0844 16.0859C24.0846 16.0793 24.0891 16.0773 24.0931 16.0719L24.1761 16.2522L23.818 16.4712C23.863 16.4235 23.894 16.3904 23.9531 16.3414C23.9861 16.3137 24.0021 16.3029 24.0373 16.2777ZM22.9195 17.3656C23.0011 17.3956 23.6215 17.2548 23.8774 17.3137C24.0216 17.3471 24.1395 17.3671 24.2713 17.4144C24.405 17.462 24.5437 17.5694 24.636 17.5801L24.7007 17.5078C24.6843 17.4078 24.5716 17.1751 24.5296 17.0541C24.4754 16.8976 24.4247 16.7274 24.3763 16.5673C24.3209 16.3837 24.2834 16.265 24.2107 16.0955C24.1649 15.9889 24.1595 15.9802 24.0407 15.986C23.7937 15.9977 23.8472 16.0008 23.5551 16.3507L23.3055 16.6633C23.2234 16.7749 23.175 16.8942 23.0943 17.0022C23.0379 17.0778 22.8854 17.2805 22.9195 17.3656Z" fill="#FEFEFE"/>
<path fill-rule="evenodd" clip-rule="evenodd" d="M20.3169 15.9755C20.2824 15.9109 20.2865 15.7783 20.2821 15.6963C20.3765 15.7103 20.5127 15.7937 20.5755 15.8722C20.5583 15.8899 20.5709 15.883 20.5377 15.9013L20.3169 15.9755ZM20.9846 15.6825C20.982 15.6868 20.9746 15.687 20.9743 15.6941C20.9731 15.7071 20.927 15.7157 20.9151 15.8067C20.8932 15.9771 20.9229 16.0224 20.6126 16.155C20.3091 16.2845 20.3485 16.2143 20.1576 16.1937C20.0687 16.1841 20.0545 16.2355 20.0641 16.049C20.143 16.057 20.0951 16.049 20.1458 16.0854C20.1906 16.1175 20.2247 16.1809 20.3864 16.1561C20.4865 16.1407 20.6513 16.062 20.722 16.0049C21.0325 15.7546 20.6756 15.6011 20.8357 15.607C20.871 15.6081 20.956 15.6575 20.9846 15.6825ZM20.2043 15.7603C20.1082 15.7876 20.0246 15.8093 20.0043 15.6991C19.9877 15.6102 20.0418 15.5756 20.1216 15.5567C20.217 15.6099 20.2369 15.647 20.2043 15.7603ZM20.3045 15.4536C20.3402 15.4289 20.3851 15.404 20.4384 15.3899L20.5038 15.4361C20.535 15.5318 20.5516 15.6195 20.4278 15.6268C20.3362 15.6323 20.3109 15.5417 20.3045 15.4536ZM21.0743 15.8957C21.1117 15.4976 20.7848 15.2507 20.502 15.2378C20.4057 15.2333 20.2625 15.2581 20.1976 15.2915C20.0511 15.3654 19.8437 15.6586 19.8179 15.812C19.6617 16.7356 21.0072 16.6026 21.0743 15.8957Z" fill="#FEFEFE"/>
<path fill-rule="evenodd" clip-rule="evenodd" d="M21.5975 18.5774C21.5969 18.5388 21.6023 18.5161 21.6139 18.4807C21.6376 18.4094 21.6151 18.4503 21.6612 18.4017L21.7049 18.5257L21.5975 18.5774ZM21.3994 18.7729C21.4565 18.7782 21.7714 18.6125 21.8305 18.5584C21.7796 18.4103 21.6212 18.2236 21.6102 18.0344L21.8892 17.9754L22.0731 18.4675C22.1439 18.4868 22.1622 18.4565 22.1787 18.4493C22.2159 18.4338 22.2573 18.4245 22.2687 18.4163C22.3328 18.369 22.2711 18.3369 22.3526 18.3214C22.3526 18.3214 22.4126 18.3219 22.4308 18.3189C22.4249 18.2862 22.2286 17.6183 22.1784 17.575C22.1342 17.537 21.9254 17.4821 21.8596 17.4645C21.685 17.4174 21.7174 17.3426 21.5537 17.5168C21.4829 17.5923 21.1756 17.9675 21.1554 18.0209C21.1192 18.1174 21.2142 18.2971 21.2639 18.3853C21.3409 18.5214 21.3457 18.6463 21.3994 18.7729Z" fill="#FEFEFE"/>
<path fill-rule="evenodd" clip-rule="evenodd" d="M21.2479 17.5251L21.2948 17.5978L21.2011 17.7184L21.2479 17.5251ZM21.3712 17.4754L21.4281 17.2868C21.4481 17.3821 21.4374 17.4228 21.3712 17.4754ZM21.0406 17.9249C21.0072 17.8423 20.9417 17.7172 20.9418 17.639C21.0357 17.6528 20.8944 17.6934 21.058 17.6474L21.1861 17.2029C21.1763 17.4706 21.0875 17.6511 21.0748 17.7803C21.0648 17.8814 21.1189 17.8858 21.0406 17.9249ZM21.1449 16.5744L21.4417 17.0196C21.3858 17.028 21.3692 16.9515 21.3066 17.0157C21.2782 16.9026 21.2646 16.9599 21.2409 16.8866C21.2259 16.8398 21.2349 16.7962 21.2052 16.72C21.0762 16.7707 21.0639 16.9543 21.0191 17.076C21.0009 17.126 20.9929 17.1631 20.9674 17.21C20.9838 17.03 21.0914 16.7603 21.1449 16.5744ZM20.8361 17.4095C20.7804 17.275 20.7983 17.2156 20.891 17.0409L20.9267 16.9888C20.9172 17.1215 20.8444 17.3041 20.8361 17.4095ZM20.7177 17.0962C20.6676 17.0375 20.6831 17.0448 20.7124 16.9736L20.7698 16.8505C20.7593 16.9262 20.735 17.0029 20.7177 17.0962ZM21.0487 16.4538L21.1285 16.5673C20.9176 16.5055 20.9598 16.7538 20.8537 16.8969C20.8812 16.7973 20.8978 16.7634 20.9381 16.6786C21.0252 16.4972 20.9567 16.5116 21.0487 16.4538ZM20.5487 16.7817C20.5782 16.7516 20.6009 16.7272 20.6457 16.701L20.6017 16.8615L20.5487 16.7817ZM20.7242 16.6769C20.7009 16.6185 20.7038 16.6483 20.7594 16.6249C20.7495 16.7024 20.7554 16.6588 20.7242 16.6769ZM21.0678 18.1232C21.1298 18.0846 21.0802 18.1069 21.1212 17.9979C21.1367 17.9561 21.162 17.9286 21.187 17.888C21.2427 17.7975 21.2677 17.7488 21.3362 17.6628C21.5148 17.44 21.4242 17.5089 21.6146 17.3874L21.6692 17.3367C21.6817 17.3236 21.7032 17.3021 21.7184 17.2866C21.6976 17.2286 21.6581 17.1617 21.6208 17.1037C21.5926 17.0605 21.5962 17.0706 21.5721 17.0227C21.5277 16.9347 21.5802 16.9932 21.5102 16.9362C21.3954 16.8432 21.3632 16.7525 21.2718 16.6255C21.0011 16.2499 21.1113 16.2977 20.6792 16.5916C20.426 16.7634 20.4979 16.7747 20.7176 17.3058C20.7735 17.4415 20.8209 17.6188 20.8803 17.7268C20.9413 17.838 20.9636 17.9279 20.9986 18.0354C21.032 18.138 20.9891 18.1005 21.0678 18.1232Z" fill="#FEFEFE"/>
<path fill-rule="evenodd" clip-rule="evenodd" d="M23.8389 15.0367L24.0028 15.0066C23.9914 15.094 23.9853 15.0466 23.9402 15.1179C23.8739 15.223 23.9081 15.4491 23.9639 15.5648C24.0899 15.6031 24.1529 15.5775 24.2309 15.4827C24.352 15.3356 24.3112 15.2803 24.3472 15.2152C24.4198 15.2439 24.4483 15.2535 24.4798 15.3356C24.2545 15.5176 24.4019 15.4464 24.2869 15.5546C24.0857 15.7438 23.8537 15.6781 23.8309 15.3527C23.8271 15.2994 23.8351 15.0441 23.8389 15.0367ZM24.137 14.9523C24.156 14.9163 24.2694 14.7532 24.2923 14.7519C24.3431 14.7486 24.3963 15.0055 24.4008 15.0641C24.2871 15.0756 24.2325 15.0105 24.137 14.9523ZM24.4761 14.6213C24.5241 14.6638 24.5435 14.7552 24.4634 14.7591C24.3729 14.7634 24.3953 14.6688 24.4761 14.6213ZM24.1487 14.6419C24.207 14.4388 24.4252 14.6086 24.2284 14.7249C24.1767 14.7011 24.1784 14.7119 24.1487 14.6419ZM24.7004 14.9213C24.7016 14.7701 24.6752 14.5187 24.5402 14.467C24.3016 14.3764 24.1542 14.5145 24.0045 14.6144C23.5924 14.8886 23.6413 16.1623 24.3498 15.6647C24.6105 15.4814 24.6977 15.2279 24.7004 14.9213Z" fill="#FEFEFE"/>
<path fill-rule="evenodd" clip-rule="evenodd" d="M21.0743 15.8957C21.0072 16.6026 19.6617 16.7357 19.8179 15.812C19.8437 15.6586 20.0511 15.3654 20.1976 15.2916C20.2625 15.2582 20.4057 15.2334 20.502 15.2379C20.7848 15.2507 21.1117 15.4976 21.0743 15.8957ZM20.3864 14.5305C20.4149 14.6227 20.4151 14.5867 20.4677 14.6431C20.4406 14.702 20.4435 14.6952 20.3944 14.74C20.4657 14.9084 20.4208 14.7553 20.3961 14.9016L20.4781 14.9636C20.4156 15.0637 20.3537 15.0203 20.432 15.1388C20.3072 15.1586 20.2517 15.1879 20.1301 15.1773L20.1598 14.9512L20.085 14.8942C20.0334 14.8064 20.1337 14.8165 19.9913 14.7996C20.0124 14.7553 20.0506 14.7377 20.0197 14.6963C19.9508 14.6044 19.8358 14.8729 19.84 14.9256C19.8462 14.9298 19.8317 14.9638 19.9613 14.9194L19.952 15.0301L20.0534 15.0419C19.9886 15.3296 20.0061 15.1481 19.8988 15.289C19.9215 15.3561 19.9443 15.3283 19.9938 15.3478C19.9349 15.3884 19.9305 15.3984 19.9054 15.456C19.8594 15.4225 19.9008 15.4675 19.8692 15.4168C19.8602 15.4025 19.8502 15.3716 19.8443 15.3571L19.7167 15.4123C19.7122 15.282 19.7281 15.2348 19.581 15.3089C19.5823 15.2094 19.6272 15.1732 19.5764 15.0867C19.5015 15.1199 19.4952 15.242 19.4866 15.3216C19.4695 15.4825 19.5193 15.4429 19.6344 15.4104C19.6501 15.4921 19.6289 15.5034 19.676 15.5774C19.7452 15.5613 19.7563 15.5246 19.7962 15.5312C19.843 15.6887 19.6729 15.7014 19.58 15.763C19.5609 15.6783 19.5732 15.6939 19.5238 15.6481C19.4126 15.689 19.4474 15.7319 19.3743 15.7996L19.3252 15.6509C19.1906 15.6793 19.0907 15.9372 19.287 15.806L19.3492 15.9529C19.4661 15.9122 19.4095 15.8811 19.4956 15.8162L19.5361 15.8613C19.5871 15.915 19.5065 15.8765 19.5975 15.9132C19.7133 15.846 19.6219 15.8165 19.7265 15.7849C19.6485 16.0812 19.8 16.3729 20.0668 16.5078C20.4142 16.6838 21.4228 16.3808 21.1239 15.5847C21.0544 15.3994 20.8631 15.2514 20.6861 15.1902C20.5561 15.146 20.6002 15.1718 20.5298 15.0596L20.5848 14.9666C20.5532 14.914 20.5562 14.9097 20.5117 14.8874C20.5438 14.8471 20.5617 14.8449 20.6019 14.7985C20.5782 14.7209 20.5794 14.7675 20.5272 14.7031C20.581 14.6516 20.5754 14.6875 20.5846 14.611C20.5469 14.571 20.593 14.6147 20.5448 14.5817L20.4915 14.5465C20.5179 14.5344 20.5014 14.5478 20.535 14.5297L20.5882 14.4931C20.5132 14.4194 20.4597 14.4704 20.3864 14.5305Z" fill="#FEFEFE"/>
<path fill-rule="evenodd" clip-rule="evenodd" d="M25.4916 15.9731C25.5919 15.9562 25.6056 15.9971 25.6528 15.9426C25.6406 15.9051 25.6533 15.8989 25.598 15.8876C25.5635 15.8809 25.5198 15.8927 25.4797 15.8993L25.3778 15.9066C25.459 15.7308 25.692 15.7124 25.7454 15.6539C25.7537 15.6348 25.7889 15.6796 25.7479 15.6024C25.6831 15.4812 25.3676 15.779 25.3187 15.7911C25.3499 15.7374 25.3478 15.6423 25.3826 15.5646C25.4536 15.4061 25.5465 15.5209 25.4786 15.3445C25.3717 15.3584 25.3357 15.4633 25.2834 15.6014C25.2041 15.8104 25.2375 15.7954 25.2093 15.8968C25.1747 16.0213 24.7855 16.0381 24.4862 16.2347C24.3846 16.3013 24.3561 16.3124 24.3878 16.4412C24.4832 16.4321 24.5548 16.3494 24.662 16.3008C24.771 16.2509 25.2204 16.0608 25.3091 16.112C25.4124 16.1724 25.4036 16.2629 25.5428 16.274C25.5137 16.1218 25.4136 16.1345 25.3564 16.029L25.4916 15.9731Z" fill="#FEFEFE"/>
<path fill-rule="evenodd" clip-rule="evenodd" d="M21.3087 15.3314C21.182 15.3119 21.1364 15.1817 21.0159 15.1915C21.0368 15.3346 21.1581 15.327 21.2411 15.4122C21.3083 15.4806 21.3402 15.6638 21.374 15.7732C21.4438 15.9988 21.4374 15.9873 21.3455 16.1281C21.2804 16.2283 21.0821 16.4451 21.2983 16.5066C21.3331 16.4666 21.3815 16.3114 21.4151 16.2429C21.5396 15.9866 21.4816 16.1105 21.5842 16.0195L21.4416 15.477C21.4845 15.4469 21.532 15.4115 21.5887 15.3853C21.6949 15.3357 21.7116 15.3721 21.7061 15.2725C21.6082 15.2395 21.5634 15.317 21.4554 15.354C21.469 15.1922 21.6444 15.1294 21.6239 15.0143C21.553 14.9892 21.5379 15.0303 21.5 15.0836C21.4643 15.1339 21.4331 15.176 21.4013 15.2245L21.3292 14.8794C21.1865 14.9333 21.3307 15.1266 21.3087 15.3314Z" fill="#FEFEFE"/>
<path fill-rule="evenodd" clip-rule="evenodd" d="M19.5073 16.4604C19.3954 16.5011 19.2607 16.4158 19.1826 16.479C19.2202 16.5714 19.2865 16.5303 19.4749 16.5488C19.4224 16.6533 19.1997 16.7092 19.2827 16.8095C19.3439 16.8505 19.4065 16.6845 19.5927 16.6069C19.6787 16.6629 20.005 17.0851 20.3953 17.0157C20.4781 17.0009 20.4884 16.9996 20.5061 16.934C20.4567 16.8771 20.5177 16.9121 20.4243 16.8917C20.1678 16.8355 19.9756 16.8066 19.7279 16.553C19.5764 16.3976 19.7506 16.5099 19.6374 16.1821C19.6009 16.0758 19.5991 16.06 19.5009 16.0664C19.5129 16.1528 19.5172 16.1374 19.5482 16.2117C19.5939 16.3207 19.5721 16.28 19.5698 16.3155L19.562 16.3519C19.5573 16.3491 19.5498 16.3392 19.5489 16.3426C19.5387 16.3836 19.4158 16.1185 19.3273 16.1028C19.2739 16.2015 19.4164 16.2681 19.5073 16.4604Z" fill="#FEFEFE"/>
<path fill-rule="evenodd" clip-rule="evenodd" d="M21.8005 19.0789L21.7198 19.12C21.7011 19.1021 21.7213 19.1325 21.6874 19.0859L21.6422 18.9996C21.6223 18.9549 21.6078 18.9239 21.6013 18.8827C21.6574 18.8912 21.767 19.0047 21.8005 19.0789ZM21.1994 19.5881C21.3075 19.5736 21.3062 19.5052 21.4718 19.4114C21.6579 19.3059 21.5794 19.2776 21.9309 19.1216C21.8926 19.0125 21.6815 18.8159 21.6075 18.7749C21.4945 18.8148 21.1189 19.438 21.1994 19.5881Z" fill="#FEFEFE"/>
<path fill-rule="evenodd" clip-rule="evenodd" d="M23.4213 15.3369C23.4099 15.2265 23.394 15.2493 23.3861 15.2389C23.3324 15.2724 23.3516 15.2724 23.3109 15.3183C23.3114 15.3918 23.285 15.4406 23.2579 15.5C23.1237 15.4095 23.1988 15.1631 23.0348 15.1817L23.1406 15.5594C22.9192 15.5468 22.8467 15.3963 22.7502 15.4042C22.7725 15.5669 23.0055 15.581 23.0894 15.656C23.0272 15.7243 22.8746 15.7406 22.9277 15.833C22.9328 15.8347 22.9401 15.8312 22.944 15.8367L22.9941 15.8401C23.0905 15.825 23.0585 15.771 23.2038 15.7309C23.3044 15.9069 23.4315 16.0701 23.5541 16.1998C23.6195 16.1829 23.6251 16.1842 23.6629 16.1367C23.6272 16.0837 23.5145 16.0193 23.3576 15.8051C23.2118 15.6056 23.4099 15.4976 23.4213 15.3369Z" fill="#FEFEFE"/>
<path fill-rule="evenodd" clip-rule="evenodd" d="M22.5004 18.4018C22.5106 18.4149 22.5216 18.3822 22.52 18.4346C22.5166 18.5385 22.5275 18.4426 22.4946 18.493C22.4638 18.4352 22.439 18.4352 22.5004 18.4018ZM22.1772 18.5228C22.2131 18.6099 22.4317 18.7494 22.4914 18.7671C22.5917 18.6354 22.6746 18.5108 22.8 18.3801C22.8482 18.3299 22.8874 18.3097 22.9236 18.2569L22.863 18.1252C22.6272 18.1684 22.2889 18.4587 22.1772 18.5228Z" fill="#FEFEFE"/>
<path fill-rule="evenodd" clip-rule="evenodd" d="M24.4673 18.5432C24.5162 18.5033 24.5202 18.5116 24.533 18.5592C24.4859 18.5607 24.4989 18.5607 24.4673 18.5432ZM24.4211 19.169C24.4991 19.1401 24.4846 19.1121 24.5116 19.0236C24.5337 18.9517 24.5471 18.9317 24.5787 18.8628C24.5999 18.8171 24.7273 18.5548 24.7298 18.5315C24.6904 18.487 24.5735 18.4438 24.4977 18.4349C24.2384 18.4037 24.2545 19.0604 24.4211 19.169Z" fill="#FEFEFE"/>
<path fill-rule="evenodd" clip-rule="evenodd" d="M23.6701 18.8993C23.6718 18.8206 23.6699 18.8302 23.7243 18.7771C23.7261 18.879 23.7395 18.8604 23.6701 18.8993ZM23.9576 18.8808C23.917 18.7988 23.9297 18.8497 23.8917 18.7798C23.8185 18.6457 23.8664 18.5371 23.6239 18.6553C23.4136 18.7578 23.1419 19.513 23.5476 19.1356C23.7054 18.9889 23.7302 18.9716 23.9576 18.8808Z" fill="#FEFEFE"/>
<path fill-rule="evenodd" clip-rule="evenodd" d="M23.8988 17.4347C23.8702 17.6428 24.2273 18.3232 24.3564 18.4359C24.5965 18.2829 24.3058 18.2515 24.1042 17.6674C24.0744 17.5814 24.0582 17.4699 24.0196 17.4078C23.998 17.4082 23.9866 17.4056 23.9642 17.4107L23.8988 17.4347Z" fill="#FEFEFE"/>
<path fill-rule="evenodd" clip-rule="evenodd" d="M23.6308 18.5544C23.8724 18.4828 23.6431 18.4117 23.5451 18.0089C23.5243 17.9225 23.4631 17.7452 23.457 17.6774C23.4488 17.5816 23.5755 17.4101 23.4022 17.4541C23.338 17.4704 23.3382 17.4999 23.3191 17.5633C23.3046 17.6106 23.2939 17.6473 23.2948 17.6991C23.2978 17.8426 23.568 18.4463 23.6308 18.5544Z" fill="#FEFEFE"/>
<path fill-rule="evenodd" clip-rule="evenodd" d="M23.9402 15.1179C23.9854 15.0466 23.9914 15.094 24.0028 15.0066L23.8389 15.0367C23.8351 15.0441 23.8271 15.2994 23.8309 15.3527C23.8537 15.6781 24.0857 15.7438 24.2869 15.5546C24.4019 15.4464 24.2545 15.5176 24.4798 15.3356C24.4483 15.2535 24.4198 15.2439 24.3472 15.2152C24.3112 15.2803 24.352 15.3356 24.2309 15.4827C24.1529 15.5775 24.0899 15.6031 23.9639 15.5648C23.9081 15.4491 23.8739 15.223 23.9402 15.1179Z" fill="#FEFEFE"/>
<path fill-rule="evenodd" clip-rule="evenodd" d="M20.9743 15.6941C20.9746 15.687 20.982 15.6869 20.9846 15.6825C20.956 15.6576 20.871 15.6081 20.8357 15.6071C20.6756 15.6012 21.0325 15.7547 20.722 16.005C20.6513 16.0621 20.4865 16.1408 20.3864 16.1562C20.2247 16.181 20.1906 16.1176 20.1458 16.0854C20.0951 16.0491 20.143 16.0571 20.0641 16.0491C20.0545 16.2355 20.0687 16.1842 20.1576 16.1938C20.3485 16.2143 20.3091 16.2846 20.6126 16.1551C20.9229 16.0225 20.8931 15.9772 20.9151 15.8067C20.927 15.7158 20.9731 15.7072 20.9743 15.6941Z" fill="#FEFEFE"/>
<path fill-rule="evenodd" clip-rule="evenodd" d="M21.1449 16.5745C21.0914 16.7604 20.9838 17.0301 20.9674 17.2101C20.9929 17.1631 21.0009 17.126 21.0191 17.076C21.0639 16.9544 21.0762 16.7708 21.2052 16.7201C21.2349 16.7963 21.2259 16.8398 21.2409 16.8866C21.2646 16.9599 21.2782 16.9027 21.3066 17.0157C21.3692 16.9515 21.3858 17.0281 21.4417 17.0197L21.1449 16.5745Z" fill="#FEFEFE"/>
<path fill-rule="evenodd" clip-rule="evenodd" d="M24.137 14.9524C24.2325 15.0106 24.2871 15.0757 24.4008 15.0641C24.3963 15.0055 24.3432 14.7486 24.2923 14.752C24.2694 14.7532 24.156 14.9163 24.137 14.9524Z" fill="#FEFEFE"/>
<path fill-rule="evenodd" clip-rule="evenodd" d="M20.3942 15.8665C20.3389 15.8633 20.3887 15.8801 20.3605 15.8333C20.4003 15.7968 20.3724 15.7858 20.4442 15.8368C20.442 15.8392 20.4533 15.8701 20.3942 15.8665ZM20.3169 15.9755L20.5377 15.9013C20.5709 15.8831 20.5583 15.8899 20.5755 15.8722C20.5127 15.7937 20.3765 15.7104 20.2821 15.6963C20.2865 15.7783 20.2824 15.9109 20.3169 15.9755Z" fill="#FEFEFE"/>
<path fill-rule="evenodd" clip-rule="evenodd" d="M21.0406 17.9249C21.1189 17.8857 21.0648 17.8813 21.0748 17.7803C21.0875 17.6511 21.1763 17.4705 21.1861 17.2029L21.058 17.6474C20.8944 17.6934 21.0357 17.6527 20.9418 17.6389C20.9417 17.7171 21.0072 17.8423 21.0406 17.9249Z" fill="#FEFEFE"/>
<path fill-rule="evenodd" clip-rule="evenodd" d="M20.3045 15.4536C20.3109 15.5417 20.3362 15.6323 20.4278 15.6268C20.5516 15.6195 20.535 15.5319 20.5038 15.4361L20.4384 15.3899C20.3851 15.404 20.3402 15.4289 20.3045 15.4536Z" fill="#FEFEFE"/>
<path fill-rule="evenodd" clip-rule="evenodd" d="M20.2043 15.7603C20.2369 15.647 20.217 15.6099 20.1216 15.5566C20.0418 15.5756 19.9877 15.6102 20.0043 15.6991C20.0246 15.8093 20.1082 15.7876 20.2043 15.7603Z" fill="#FEFEFE"/>
<path fill-rule="evenodd" clip-rule="evenodd" d="M24.1215 17.1578C24.0364 17.1667 24.086 17.1749 24.0537 17.1423C24.0087 17.0967 24.0531 17.098 24.0553 17.0938C23.9945 17.1125 23.9866 17.1455 23.9497 17.1608C23.8839 17.1886 23.8802 17.1451 23.8292 17.1919C23.9276 17.2395 24.1113 17.2361 24.2513 17.3091C24.2793 17.275 24.2596 17.3018 24.2798 17.2588C24.2958 17.2251 24.2805 17.2481 24.2964 17.2211C24.3155 17.1886 24.3292 17.1779 24.3464 17.1487C24.2466 17.1823 24.265 17.2174 24.1376 17.244C24.0767 17.1783 24.1117 17.1782 24.1215 17.1578Z" fill="#FEFEFE"/>
<path fill-rule="evenodd" clip-rule="evenodd" d="M24.071 16.4615C24.0772 16.4632 24.0851 16.4583 24.0896 16.4653C24.104 16.4882 24.1051 16.4561 24.168 16.4921C24.2346 16.5305 24.2 16.5035 24.2357 16.5683C24.2072 16.5905 24.1835 16.624 24.1509 16.6447C24.225 16.6281 24.2139 16.6171 24.2748 16.6504C24.242 16.7498 24.168 16.7807 24.1019 16.8444C24.2035 16.7971 24.2093 16.7332 24.3257 16.7473L24.2234 16.3688C24.2024 16.3687 24.2127 16.3553 24.1779 16.3717L24.071 16.4615Z" fill="#FEFEFE"/>
<path fill-rule="evenodd" clip-rule="evenodd" d="M23.3767 16.6583C23.3328 16.7712 23.248 16.8845 23.1897 16.9934C23.2218 16.9792 23.2473 16.9695 23.265 16.9429C23.2957 16.8967 23.242 16.941 23.3021 16.866C23.3358 16.8239 23.3809 16.7971 23.4306 16.7474C23.5116 16.6655 23.6083 16.5815 23.6854 16.5061C23.4457 16.6524 23.5403 16.6754 23.3767 16.6583Z" fill="#FEFEFE"/>
<path fill-rule="evenodd" clip-rule="evenodd" d="M23.3501 16.9137C23.368 16.931 23.3765 16.9406 23.4024 16.9588L23.9106 16.5034C23.6984 16.6385 23.4827 16.8314 23.3501 16.9137Z" fill="#FEFEFE"/>
<path fill-rule="evenodd" clip-rule="evenodd" d="M24.0523 16.1386C24.0962 16.1993 24.1429 16.2004 24.0373 16.2775C24.0021 16.3027 23.9861 16.3136 23.9531 16.3412C23.894 16.3903 23.863 16.4234 23.8179 16.471L24.1761 16.252L24.0931 16.0718C24.0891 16.0771 24.0846 16.0791 24.0844 16.0857C24.0842 16.0925 24.0785 16.0963 24.0771 16.0987C24.0546 16.1363 24.092 16.0998 24.0523 16.1386Z" fill="#FEFEFE"/>
<path fill-rule="evenodd" clip-rule="evenodd" d="M24.8535 14.439C24.8444 14.4405 24.8405 14.4402 24.8592 14.4513C24.8612 14.4527 24.8688 14.4565 24.8709 14.4577C24.8739 14.4594 24.8822 14.462 24.8876 14.4639C24.8526 14.303 24.8933 14.2355 24.9002 14.1067C24.813 14.1081 24.7896 14.1587 24.7693 14.2093C24.8151 14.2823 24.8385 14.3354 24.8535 14.439Z" fill="#FEFEFE"/>
<path fill-rule="evenodd" clip-rule="evenodd" d="M24.485 17.2214C24.4538 17.2448 24.4418 17.2532 24.4074 17.2771L24.3355 17.346C24.427 17.3649 24.4913 17.4155 24.576 17.4279L24.485 17.2214Z" fill="#FEFEFE"/>
<path fill-rule="evenodd" clip-rule="evenodd" d="M25.1854 14.0127C25.2107 14.1055 25.1932 14.1528 25.2416 14.2084C25.2887 14.138 25.3492 14.0637 25.2707 13.9351C25.2252 13.9501 25.2079 13.9847 25.1854 14.0127Z" fill="#FEFEFE"/>
<path fill-rule="evenodd" clip-rule="evenodd" d="M24.1487 14.6419C24.1784 14.712 24.1767 14.7012 24.2284 14.7249C24.4252 14.6087 24.207 14.4389 24.1487 14.6419Z" fill="#FEFEFE"/>
<path fill-rule="evenodd" clip-rule="evenodd" d="M21.7198 19.1199L21.8005 19.0788C21.767 19.0046 21.6574 18.8911 21.6013 18.8826C21.6078 18.9237 21.6223 18.9548 21.6422 18.9994L21.6874 19.0858C21.7213 19.1323 21.7011 19.102 21.7198 19.1199Z" fill="#FEFEFE"/>
<path fill-rule="evenodd" clip-rule="evenodd" d="M23.2727 14.9324C23.3165 14.8942 23.2875 14.9325 23.3141 14.8904C23.3458 14.8403 23.4053 14.656 23.2866 14.5847C23.2472 14.732 23.2961 14.6711 23.3028 14.7664C23.3082 14.8406 23.2491 14.8323 23.2727 14.9324Z" fill="#FEFEFE"/>
<path fill-rule="evenodd" clip-rule="evenodd" d="M20.8361 17.4096C20.8444 17.3041 20.9172 17.1215 20.9267 16.9888L20.891 17.0409C20.7983 17.2156 20.7804 17.275 20.8361 17.4096Z" fill="#FEFEFE"/>
<path fill-rule="evenodd" clip-rule="evenodd" d="M23.4413 14.7821C23.4784 14.7228 23.5482 14.516 23.4945 14.4468C23.4324 14.5301 23.4195 14.6495 23.4413 14.7821Z" fill="#FEFEFE"/>
<path fill-rule="evenodd" clip-rule="evenodd" d="M23.7234 14.851C23.7883 14.7844 23.8151 14.7157 23.8587 14.6387C23.856 14.6347 23.8501 14.6251 23.8498 14.628L23.8064 14.5664C23.7732 14.522 23.7964 14.5489 23.7721 14.5266C23.7835 14.6624 23.7459 14.7423 23.7234 14.851Z" fill="#FEFEFE"/>
<path fill-rule="evenodd" clip-rule="evenodd" d="M24.3654 16.9858L24.3728 17.0289C24.388 17.0666 24.3612 17.0444 24.4068 17.0485C24.4372 16.9784 24.3653 16.855 24.3417 16.7771C24.2635 16.8253 24.3137 16.7896 24.2321 16.8798L24.3316 16.8614L24.3487 16.9406C24.3637 16.9996 24.3458 16.9221 24.3601 16.9707C24.3615 16.9758 24.364 16.9813 24.3654 16.9858Z" fill="#FEFEFE"/>
<path fill-rule="evenodd" clip-rule="evenodd" d="M21.0487 16.4539C20.9567 16.5117 21.0252 16.4972 20.9381 16.6787C20.8978 16.7635 20.8812 16.7974 20.8537 16.8969C20.9598 16.7539 20.9176 16.5056 21.1285 16.5673L21.0487 16.4539Z" fill="#FEFEFE"/>
<path fill-rule="evenodd" clip-rule="evenodd" d="M24.4761 14.6213C24.3953 14.6688 24.3729 14.7634 24.4634 14.7591C24.5435 14.7552 24.5241 14.6639 24.4761 14.6213Z" fill="#FEFEFE"/>
<path fill-rule="evenodd" clip-rule="evenodd" d="M23.5753 14.857C23.647 14.7748 23.6195 14.7153 23.5999 14.5886C23.5643 14.6678 23.5487 14.7441 23.5753 14.857Z" fill="#FEFEFE"/>
<path fill-rule="evenodd" clip-rule="evenodd" d="M21.5975 18.5776L21.7049 18.5259L21.6612 18.4019C21.6151 18.4504 21.6376 18.4096 21.6139 18.4809C21.6023 18.5163 21.5969 18.5389 21.5975 18.5776Z" fill="#FEFEFE"/>
<path fill-rule="evenodd" clip-rule="evenodd" d="M23.2024 14.9689L23.1774 14.7102C23.1306 14.7962 23.1324 14.8827 23.2024 14.9689Z" fill="#FEFEFE"/>
<path fill-rule="evenodd" clip-rule="evenodd" d="M25.4916 15.9731C25.5148 15.9821 25.5483 15.9916 25.585 15.9918C25.7083 15.9925 25.6504 15.968 25.6587 15.9529C25.7166 15.8558 25.5152 15.8512 25.4797 15.8992C25.5198 15.8926 25.5635 15.8808 25.598 15.8875C25.6533 15.8988 25.6406 15.905 25.6528 15.9425C25.6056 15.997 25.5919 15.9561 25.4916 15.9731Z" fill="#FEFEFE"/>
<path fill-rule="evenodd" clip-rule="evenodd" d="M20.5487 16.7817L20.6017 16.8615L20.6457 16.7009C20.6009 16.7271 20.5782 16.7516 20.5487 16.7817Z" fill="#FEFEFE"/>
<path fill-rule="evenodd" clip-rule="evenodd" d="M21.2011 17.7185L21.2948 17.5978L21.2479 17.5251L21.2011 17.7185Z" fill="#FEFEFE"/>
<path fill-rule="evenodd" clip-rule="evenodd" d="M20.7177 17.0963C20.735 17.0029 20.7593 16.9263 20.7698 16.8506L20.7124 16.9737C20.6831 17.0449 20.6676 17.0376 20.7177 17.0963Z" fill="#FEFEFE"/>
<path fill-rule="evenodd" clip-rule="evenodd" d="M23.0387 17.2611L23.1908 17.1101C23.0671 17.1445 23.0705 17.1585 23.0387 17.2611Z" fill="#FEFEFE"/>
<path fill-rule="evenodd" clip-rule="evenodd" d="M23.3109 15.3183C23.3516 15.2724 23.3324 15.2724 23.3861 15.2389C23.394 15.2493 23.4099 15.2264 23.4213 15.3369C23.465 15.2612 23.4345 15.2466 23.3805 15.21C23.3178 15.24 23.3313 15.2407 23.3109 15.3183Z" fill="#FEFEFE"/>
<path fill-rule="evenodd" clip-rule="evenodd" d="M21.3712 17.4754C21.4374 17.4228 21.4481 17.3821 21.4281 17.2869L21.3712 17.4754Z" fill="#FEFEFE"/>
<path fill-rule="evenodd" clip-rule="evenodd" d="M23.6701 18.8993C23.7394 18.8604 23.7261 18.879 23.7243 18.7771C23.6699 18.8302 23.6718 18.8206 23.6701 18.8993Z" fill="#FEFEFE"/>
<path fill-rule="evenodd" clip-rule="evenodd" d="M20.3605 15.8334C20.3889 15.8807 20.3387 15.8637 20.3945 15.867C20.4542 15.8706 20.4429 15.8394 20.445 15.837C20.3726 15.7855 20.4007 15.7965 20.3605 15.8334Z" fill="#FEFEFE"/>
<path fill-rule="evenodd" clip-rule="evenodd" d="M22.5008 18.4019C22.4387 18.4356 22.4638 18.4356 22.495 18.494C22.5281 18.4431 22.5172 18.5399 22.5206 18.435C22.5222 18.3821 22.511 18.4151 22.5008 18.4019Z" fill="#FEFEFE"/>
<path fill-rule="evenodd" clip-rule="evenodd" d="M25.2006 14.6937C25.2453 14.6544 25.2294 14.6883 25.2508 14.6391C25.2662 14.6031 25.2523 14.6177 25.253 14.5825C25.1916 14.6305 25.2103 14.5919 25.2006 14.6937Z" fill="#FEFEFE"/>
<path fill-rule="evenodd" clip-rule="evenodd" d="M25.0285 15.1145C25.0955 14.9978 25.0653 15.1901 25.0869 15.0239C25.0085 15.0607 25.0083 15.0219 25.0285 15.1145Z" fill="#FEFEFE"/>
<path fill-rule="evenodd" clip-rule="evenodd" d="M23.4652 14.9835C23.4948 14.9524 23.4946 15.006 23.5071 14.949C23.5182 14.8986 23.4827 14.9053 23.4822 14.9049C23.4562 14.948 23.4634 14.9214 23.4652 14.9835Z" fill="#FEFEFE"/>
<path fill-rule="evenodd" clip-rule="evenodd" d="M24.4673 18.5435C24.4992 18.5612 24.4861 18.5612 24.5337 18.5597C24.5207 18.5116 24.5167 18.5032 24.4673 18.5435Z" fill="#FEFEFE"/>
<path fill-rule="evenodd" clip-rule="evenodd" d="M20.7243 16.6775C20.7558 16.6593 20.7499 16.7033 20.7599 16.625C20.7037 16.6486 20.7008 16.6186 20.7243 16.6775Z" fill="#FEFEFE"/>
<path fill-rule="evenodd" clip-rule="evenodd" d="M24.757 14.3901C24.7855 14.3353 24.7749 14.3814 24.7621 14.3149C24.7441 14.3537 24.7364 14.3522 24.757 14.3901Z" fill="#FEFEFE"/>
<path fill-rule="evenodd" clip-rule="evenodd" d="M25.3295 14.478C25.3214 14.5098 25.2952 14.4494 25.3292 14.5429C25.3292 14.5428 25.3409 14.5161 25.3413 14.5112C25.3442 14.4759 25.3315 14.4818 25.3295 14.478Z" fill="#FEFEFE"/>
<path fill-rule="evenodd" clip-rule="evenodd" d="M23.3015 17.1953C23.2752 17.2053 23.3006 17.1852 23.2609 17.2148C23.239 17.2312 23.2454 17.2336 23.239 17.2559L23.3015 17.1953Z" fill="#FEFEFE"/>
<path d="M52.3398 41.1263C52.352 41.147 52.3585 41.1695 52.3585 41.1932C52.3585 41.2455 52.3361 41.2837 52.291 41.3098C52.27 41.3205 52.2479 41.3261 52.2241 41.3261C52.1716 41.3261 52.1333 41.3039 52.1074 41.2583C52.0967 41.2391 52.091 41.2175 52.091 41.1932C52.091 41.1413 52.1133 41.1031 52.1584 41.0772C52.1779 41.0651 52.1994 41.0585 52.2241 41.0585C52.2757 41.0585 52.3137 41.081 52.3398 41.1263ZM52.0227 40.8997C52.0421 40.9349 52.052 40.9735 52.052 41.0154C52.052 41.1051 52.0134 41.1729 51.9349 41.2189C51.8997 41.2383 51.8609 41.2486 51.8192 41.2486C51.7293 41.2486 51.6624 41.209 51.6178 41.1306C51.5971 41.096 51.5864 41.0575 51.5864 41.0154C51.5864 40.9258 51.6257 40.858 51.7041 40.8117C51.74 40.7924 51.7787 40.7824 51.8192 40.7824C51.9105 40.7824 51.978 40.8213 52.0227 40.8997ZM51.5854 40.5978C51.5854 40.9084 51.4753 41.1736 51.2553 41.394C51.0361 41.6132 50.7707 41.7231 50.4607 41.7231C50.1809 41.7231 49.9366 41.6326 49.7273 41.4513C49.4927 41.5778 49.2434 41.6411 48.9793 41.6411C48.7975 41.6411 48.6199 41.6092 48.4466 41.5462C48.0073 41.3888 47.6986 41.0931 47.5218 40.6595C47.5039 40.6595 47.4961 40.6595 47.4987 40.6595C47.189 40.6595 46.9236 40.5495 46.7036 40.3294C46.4842 40.1098 46.3742 39.8447 46.3742 39.5341C46.3742 39.2241 46.4842 38.9587 46.7036 38.7387C46.9236 38.5195 47.189 38.4095 47.4987 38.4095C47.7787 38.4095 48.023 38.5009 48.2324 38.6825C48.4668 38.5571 48.7156 38.4934 48.9793 38.4934C49.1622 38.4934 49.339 38.5246 49.5107 38.5864C49.9516 38.7446 50.26 39.0407 50.4372 39.4752C50.4557 39.4739 50.4636 39.4731 50.4607 39.4731C50.7707 39.4731 51.0361 39.5832 51.2553 39.8032C51.4753 40.0224 51.5854 40.288 51.5854 40.5978ZM46.6075 38.6208C46.6075 38.6849 46.5842 38.7404 46.5391 38.7859C46.4936 38.831 46.439 38.8539 46.3742 38.8539C46.3103 38.8539 46.2548 38.831 46.2095 38.7859C46.1643 38.7404 46.1412 38.6849 46.1412 38.6208C46.1412 38.5561 46.1643 38.5018 46.2095 38.4565C46.2548 38.4111 46.3103 38.388 46.3742 38.388C46.439 38.388 46.4936 38.4111 46.5391 38.4565C46.5842 38.5018 46.6075 38.5561 46.6075 38.6208ZM46.1542 38.3628C46.1542 38.4513 46.1105 38.4957 46.0218 38.4957C45.932 38.4957 45.8865 38.4513 45.8865 38.3628C45.8865 38.273 45.932 38.2283 46.0218 38.2283C46.1105 38.2283 46.1542 38.273 46.1542 38.3628ZM51.1115 40.5978C51.1115 40.4179 51.0476 40.265 50.9197 40.139C50.8175 40.0347 50.6938 39.9728 50.5492 39.9536C50.5644 40.1739 50.5348 40.3884 50.4593 40.5978C50.3839 40.8071 50.2702 40.9916 50.1171 41.1513C50.222 41.2161 50.3371 41.2486 50.46 41.2486C50.6406 41.2486 50.7939 41.1852 50.9209 41.0578C51.0483 40.9306 51.1115 40.7773 51.1115 40.5978ZM47.8419 38.9813C47.737 38.9165 47.6226 38.884 47.4987 38.884C47.3192 38.884 47.166 38.9476 47.0393 39.0748C46.9122 39.202 46.8489 39.3553 46.8489 39.535C46.8489 39.7139 46.9128 39.8676 47.0402 39.9957C47.1429 40.098 47.2659 40.159 47.4105 40.1791C47.3953 39.9586 47.4247 39.7432 47.4997 39.535C47.5751 39.3255 47.6888 39.1409 47.8419 38.9813Z" fill="#FEFEFE"/>
<path d="M71.3157 8.26275H68.8006V18.975H71.3157V8.26275ZM80.631 14.4574C80.631 12.6098 80.0564 11.1812 77.8364 11.1812C76.7342 11.1812 76.0354 11.7405 75.6162 12.4234H75.5852L75.6009 11.3213H73.1168V18.975H75.6009V15.1869C75.6009 14.0846 75.8957 13.2153 76.967 13.2153C77.9917 13.2153 78.1469 13.9761 78.1469 14.985V18.975H80.631V14.4574ZM88.0674 16.6154C88.0674 15.808 87.6948 15.3111 87.4465 15.0627C87.1825 14.8145 86.7944 14.6125 86.4528 14.4885C86.1267 14.3639 85.8938 14.2866 85.3661 14.1314C84.8383 13.9761 84.2482 13.7895 84.2482 13.3859C84.2482 12.9822 84.5742 12.827 85.1643 12.827C85.7853 12.827 86.6547 13.2308 87.0894 13.5725L87.8966 12.1131C87.4618 11.756 86.5616 11.1661 84.9625 11.1661C83.3633 11.1661 82.0593 12.082 82.0593 13.5725C82.0593 14.9387 83.0062 15.4199 83.3633 15.575C83.7204 15.7301 84.1553 15.8544 84.45 15.9323C84.7297 16.0252 85.8474 16.2736 85.8474 16.7704C85.8474 17.2676 85.4128 17.4226 84.7916 17.4226C84.1705 17.4226 83.146 17.019 82.525 16.4911L81.5933 17.966C82.4629 18.7887 83.6738 19.146 84.8226 19.146C85.8474 19.146 86.6081 18.913 87.167 18.4783C87.7259 18.028 88.0674 17.4069 88.0674 16.6154ZM93.7963 11.3365H92.1038V9.25614H89.6045V11.3365H88.5178V13.2153H89.6045V16.1805C89.6045 17.345 89.7598 17.9815 90.1479 18.4317C90.536 18.8819 91.1257 19.146 92.0108 19.146C92.9114 19.146 93.5943 18.9442 93.7806 18.8974L93.6565 16.9567C93.6565 16.9567 93.2994 17.0966 92.9114 17.0966C92.5854 17.0966 92.4302 17.0345 92.3213 16.9101C92.1971 16.7704 92.1038 16.6153 92.1038 15.9631V13.2153H93.7963V11.3365ZM97.4758 9.14772C97.4758 8.38701 96.9014 7.85913 96.0628 7.85913C95.2246 7.85913 94.6502 8.38701 94.6502 9.14772C94.6502 9.92394 95.2246 10.4362 96.0628 10.4362C96.9014 10.4362 97.4758 9.92394 97.4758 9.14772ZM97.305 11.3213H94.8209V18.975H97.305V11.3213ZM103.546 11.3365H101.854V9.25614H99.3542V11.3365H98.2676V13.2153H99.3542V16.1805C99.3542 17.345 99.5095 17.9815 99.8976 18.4317C100.286 18.8819 100.876 19.146 101.761 19.146C102.661 19.146 103.344 18.9442 103.531 18.8974L103.406 16.9567C103.406 16.9567 103.049 17.0966 102.661 17.0966C102.335 17.0966 102.18 17.0345 102.071 16.9101C101.947 16.7704 101.854 16.6153 101.854 15.9631V13.2153H103.546V11.3365ZM111.883 11.3213H109.399V15.3887C109.399 16.3978 108.995 17.0966 108.11 17.0966C107.226 17.0966 106.977 16.4911 106.977 15.6062V11.3213H104.493V15.9476C104.493 17.0498 104.679 17.7176 105.052 18.2454C105.44 18.7579 106.139 19.146 107.241 19.146C108.343 19.146 109.151 18.5713 109.477 18.1057L109.492 18.975H111.883V11.3213ZM118.093 11.3365H116.401V9.25614H113.901V11.3365H112.815V13.2153H113.901V16.1805C113.901 17.345 114.057 17.9815 114.445 18.4317C114.833 18.8819 115.423 19.146 116.308 19.146C117.208 19.146 117.891 18.9442 118.078 18.8974L117.953 16.9567C117.953 16.9567 117.596 17.0966 117.208 17.0966C116.882 17.0966 116.727 17.0345 116.618 16.9101C116.494 16.7704 116.401 16.6153 116.401 15.9631V13.2153H118.093V11.3365ZM126.974 15.1716C126.974 12.703 125.157 11.1812 122.735 11.1812C120.313 11.1812 118.481 12.703 118.481 15.1716C118.481 17.6399 120.313 19.146 122.735 19.146C125.157 19.146 126.974 17.6399 126.974 15.1716ZM124.474 15.1246C124.474 16.2583 123.822 17.1121 122.735 17.1121C121.633 17.1121 120.996 16.2583 120.996 15.1246C120.996 13.9913 121.633 13.1376 122.735 13.1376C123.822 13.1376 124.474 13.9913 124.474 15.1246ZM138.478 16.9413H133.898V14.4574H138.09V12.4544H133.898V10.2656H138.338V8.26275H131.398V18.975H138.478V16.9413ZM147.793 8.26275H145.309V12.2526C145.06 11.8802 144.284 11.1812 142.887 11.1812C140.667 11.1812 139.269 12.9046 139.269 15.1558C139.269 17.4069 140.667 19.146 142.887 19.146C143.911 19.146 144.827 18.7579 145.402 17.9815L145.448 17.966L145.433 18.975H147.793V8.26275ZM145.386 15.1246C145.386 16.3048 144.672 17.1121 143.601 17.1121C142.53 17.1121 141.8 16.3048 141.8 15.1246C141.8 13.9447 142.53 13.1376 143.601 13.1376C144.672 13.1376 145.386 13.9447 145.386 15.1246ZM156.844 11.3213H154.36V15.3887C154.36 16.3978 153.956 17.0966 153.071 17.0966C152.186 17.0966 151.938 16.4911 151.938 15.6062V11.3213H149.454V15.9476C149.454 17.0498 149.64 17.7176 150.013 18.2454C150.401 18.7579 151.1 19.146 152.202 19.146C153.304 19.146 154.112 18.5713 154.438 18.1057L154.453 18.975H156.844V11.3213ZM164.405 16.3513C164.405 16.3513 163.628 17.0966 162.464 17.0966C161.3 17.0966 160.539 16.3359 160.539 15.1246C160.539 13.9137 161.377 13.184 162.433 13.184C163.504 13.184 164.187 13.6965 164.405 13.8672L164.948 11.9885C164.948 11.9885 164.063 11.1812 162.107 11.1812C160.011 11.1812 158.039 12.6098 158.039 15.1716C158.039 17.7176 159.98 19.146 162.076 19.146C164.11 19.146 164.917 18.292 164.995 18.2301L164.405 16.3513ZM172.835 14.6592C172.835 13.3706 172.509 12.6254 171.919 12.0661C171.313 11.5074 170.491 11.1812 169.062 11.1812C167.634 11.1812 166.439 11.6318 165.786 11.9578L166.439 13.5725C166.827 13.3241 167.805 12.8893 168.783 12.8893C169.776 12.8893 170.351 13.3083 170.351 14.1157V14.2866L168.426 14.3639C167.013 14.4262 165.445 15.0004 165.445 16.7083C165.445 18.4164 166.873 19.146 168.224 19.146C169.466 19.146 170.087 18.4938 170.413 18.1678L170.46 18.975H172.835V14.6592ZM170.366 16.8637C170.211 17.1275 169.761 17.5623 169.093 17.5623C168.41 17.5623 167.929 17.2051 167.929 16.6154C167.929 16.0407 168.379 15.7147 169.14 15.6837L170.366 15.6062V16.8637ZM180.287 16.3513C180.287 16.3513 179.511 17.0966 178.346 17.0966C177.182 17.0966 176.421 16.3359 176.421 15.1246C176.421 13.9137 177.26 13.184 178.315 13.184C179.386 13.184 180.069 13.6965 180.287 13.8672L180.83 11.9885C180.83 11.9885 179.945 11.1812 177.989 11.1812C175.893 11.1812 173.922 12.6098 173.922 15.1716C173.922 17.7176 175.862 19.146 177.958 19.146C179.992 19.146 180.799 18.292 180.877 18.2301L180.287 16.3513ZM184.541 9.14772C184.541 8.38701 183.966 7.85913 183.128 7.85913C182.29 7.85913 181.715 8.38701 181.715 9.14772C181.715 9.92394 182.29 10.4362 183.128 10.4362C183.966 10.4362 184.541 9.92394 184.541 9.14772ZM184.37 11.3213H181.886V18.975H184.37V11.3213ZM194.089 15.1716C194.089 12.703 192.272 11.1812 189.85 11.1812C187.429 11.1812 185.597 12.703 185.597 15.1716C185.597 17.6399 187.429 19.146 189.85 19.146C192.272 19.146 194.089 17.6399 194.089 15.1716ZM191.589 15.1246C191.589 16.2583 190.937 17.1121 189.85 17.1121C188.748 17.1121 188.112 16.2583 188.112 15.1246C188.112 13.9913 188.748 13.1376 189.85 13.1376C190.937 13.1376 191.589 13.9913 191.589 15.1246ZM202.814 14.4574C202.814 12.6098 202.24 11.1812 200.02 11.1812C198.917 11.1812 198.218 11.7405 197.799 12.4234H197.768L197.784 11.3213H195.3V18.975H197.784V15.1869C197.784 14.0846 198.079 13.2153 199.15 13.2153C200.175 13.2153 200.33 13.9761 200.33 14.985V18.975H202.814V14.4574ZM211.275 14.6592C211.275 13.3706 210.949 12.6254 210.359 12.0661C209.754 11.5074 208.931 11.1812 207.503 11.1812C206.074 11.1812 204.879 11.6318 204.227 11.9578L204.879 13.5725C205.267 13.3241 206.245 12.8893 207.223 12.8893C208.217 12.8893 208.791 13.3083 208.791 14.1157V14.2866L206.866 14.3639C205.453 14.4262 203.885 15.0004 203.885 16.7083C203.885 18.4164 205.314 19.146 206.664 19.146C207.906 19.146 208.527 18.4938 208.853 18.1678L208.9 18.975H211.275V14.6592ZM208.807 16.8637C208.652 17.1275 208.201 17.5623 207.534 17.5623C206.85 17.5623 206.369 17.2051 206.369 16.6154C206.369 16.0407 206.819 15.7147 207.58 15.6837L208.807 15.6062V16.8637ZM215.358 8.26275H212.874V18.975H215.358V8.26275Z" fill="#282829"/>
<path d="M68.445 34.0606C68.445 37.2037 70.7251 38.6207 72.964 38.6207C75.2235 38.6207 77.5239 37.2446 77.5239 34.0606V23.7903H71.1152V26.0703H74.8742V34.0195C74.8742 35.6013 73.9912 36.1969 73.005 36.1969C72.019 36.1969 71.0743 35.6218 71.0743 33.8965V33.2185H68.445V34.0606ZM79.2813 30.9796C79.2813 35.2728 82.5268 38.6207 86.8198 38.6207C91.1128 38.6207 94.3583 35.2728 94.3583 30.9796C94.3583 26.8098 91.1128 23.5439 86.8198 23.5439C82.5268 23.5439 79.2813 26.8098 79.2813 30.9796ZM82.0131 30.9796C82.0131 28.104 84.1494 25.9677 86.8198 25.9677C89.49 25.9677 91.6263 28.104 91.6263 30.9796C91.6263 33.9785 89.49 36.1969 86.8198 36.1969C84.1494 36.1969 82.0131 33.9785 82.0131 30.9796ZM95.191 36.6284C95.191 36.6284 96.978 38.6207 100.223 38.6207C103.264 38.6207 105.03 36.6696 105.03 34.3484C105.03 29.6855 98.1696 30.3222 98.1696 27.7343C98.1696 26.707 99.135 25.9882 100.367 25.9882C102.196 25.9882 103.592 27.2616 103.592 27.2616L104.743 25.1051C104.743 25.1051 103.264 23.5439 100.388 23.5439C97.5945 23.5439 95.4992 25.3515 95.4992 27.7751C95.4992 32.253 102.38 31.8012 102.38 34.41C102.38 35.6013 101.374 36.1764 100.265 36.1764C98.2106 36.1764 96.6289 34.6358 96.6289 34.6358L95.191 36.6284ZM106.931 38.3745H109.581V23.7903H106.931V38.3745ZM115.98 38.3745H118.61L123.93 23.7903H121.095L117.87 33.3006C117.583 34.1428 117.336 35.4371 117.316 35.4371H117.274C117.254 35.4371 117.007 34.1428 116.72 33.3006L113.516 23.7903H110.66L115.98 38.3745ZM132.917 38.3745H135.649L130.514 23.7903H127.741L122.606 38.3745H125.338L126.57 34.6358H131.685L132.917 38.3745ZM129.159 26.3171C129.159 26.3171 129.466 27.7548 129.733 28.5764L131.027 32.4792H127.207L128.501 28.5764C128.789 27.7548 129.117 26.3171 129.117 26.3171H129.159ZM136.77 38.3745H145.725V36.0945H139.419V23.7903H136.77V38.3745ZM151.335 38.3745H153.985V33.3418H156.963C159.695 33.3418 161.606 31.3699 161.606 28.5351C161.606 25.701 159.695 23.7903 156.963 23.7903H151.335V38.3745ZM153.985 31.041V26.0703H156.511C158.011 26.0703 158.915 27.036 158.915 28.5351C158.915 30.0554 158.011 31.041 156.47 31.041H153.985ZM163.198 38.3745H172.257V36.0945H165.848V32.1709H170.758V29.8911H165.848V26.0703H171.928V23.7903H163.198V38.3745ZM174.261 38.3745H176.91V29.9734C176.91 29.1104 176.767 27.7138 176.767 27.7138H176.808C176.808 27.7138 177.465 29.131 178.02 29.9734L183.545 38.3745H186.174V23.7903H183.545V32.2123C183.545 33.0749 183.689 34.4716 183.689 34.4716H183.648C183.648 34.4716 182.991 33.0543 182.436 32.2123L176.91 23.7903H174.261V38.3745ZM189.123 38.3745H191.773V32.253H198.449V38.3745H201.098V23.7903H198.449V29.9734H191.773V23.7903H189.123V38.3745ZM212.53 38.3745H215.262L210.127 23.7903H207.354L202.219 38.3745H204.951L206.183 34.6358H211.298L212.53 38.3745ZM208.771 26.3171C208.771 26.3171 209.079 27.7548 209.347 28.5764L210.64 32.4792H206.82L208.114 28.5764C208.401 27.7548 208.73 26.3171 208.73 26.3171H208.771Z" fill="#282829"/>
<path d="M73.1668 50.3069C73.1668 50.6144 73.1175 50.894 73.0188 51.1464C72.9202 51.3988 72.7824 51.6147 72.6055 51.7949C72.4283 51.9745 72.2198 52.1122 71.9791 52.2084C71.7381 52.304 71.4754 52.3519 71.1914 52.3519C70.9071 52.3519 70.6445 52.3024 70.4035 52.2037C70.1632 52.1048 69.9542 51.9674 69.7774 51.7904C69.6002 51.6134 69.4626 51.3988 69.3639 51.1464C69.2651 50.894 69.2162 50.6144 69.2162 50.3069V49.6454C69.2162 49.3378 69.2651 49.0583 69.3639 48.8056C69.4626 48.5534 69.599 48.3385 69.7728 48.1615C69.9471 47.9846 70.1542 47.8467 70.3952 47.7484C70.6357 47.6499 70.9014 47.6004 71.1914 47.6004C71.4754 47.6004 71.7381 47.6499 71.9791 47.7484C72.2198 47.8467 72.4283 47.9846 72.6055 48.1615C72.7824 48.3385 72.9202 48.5534 73.0188 48.8056C73.1175 49.0583 73.1668 49.3378 73.1668 49.6454V50.3069ZM72.5053 49.6891C72.5053 49.2364 72.3862 48.8737 72.1486 48.6013C71.9107 48.3286 71.5917 48.1923 71.1914 48.1923C70.9883 48.1923 70.8068 48.2284 70.6476 48.3008C70.4879 48.3737 70.3502 48.4748 70.2342 48.6058C70.1182 48.7359 70.0297 48.8929 69.9689 49.0755C69.9079 49.2582 69.8773 49.4626 69.8773 49.6891V50.2546C69.8773 50.7071 69.9964 51.071 70.2342 51.3465C70.4719 51.6222 70.7913 51.7601 71.1914 51.7601C71.3886 51.7601 71.5684 51.7237 71.7308 51.6513C71.8932 51.5788 72.0311 51.4769 72.1441 51.3465C72.2572 51.2162 72.3459 51.0579 72.4098 50.8723C72.4733 50.6866 72.5053 50.4807 72.5053 50.2546V49.6891ZM76.6839 47.6788H77.6239V46.7218C77.6239 46.4372 77.7079 46.2082 77.8762 46.0341C78.0445 45.8599 78.2821 45.7732 78.5896 45.7732H79.4861V46.3647H78.6854C78.4185 46.3647 78.2852 46.5155 78.2852 46.8173V47.6788H79.4861V48.2705H78.2852V52.2646H77.6239V48.2705H76.6839V47.6788ZM80.9185 47.6788H81.5885V50.5504C81.5885 50.8927 81.6929 51.1768 81.9019 51.4032C82.1103 51.6295 82.3891 51.7423 82.737 51.7423C82.9168 51.7423 83.0839 51.7107 83.2373 51.6468C83.3909 51.5833 83.5232 51.496 83.6333 51.386C83.7435 51.2756 83.8291 51.1436 83.8899 50.9898C83.9507 50.8359 83.9814 50.6693 83.9814 50.4894V47.6788H84.6513V52.2646H83.9814V51.4032C83.8598 51.6991 83.6697 51.9311 83.4115 52.0993C83.1531 52.2676 82.8617 52.3519 82.5369 52.3519C82.2932 52.3519 82.0714 52.3083 81.8712 52.2212C81.6712 52.134 81.5013 52.0165 81.362 51.8686C81.2231 51.7208 81.114 51.5455 81.0359 51.3424C80.9577 51.1389 80.9185 50.9188 80.9185 50.6809V47.6788ZM88.0069 52.2646C87.6938 52.2646 87.4502 52.1805 87.2758 52.0122C87.102 51.8441 87.015 51.6236 87.015 51.3512V48.2705H86.0753V47.6788H87.015V46.3041H87.6763V47.6788H88.9034V48.2705H87.6763V51.2552C87.6763 51.5338 87.8299 51.673 88.1374 51.673H88.9034V52.2646H88.0069ZM90.2572 47.6788H90.9273V50.5504C90.9273 50.8927 91.0317 51.1768 91.2406 51.4032C91.4494 51.6295 91.728 51.7423 92.0761 51.7423C92.2558 51.7423 92.4227 51.7107 92.5763 51.6468C92.7302 51.5833 92.862 51.496 92.9724 51.386C93.0825 51.2756 93.168 51.1436 93.2289 50.9898C93.2899 50.8359 93.3204 50.6693 93.3204 50.4894V47.6788H93.9905V52.2646H93.3204V51.4032C93.1985 51.6991 93.0087 51.9311 92.7503 52.0993C92.4923 52.2676 92.2007 52.3519 91.8759 52.3519C91.6322 52.3519 91.4102 52.3083 91.2102 52.2212C91.0099 52.134 90.8402 52.0165 90.7013 51.8686C90.5619 51.7208 90.453 51.5455 90.3749 51.3424C90.2965 51.1389 90.2572 50.9188 90.2572 50.6809V47.6788ZM97.7115 48.2966C97.5549 48.2966 97.4071 48.3286 97.2676 48.3924C97.1283 48.4563 97.0079 48.5431 96.9066 48.6534C96.805 48.7635 96.7251 48.8941 96.6673 49.0449C96.6093 49.1957 96.58 49.3611 96.58 49.5408V52.2646H95.9103V47.6788H96.5715V48.6013C96.6642 48.3111 96.8136 48.079 97.0194 47.905C97.2257 47.7309 97.4735 47.6441 97.7635 47.6441H98.1464V48.2966H97.7115ZM103.094 50.3069C103.094 50.6144 103.045 50.894 102.947 51.1464C102.848 51.3988 102.71 51.6147 102.533 51.7949C102.356 51.9745 102.147 52.1122 101.907 52.2084C101.666 52.304 101.403 52.3519 101.119 52.3519C100.835 52.3519 100.572 52.3024 100.331 52.2037C100.091 52.1048 99.8817 51.9674 99.7049 51.7904C99.5281 51.6134 99.3903 51.3988 99.2916 51.1464C99.193 50.894 99.1439 50.6144 99.1439 50.3069V49.6454C99.1439 49.3378 99.193 49.0583 99.2916 48.8056C99.3903 48.5534 99.5267 48.3385 99.7006 48.1615C99.8746 47.9846 100.082 47.8467 100.323 47.7484C100.564 47.6499 100.829 47.6004 101.119 47.6004C101.403 47.6004 101.666 47.6499 101.907 47.7484C102.147 47.8467 102.356 47.9846 102.533 48.1615C102.71 48.3385 102.848 48.5534 102.947 48.8056C103.045 49.0583 103.094 49.3378 103.094 49.6454V50.3069ZM102.433 49.6891C102.433 49.2364 102.314 48.8737 102.076 48.6013C101.838 48.3286 101.519 48.1923 101.119 48.1923C100.916 48.1923 100.735 48.2284 100.575 48.3008C100.416 48.3737 100.278 48.4748 100.162 48.6058C100.046 48.7359 99.9574 48.8929 99.8965 49.0755C99.8357 49.2582 99.805 49.4626 99.805 49.6891V50.2546C99.805 50.7071 99.924 51.071 100.162 51.3465C100.4 51.6222 100.719 51.7601 101.119 51.7601C101.316 51.7601 101.496 51.7237 101.659 51.6513C101.821 51.5788 101.959 51.4769 102.072 51.3465C102.185 51.2162 102.273 51.0579 102.337 50.8723C102.401 50.6866 102.433 50.4807 102.433 50.2546V49.6891ZM110.171 52.2646V51.4466C110.02 51.7311 109.817 51.9528 109.562 52.1122C109.306 52.2719 109.011 52.3519 108.674 52.3519C108.413 52.3519 108.171 52.3024 107.947 52.2037C107.724 52.1048 107.533 51.9674 107.373 51.7904C107.214 51.6134 107.088 51.4002 106.995 51.1508C106.902 50.9015 106.856 50.6229 106.856 50.3155V49.6281C106.856 49.3265 106.9 49.0507 106.99 48.8014C107.08 48.5521 107.206 48.3375 107.369 48.1574C107.531 47.9777 107.724 47.8397 107.947 47.7439C108.171 47.6481 108.413 47.6004 108.674 47.6004C109.005 47.6004 109.299 47.6771 109.557 47.8311C109.815 47.9846 110.02 48.2008 110.171 48.4797V45.8863H110.841V52.2646H110.171ZM110.171 49.6891C110.171 49.4626 110.139 49.2582 110.075 49.0755C110.011 48.8929 109.921 48.7359 109.805 48.6058C109.689 48.4748 109.55 48.3737 109.388 48.3008C109.225 48.2284 109.042 48.1923 108.839 48.1923C108.637 48.1923 108.454 48.2284 108.291 48.3008C108.129 48.3737 107.991 48.4748 107.878 48.6058C107.765 48.7359 107.676 48.8929 107.612 49.0755C107.549 49.2582 107.517 49.4626 107.517 49.6891V50.2546C107.517 50.7071 107.637 51.071 107.878 51.3465C108.118 51.6222 108.439 51.7601 108.839 51.7601C109.246 51.7601 109.569 51.6222 109.81 51.3465C110.05 51.071 110.171 50.7071 110.171 50.2546V49.6891ZM116.467 50.3069C116.467 50.6144 116.418 50.894 116.32 51.1464C116.221 51.3988 116.083 51.6147 115.906 51.7949C115.729 51.9745 115.52 52.1122 115.28 52.2084C115.039 52.304 114.776 52.3519 114.492 52.3519C114.208 52.3519 113.945 52.3024 113.704 52.2037C113.464 52.1048 113.255 51.9674 113.078 51.7904C112.901 51.6134 112.763 51.3988 112.665 51.1464C112.566 50.894 112.517 50.6144 112.517 50.3069V49.6454C112.517 49.3378 112.566 49.0583 112.665 48.8056C112.763 48.5534 112.9 48.3385 113.073 48.1615C113.248 47.9846 113.455 47.8467 113.696 47.7484C113.936 47.6499 114.202 47.6004 114.492 47.6004C114.776 47.6004 115.039 47.6499 115.28 47.7484C115.52 47.8467 115.729 47.9846 115.906 48.1615C116.083 48.3385 116.221 48.5534 116.32 48.8056C116.418 49.0583 116.467 49.3378 116.467 49.6454V50.3069ZM115.806 49.6891C115.806 49.2364 115.687 48.8737 115.449 48.6013C115.211 48.3286 114.892 48.1923 114.492 48.1923C114.289 48.1923 114.108 48.2284 113.948 48.3008C113.789 48.3737 113.651 48.4748 113.535 48.6058C113.419 48.7359 113.33 48.8929 113.27 49.0755C113.209 49.2582 113.178 49.4626 113.178 49.6891V50.2546C113.178 50.7071 113.297 51.071 113.535 51.3465C113.773 51.6222 114.092 51.7601 114.492 51.7601C114.689 51.7601 114.869 51.7237 115.032 51.6513C115.194 51.5788 115.332 51.4769 115.445 51.3465C115.558 51.2162 115.646 51.0579 115.711 50.8723C115.774 50.6866 115.806 50.4807 115.806 50.2546V49.6891ZM121.943 52.3519C121.687 52.3519 121.451 52.314 121.233 52.2385C121.016 52.1632 120.824 52.0603 120.659 51.9297C120.494 51.7993 120.359 51.644 120.254 51.4639C120.15 51.2845 120.08 51.0871 120.045 50.8723H120.698C120.745 51.1334 120.877 51.3524 121.094 51.5296C121.312 51.7064 121.594 51.7949 121.943 51.7949C122.227 51.7949 122.454 51.728 122.626 51.5945C122.797 51.4614 122.882 51.293 122.882 51.0899C122.882 50.8986 122.813 50.7448 122.673 50.6286C122.534 50.5128 122.343 50.42 122.099 50.35L121.325 50.1502C120.936 50.0512 120.639 49.8991 120.433 49.6932C120.227 49.4873 120.124 49.2277 120.124 48.9147C120.124 48.5198 120.265 48.2025 120.546 47.9616C120.827 47.7209 121.2 47.6004 121.664 47.6004C121.896 47.6004 122.115 47.6352 122.321 47.705C122.527 47.7742 122.711 47.8744 122.874 48.005C123.036 48.1356 123.17 48.291 123.274 48.4705C123.379 48.6506 123.445 48.8478 123.474 49.0624H122.813C122.766 48.8014 122.637 48.5837 122.426 48.4097C122.214 48.2357 121.96 48.1486 121.664 48.1486C121.386 48.1486 121.17 48.2141 121.016 48.3445C120.862 48.4748 120.785 48.6388 120.785 48.836C120.785 49.0217 120.852 49.1709 120.985 49.2842C121.119 49.3972 121.299 49.4857 121.525 49.5499L122.282 49.75C122.688 49.8544 123 50.0153 123.217 50.2326C123.435 50.4504 123.544 50.7159 123.544 51.0289C123.544 51.2262 123.505 51.4063 123.426 51.5683C123.348 51.7311 123.238 51.8704 123.096 51.9862C122.954 52.1024 122.784 52.1921 122.586 52.2558C122.389 52.3196 122.175 52.3519 121.943 52.3519ZM124.863 49.6454C124.863 49.3434 124.911 49.0679 125.007 48.8187C125.103 48.5692 125.237 48.3545 125.411 48.1747C125.585 47.9946 125.791 47.8542 126.029 47.7525C126.267 47.6512 126.525 47.6004 126.804 47.6004C127.065 47.6004 127.307 47.6499 127.53 47.7484C127.754 47.8467 127.945 47.9864 128.105 48.1661C128.264 48.346 128.39 48.5576 128.483 48.8014C128.576 49.0449 128.622 49.3148 128.622 49.6106V50.1763H125.524V50.2892C125.524 50.5097 125.556 50.7101 125.62 50.8897C125.684 51.0697 125.775 51.225 125.894 51.3551C126.013 51.486 126.154 51.5858 126.316 51.6557C126.479 51.7249 126.656 51.7601 126.847 51.7601C127.091 51.7601 127.313 51.7107 127.513 51.6122C127.713 51.5134 127.897 51.3536 128.065 51.1334L128.535 51.5249C128.315 51.8037 128.067 52.0094 127.791 52.1427C127.516 52.2762 127.195 52.3429 126.83 52.3429C126.545 52.3429 126.283 52.2923 126.042 52.1909C125.801 52.0892 125.594 51.9484 125.42 51.7683C125.246 51.5888 125.11 51.3741 125.011 51.1248C124.912 50.8756 124.863 50.5997 124.863 50.2982V49.6454ZM126.786 48.1832C126.601 48.1832 126.431 48.2185 126.277 48.2878C126.124 48.3578 125.991 48.4563 125.881 48.5837C125.771 48.7115 125.684 48.8637 125.62 49.0407C125.556 49.2173 125.524 49.4133 125.524 49.6281H127.97V49.5931C127.97 49.3843 127.939 49.193 127.878 49.019C127.817 48.8447 127.734 48.6968 127.63 48.5749C127.526 48.453 127.401 48.3578 127.256 48.2878C127.111 48.2185 126.954 48.1832 126.786 48.1832ZM130.255 47.6788H130.925V50.5504C130.925 50.8927 131.029 51.1768 131.238 51.4032C131.447 51.6295 131.726 51.7423 132.074 51.7423C132.253 51.7423 132.42 51.7107 132.574 51.6468C132.728 51.5833 132.86 51.496 132.97 51.386C133.08 51.2756 133.166 51.1436 133.226 50.9898C133.287 50.8359 133.318 50.6693 133.318 50.4894V47.6788H133.988V52.2646H133.318V51.4032C133.196 51.6991 133.006 51.9311 132.748 52.0993C132.49 52.2676 132.198 52.3519 131.873 52.3519C131.63 52.3519 131.408 52.3083 131.208 52.2212C131.007 52.134 130.838 52.0165 130.699 51.8686C130.559 51.7208 130.451 51.5455 130.372 51.3424C130.294 51.1389 130.255 50.9188 130.255 50.6809V47.6788ZM137.758 47.6788H138.697V46.7218C138.697 46.4372 138.782 46.2082 138.95 46.0341C139.118 45.8599 139.356 45.7732 139.663 45.7732H141.604V46.3647H139.759C139.492 46.3647 139.359 46.5155 139.359 46.8173V47.6788H142.126V52.2646H141.456V48.2705H139.359V52.2646H138.697V48.2705H137.758V47.6788ZM144.029 52.2646V45.8863H144.698V52.2646H144.029ZM150.351 52.2646H149.681V49.4019C149.681 49.2277 149.654 49.0679 149.598 48.9233C149.543 48.778 149.466 48.6519 149.368 48.5446C149.269 48.4374 149.149 48.3531 149.007 48.2922C148.864 48.2314 148.706 48.2008 148.532 48.2008C148.347 48.2008 148.178 48.2326 148.028 48.2966C147.877 48.3603 147.746 48.4485 147.636 48.5619C147.526 48.6752 147.44 48.8069 147.379 48.9578C147.318 49.109 147.288 49.2741 147.288 49.4541V52.2646H146.618V45.8863H147.288V48.5403C147.41 48.2445 147.6 48.0122 147.858 47.8442C148.116 47.6757 148.41 47.5917 148.741 47.5917C148.985 47.5917 149.205 47.6352 149.402 47.7223C149.6 47.8096 149.768 47.9284 149.907 48.079C150.046 48.2298 150.155 48.4084 150.233 48.614C150.312 48.8204 150.351 49.039 150.351 49.271V52.2646ZM155.978 50.3069C155.978 50.6144 155.929 50.894 155.83 51.1464C155.731 51.3988 155.593 51.6147 155.416 51.7949C155.24 51.9745 155.031 52.1122 154.79 52.2084C154.549 52.304 154.287 52.3519 154.002 52.3519C153.718 52.3519 153.455 52.3024 153.215 52.2037C152.974 52.1048 152.765 51.9674 152.588 51.7904C152.411 51.6134 152.273 51.3988 152.175 51.1464C152.076 50.894 152.027 50.6144 152.027 50.3069V49.6454C152.027 49.3378 152.076 49.0583 152.175 48.8056C152.273 48.5534 152.41 48.3385 152.584 48.1615C152.758 47.9846 152.965 47.8467 153.206 47.7484C153.447 47.6499 153.712 47.6004 154.002 47.6004C154.287 47.6004 154.549 47.6499 154.79 47.7484C155.031 47.8467 155.24 47.9846 155.416 48.1615C155.593 48.3385 155.731 48.5534 155.83 48.8056C155.929 49.0583 155.978 49.3378 155.978 49.6454V50.3069ZM155.316 49.6891C155.316 49.2364 155.197 48.8737 154.959 48.6013C154.722 48.3286 154.402 48.1923 154.002 48.1923C153.799 48.1923 153.618 48.2284 153.459 48.3008C153.299 48.3737 153.161 48.4748 153.045 48.6058C152.929 48.7359 152.841 48.8929 152.78 49.0755C152.719 49.2582 152.688 49.4626 152.688 49.6891V50.2546C152.688 50.7071 152.807 51.071 153.045 51.3465C153.283 51.6222 153.602 51.7601 154.002 51.7601C154.2 51.7601 154.379 51.7237 154.542 51.6513C154.704 51.5788 154.842 51.4769 154.955 51.3465C155.068 51.2162 155.157 51.0579 155.221 50.8723C155.284 50.6866 155.316 50.4807 155.316 50.2546V49.6891ZM161.67 52.3519C161.392 52.3519 161.135 52.3024 160.9 52.2037C160.665 52.1048 160.461 51.9674 160.287 51.7904C160.113 51.6134 159.978 51.3988 159.882 51.1464C159.786 50.894 159.739 50.6144 159.739 50.3069V49.6454C159.739 49.3378 159.786 49.0583 159.882 48.8056C159.978 48.5534 160.113 48.3385 160.287 48.1615C160.461 47.9846 160.665 47.8467 160.9 47.7484C161.135 47.6499 161.392 47.6004 161.67 47.6004C162.146 47.6004 162.551 47.7366 162.884 48.0094C163.218 48.2821 163.434 48.659 163.533 49.1409H162.863C162.781 48.8447 162.636 48.6127 162.427 48.4445C162.219 48.2762 161.966 48.1923 161.67 48.1923C161.479 48.1923 161.305 48.2284 161.148 48.3008C160.992 48.3737 160.858 48.4748 160.748 48.6058C160.638 48.7359 160.552 48.8929 160.491 49.0755C160.431 49.2582 160.4 49.4626 160.4 49.6891V50.2546C160.4 50.7071 160.516 51.071 160.748 51.3465C160.98 51.6222 161.287 51.7601 161.67 51.7601C161.966 51.7601 162.219 51.6759 162.427 51.5078C162.636 51.3395 162.781 51.1074 162.863 50.8115H163.533C163.481 51.0492 163.399 51.2628 163.289 51.4509C163.179 51.6395 163.042 51.8004 162.88 51.9339C162.717 52.0672 162.533 52.1705 162.327 52.2428C162.121 52.3152 161.903 52.3519 161.67 52.3519ZM168.777 50.3069C168.777 50.6144 168.727 50.894 168.629 51.1464C168.53 51.3988 168.392 51.6147 168.215 51.7949C168.038 51.9745 167.829 52.1122 167.589 52.2084C167.348 52.304 167.085 52.3519 166.801 52.3519C166.517 52.3519 166.254 52.3024 166.014 52.2037C165.773 52.1048 165.564 51.9674 165.387 51.7904C165.21 51.6134 165.072 51.3988 164.974 51.1464C164.875 50.894 164.826 50.6144 164.826 50.3069V49.6454C164.826 49.3378 164.875 49.0583 164.974 48.8056C165.072 48.5534 165.209 48.3385 165.383 48.1615C165.557 47.9846 165.764 47.8467 166.005 47.7484C166.246 47.6499 166.511 47.6004 166.801 47.6004C167.085 47.6004 167.348 47.6499 167.589 47.7484C167.829 47.8467 168.038 47.9846 168.215 48.1615C168.392 48.3385 168.53 48.5534 168.629 48.8056C168.727 49.0583 168.777 49.3378 168.777 49.6454V50.3069ZM168.115 49.6891C168.115 49.2364 167.996 48.8737 167.758 48.6013C167.521 48.3286 167.201 48.1923 166.801 48.1923C166.598 48.1923 166.417 48.2284 166.257 48.3008C166.098 48.3737 165.96 48.4748 165.844 48.6058C165.728 48.7359 165.64 48.8929 165.579 49.0755C165.518 49.2582 165.487 49.4626 165.487 49.6891V50.2546C165.487 50.7071 165.606 51.071 165.844 51.3465C166.082 51.6222 166.401 51.7601 166.801 51.7601C166.998 51.7601 167.178 51.7237 167.341 51.6513C167.503 51.5788 167.641 51.4769 167.754 51.3465C167.867 51.2162 167.956 51.0579 168.02 50.8723C168.083 50.6866 168.115 50.4807 168.115 50.2546V49.6891ZM171.123 52.2646H170.453V47.6788H171.123V48.5403C171.239 48.2445 171.418 48.0122 171.662 47.8442C171.906 47.6757 172.184 47.5917 172.498 47.5917C172.863 47.5917 173.175 47.6975 173.433 47.9093C173.691 48.1213 173.869 48.3954 173.968 48.7319C174.067 48.3954 174.247 48.1213 174.508 47.9093C174.769 47.6975 175.082 47.5917 175.447 47.5917C175.68 47.5917 175.891 47.6352 176.083 47.7223C176.274 47.8096 176.439 47.9295 176.579 48.0835C176.718 48.2371 176.825 48.4184 176.901 48.6275C176.976 48.8359 177.014 49.0596 177.014 49.2974V52.2646H176.344V49.4281C176.344 49.2537 176.317 49.0915 176.266 48.9405C176.213 48.7896 176.139 48.6589 176.044 48.5489C175.948 48.4388 175.832 48.3531 175.695 48.2922C175.559 48.2314 175.41 48.2008 175.247 48.2008C175.073 48.2008 174.914 48.2326 174.769 48.2966C174.624 48.3603 174.499 48.4504 174.394 48.5663C174.29 48.6825 174.209 48.8187 174.151 48.9753C174.093 49.132 174.064 49.3031 174.064 49.4889V52.2646H173.394V49.4281C173.394 49.2537 173.368 49.0915 173.316 48.9405C173.263 48.7896 173.189 48.6589 173.094 48.5489C172.998 48.4388 172.882 48.3531 172.745 48.2922C172.609 48.2314 172.46 48.2008 172.298 48.2008C172.123 48.2008 171.965 48.2326 171.823 48.2966C171.681 48.3603 171.558 48.4504 171.453 48.5663C171.349 48.6825 171.268 48.8187 171.21 48.9753C171.151 49.132 171.123 49.3031 171.123 49.4889V52.2646ZM178.69 49.6454C178.69 49.3434 178.738 49.0679 178.833 48.8187C178.929 48.5692 179.064 48.3545 179.238 48.1747C179.412 47.9946 179.618 47.8542 179.856 47.7525C180.094 47.6512 180.352 47.6004 180.63 47.6004C180.891 47.6004 181.134 47.6499 181.357 47.7484C181.58 47.8467 181.772 47.9864 181.931 48.1661C182.091 48.346 182.217 48.5576 182.31 48.8014C182.403 49.0449 182.449 49.3148 182.449 49.6106V50.1763H179.351V50.2892C179.351 50.5097 179.383 50.7101 179.447 50.8897C179.511 51.0697 179.602 51.225 179.721 51.3551C179.84 51.486 179.981 51.5858 180.143 51.6557C180.305 51.7249 180.483 51.7601 180.674 51.7601C180.918 51.7601 181.139 51.7107 181.339 51.6122C181.539 51.5134 181.724 51.3536 181.892 51.1334L182.362 51.5249C182.141 51.8037 181.893 52.0094 181.618 52.1427C181.342 52.2762 181.022 52.3429 180.656 52.3429C180.372 52.3429 180.11 52.2923 179.869 52.1909C179.628 52.0892 179.421 51.9484 179.247 51.7683C179.073 51.5888 178.936 51.3741 178.838 51.1248C178.739 50.8756 178.69 50.5997 178.69 50.2982V49.6454ZM180.613 48.1832C180.427 48.1832 180.258 48.2185 180.104 48.2878C179.95 48.3578 179.818 48.4563 179.708 48.5837C179.598 48.7115 179.511 48.8637 179.447 49.0407C179.383 49.2173 179.351 49.4133 179.351 49.6281H181.796V49.5931C181.796 49.3843 181.766 49.193 181.705 49.019C181.644 48.8447 181.561 48.6968 181.457 48.5749C181.353 48.453 181.228 48.3578 181.083 48.2878C180.938 48.2185 180.781 48.1832 180.613 48.1832ZM186.631 53.4655C186.631 53.6859 186.544 53.8715 186.37 54.0224C186.196 54.1732 185.981 54.2487 185.726 54.2487C185.535 54.2487 185.358 54.2125 185.195 54.1398C185.033 54.0674 184.905 53.9673 184.813 53.8396L185.135 53.5701C185.291 53.7614 185.483 53.8572 185.709 53.8572C185.848 53.8572 185.96 53.8193 186.044 53.7439C186.128 53.6684 186.17 53.5727 186.17 53.4569C186.17 53.3408 186.122 53.2466 186.027 53.1741C185.931 53.1015 185.804 53.0651 185.648 53.0651H185.361L185.579 52.3429C185.323 52.3196 185.09 52.2558 184.878 52.1515C184.666 52.0472 184.483 51.9063 184.329 51.7294C184.176 51.5526 184.056 51.3438 183.968 51.1031C183.881 50.8622 183.838 50.5968 183.838 50.3069V49.6454C183.838 49.3378 183.886 49.0583 183.981 48.8056C184.077 48.5534 184.212 48.3385 184.386 48.1615C184.56 47.9846 184.765 47.8467 185 47.7484C185.235 47.6499 185.491 47.6004 185.77 47.6004C186.246 47.6004 186.65 47.7366 186.984 48.0094C187.317 48.2821 187.533 48.659 187.632 49.1409H186.962C186.881 48.8447 186.736 48.6127 186.527 48.4445C186.318 48.2762 186.066 48.1923 185.77 48.1923C185.578 48.1923 185.404 48.2284 185.248 48.3008C185.091 48.3737 184.958 48.4748 184.847 48.6058C184.737 48.7359 184.652 48.8929 184.591 49.0755C184.53 49.2582 184.499 49.4626 184.499 49.6891V50.2546C184.499 50.7071 184.615 51.071 184.847 51.3465C185.079 51.6222 185.387 51.7601 185.77 51.7601C186.066 51.7601 186.318 51.6759 186.527 51.5078C186.736 51.3395 186.881 51.1074 186.962 50.8115H187.632C187.539 51.2467 187.346 51.599 187.053 51.8686C186.76 52.1384 186.405 52.2967 185.987 52.3429L185.865 52.7435C186.097 52.7608 186.283 52.8345 186.422 52.9652C186.562 53.0954 186.631 53.2626 186.631 53.4655ZM188.769 51.0028C188.769 50.5852 188.896 50.2659 189.151 50.0456C189.407 49.8252 189.752 49.7004 190.187 49.6715L191.64 49.5931V49.1668C191.64 48.8652 191.558 48.63 191.392 48.4622C191.227 48.2935 190.988 48.2096 190.674 48.2096C190.442 48.2096 190.226 48.25 190.026 48.3311C189.826 48.4127 189.633 48.5403 189.447 48.7141L189.099 48.2357C189.337 48.0326 189.588 47.8775 189.852 47.7701C190.116 47.6629 190.413 47.609 190.744 47.609C191.226 47.609 191.606 47.7412 191.884 48.005C192.162 48.2693 192.302 48.6275 192.302 49.0799V51.4032C192.302 51.5833 192.4 51.673 192.597 51.673H192.824V52.2646H192.449C192.217 52.2646 192.032 52.2021 191.893 52.0776C191.753 51.9528 191.675 51.7889 191.658 51.5858C191.524 51.8179 191.338 52.0021 191.101 52.1384C190.863 52.2749 190.593 52.3429 190.291 52.3429C190.071 52.3429 189.868 52.3097 189.682 52.2428C189.497 52.176 189.336 52.0831 189.199 51.9645C189.063 51.8456 188.957 51.705 188.882 51.5424C188.806 51.3799 188.769 51.2002 188.769 51.0028ZM189.421 50.9769C189.421 51.2205 189.511 51.4177 189.691 51.5683C189.871 51.7193 190.103 51.7949 190.387 51.7949C190.561 51.7949 190.725 51.7658 190.879 51.7077C191.033 51.65 191.166 51.5697 191.279 51.4684C191.392 51.3672 191.481 51.2493 191.545 51.116C191.608 50.9825 191.64 50.8403 191.64 50.6898V50.1415L190.265 50.2109C190.004 50.2226 189.798 50.2937 189.648 50.4243C189.497 50.5549 189.421 50.7389 189.421 50.9769ZM196.219 51.0028C196.219 50.5852 196.347 50.2659 196.602 50.0456C196.857 49.8252 197.202 49.7004 197.637 49.6715L199.091 49.5931V49.1668C199.091 48.8652 199.008 48.63 198.843 48.4622C198.677 48.2935 198.438 48.2096 198.125 48.2096C197.893 48.2096 197.677 48.25 197.477 48.3311C197.277 48.4127 197.084 48.5403 196.898 48.7141L196.55 48.2357C196.788 48.0326 197.039 47.8775 197.303 47.7701C197.567 47.6629 197.864 47.609 198.195 47.609C198.676 47.609 199.056 47.7412 199.335 48.005C199.613 48.2693 199.752 48.6275 199.752 49.0799V51.4032C199.752 51.5833 199.851 51.673 200.048 51.673H200.274V52.2646H199.9C199.668 52.2646 199.483 52.2021 199.343 52.0776C199.204 51.9528 199.126 51.7889 199.108 51.5858C198.975 51.8179 198.789 52.0021 198.551 52.1384C198.313 52.2749 198.044 52.3429 197.742 52.3429C197.522 52.3429 197.318 52.3097 197.133 52.2428C196.947 52.176 196.786 52.0831 196.65 51.9645C196.513 51.8456 196.408 51.705 196.333 51.5424C196.257 51.3799 196.219 51.2002 196.219 51.0028ZM196.872 50.9769C196.872 51.2205 196.962 51.4177 197.142 51.5683C197.321 51.7193 197.554 51.7949 197.838 51.7949C198.012 51.7949 198.176 51.7658 198.329 51.7077C198.483 51.65 198.617 51.5697 198.73 51.4684C198.843 51.3672 198.931 51.2493 198.995 51.116C199.059 50.9825 199.091 50.8403 199.091 50.6898V50.1415L197.716 50.2109C197.455 50.2226 197.249 50.2937 197.098 50.4243C196.947 50.5549 196.872 50.7389 196.872 50.9769ZM205.483 54.1357H204.813V51.4466C204.662 51.7311 204.46 51.9528 204.204 52.1122C203.949 52.2719 203.653 52.3519 203.317 52.3519C203.055 52.3519 202.813 52.3024 202.59 52.2037C202.367 52.1048 202.175 51.9674 202.016 51.7904C201.856 51.6134 201.73 51.4002 201.637 51.1508C201.544 50.9015 201.498 50.6229 201.498 50.3155V49.6281C201.498 49.3265 201.543 49.0507 201.633 48.8014C201.723 48.5521 201.849 48.3375 202.011 48.1574C202.174 47.9777 202.367 47.8397 202.59 47.7439C202.813 47.6481 203.055 47.6004 203.317 47.6004C203.647 47.6004 203.942 47.6771 204.2 47.8311C204.458 47.9846 204.662 48.2008 204.813 48.4797V47.6788H205.483V54.1357ZM204.813 49.6891C204.813 49.4626 204.781 49.2582 204.718 49.0755C204.654 48.8929 204.564 48.7359 204.448 48.6058C204.332 48.4748 204.192 48.3737 204.03 48.3008C203.868 48.2284 203.685 48.1923 203.482 48.1923C203.279 48.1923 203.096 48.2284 202.934 48.3008C202.771 48.3737 202.634 48.4748 202.52 48.6058C202.407 48.7359 202.319 48.8929 202.255 49.0755C202.191 49.2582 202.159 49.4626 202.159 49.6891V50.2546C202.159 50.7071 202.28 51.071 202.52 51.3465C202.761 51.6222 203.082 51.7601 203.482 51.7601C203.888 51.7601 204.211 51.6222 204.452 51.3465C204.693 51.071 204.813 50.7071 204.813 50.2546V49.6891ZM207.403 47.6788H208.073V50.5504C208.073 50.8927 208.177 51.1768 208.386 51.4032C208.595 51.6295 208.873 51.7423 209.222 51.7423C209.401 51.7423 209.568 51.7107 209.722 51.6468C209.876 51.5833 210.008 51.496 210.118 51.386C210.228 51.2756 210.314 51.1436 210.374 50.9898C210.435 50.8359 210.466 50.6693 210.466 50.4894V47.6788H211.136V52.2646H210.466V51.4032C210.344 51.6991 210.154 51.9311 209.896 52.0993C209.638 52.2676 209.346 52.3519 209.021 52.3519C208.778 52.3519 208.556 52.3083 208.356 52.2212C208.156 52.134 207.986 52.0165 207.847 51.8686C207.708 51.7208 207.598 51.5455 207.52 51.3424C207.442 51.1389 207.403 50.9188 207.403 50.6809V47.6788Z" fill="#282829"/>
<path d="M213.395 46.7824C213.273 46.7824 213.167 46.738 213.078 46.6477C212.987 46.5579 212.943 46.4546 212.943 46.3388C212.943 46.2112 212.987 46.1038 213.078 46.0169C213.167 45.9298 213.273 45.8865 213.395 45.8865C213.511 45.8865 213.613 45.9298 213.699 46.0169C213.787 46.1038 213.83 46.2112 213.83 46.3388C213.83 46.4546 213.787 46.5579 213.699 46.6477C213.613 46.738 213.511 46.7824 213.395 46.7824ZM213.726 52.2647H213.056V47.6789H213.726V52.2647ZM215.802 51.4467C215.924 51.4467 216.028 51.4904 216.115 51.5773C216.202 51.6644 216.246 51.7717 216.246 51.8995C216.246 52.0213 216.202 52.1255 216.115 52.2128C216.028 52.2993 215.924 52.343 215.802 52.343C215.68 52.343 215.576 52.2993 215.489 52.2128C215.402 52.1255 215.358 52.0213 215.358 51.8995C215.358 51.7717 215.402 51.6644 215.489 51.5773C215.576 51.4904 215.68 51.4467 215.802 51.4467Z" fill="#373435"/>
</svg>
